%TF.GenerationSoftware,KiCad,Pcbnew,8.0.6*%
%TF.CreationDate,2025-03-18T14:30:08-04:00*%
%TF.ProjectId,dan2,64616e32-2e6b-4696-9361-645f70636258,rev?*%
%TF.SameCoordinates,Original*%
%TF.FileFunction,Legend,Top*%
%TF.FilePolarity,Positive*%
%FSLAX46Y46*%
G04 Gerber Fmt 4.6, Leading zero omitted, Abs format (unit mm)*
G04 Created by KiCad (PCBNEW 8.0.6) date 2025-03-18 14:30:08*
%MOMM*%
%LPD*%
G01*
G04 APERTURE LIST*
%ADD10C,0.101600*%
%ADD11C,0.100000*%
%ADD12C,0.187500*%
%TA.AperFunction,Profile*%
%ADD13C,0.200000*%
%TD*%
G04 APERTURE END LIST*
D10*
X173231000Y-120448000D02*
X173230959Y-120468319D01*
X173213088Y-120874218D02*
X173211342Y-120894463D01*
X173159479Y-121297431D02*
X173156041Y-121317458D01*
X173070551Y-121714653D02*
X173065445Y-121734321D01*
X172946931Y-122122944D02*
X172940193Y-122142114D01*
X172789491Y-122519423D02*
X172781169Y-122537960D01*
X172599341Y-122901294D02*
X172589493Y-122919068D01*
X172377822Y-123265865D02*
X172366517Y-123282750D01*
X172126496Y-123610566D02*
X172113814Y-123626442D01*
X171847136Y-123932964D02*
X171833166Y-123947720D01*
X171541711Y-124230787D02*
X171526552Y-124244319D01*
X171212375Y-124501934D02*
X171196135Y-124514147D01*
X170861450Y-124744493D02*
X170844243Y-124755300D01*
X170491412Y-124956754D02*
X170473359Y-124966080D01*
X170104870Y-125137220D02*
X170086098Y-125144998D01*
X169704549Y-125284618D02*
X169685191Y-125290794D01*
X169293273Y-125397910D02*
X169273465Y-125402439D01*
X168873942Y-125476295D02*
X168853823Y-125479146D01*
X168449513Y-125519221D02*
X168429226Y-125520375D01*
X168022978Y-125526386D02*
X168002666Y-125525833D01*
X167597347Y-125497739D02*
X167577152Y-125495484D01*
X167175619Y-125433482D02*
X167155685Y-125429540D01*
X166760770Y-125334068D02*
X166741237Y-125328468D01*
X166355725Y-125200198D02*
X166336731Y-125192979D01*
X165963340Y-125032816D02*
X165945018Y-125024029D01*
X165586381Y-124833103D02*
X165568861Y-124822810D01*
X165227508Y-124602467D02*
X165210914Y-124590740D01*
X164889251Y-124342534D02*
X164873699Y-124329456D01*
X164573996Y-124055137D02*
X164559596Y-124040801D01*
X164283965Y-123742304D02*
X164270818Y-123726809D01*
X164021203Y-123406239D02*
X164009403Y-123389696D01*
X163787564Y-123049314D02*
X163777194Y-123031839D01*
X163584696Y-122674044D02*
X163575829Y-122655761D01*
X163414029Y-122283076D02*
X163406726Y-122264114D01*
X163276766Y-121879168D02*
X163271080Y-121859660D01*
X163173875Y-121465168D02*
X163169846Y-121445251D01*
X163106082Y-121043994D02*
X163103739Y-121023810D01*
X163073866Y-120618618D02*
X163073224Y-120598308D01*
X163077452Y-120192039D02*
X163078516Y-120171747D01*
X163116816Y-119767264D02*
X163119580Y-119747133D01*
X163191681Y-119347290D02*
X163196124Y-119327462D01*
X163301518Y-118935078D02*
X163307609Y-118915692D01*
X163445553Y-118533535D02*
X163453249Y-118514729D01*
X163622770Y-118145492D02*
X163632016Y-118127398D01*
X163831920Y-117773687D02*
X163842651Y-117756432D01*
X164071527Y-117420740D02*
X164083668Y-117404446D01*
X164339901Y-117089141D02*
X164353367Y-117073924D01*
X164635151Y-116781228D02*
X164649847Y-116767194D01*
X164955195Y-116499173D02*
X164971016Y-116486421D01*
X165297774Y-116244964D02*
X165314609Y-116233585D01*
X165660475Y-116020395D02*
X165678205Y-116010468D01*
X166040738Y-115827048D02*
X166059238Y-115818644D01*
X166435882Y-115666287D02*
X166455022Y-115659465D01*
X166843121Y-115539247D02*
X166862766Y-115534055D01*
X167259583Y-115446822D02*
X167279595Y-115443296D01*
X167682331Y-115389665D02*
X167702568Y-115387831D01*
X168108384Y-115368178D02*
X168128704Y-115368048D01*
X168534738Y-115382514D02*
X168554996Y-115384089D01*
X168958385Y-115432570D02*
X168978440Y-115435840D01*
X169376339Y-115517995D02*
X169396049Y-115522936D01*
X169785652Y-115638186D02*
X169804878Y-115644763D01*
X170183438Y-115792294D02*
X170202044Y-115800461D01*
X170566891Y-115979234D02*
X170584747Y-115988933D01*
X170933308Y-116197687D02*
X170950287Y-116208850D01*
X171280104Y-116446112D02*
X171296087Y-116458661D01*
X171604835Y-116722758D02*
X171619708Y-116736603D01*
X171905209Y-117025674D02*
X171918868Y-117040718D01*
X172179109Y-117352724D02*
X172191458Y-117368861D01*
X172424604Y-117701601D02*
X172435556Y-117718718D01*
X172639962Y-118069846D02*
X172649439Y-118087820D01*
X172823664Y-118454860D02*
X172831599Y-118473567D01*
X172974416Y-118853930D02*
X172980753Y-118873237D01*
X173091153Y-119264242D02*
X173095849Y-119284012D01*
X173173053Y-119682901D02*
X173176073Y-119702995D01*
X173219539Y-120106955D02*
X173220862Y-120127232D01*
D11*
X144809629Y-38661371D02*
X148222480Y-38661371D01*
D10*
X160599629Y-140301371D02*
X160599588Y-140321690D01*
X160581717Y-140727589D02*
X160579971Y-140747834D01*
X160528108Y-141150802D02*
X160524670Y-141170829D01*
X160439180Y-141568024D02*
X160434074Y-141587692D01*
X160315560Y-141976315D02*
X160308822Y-141995485D01*
X160158120Y-142372794D02*
X160149798Y-142391331D01*
X159967970Y-142754665D02*
X159958122Y-142772439D01*
X159746451Y-143119236D02*
X159735146Y-143136121D01*
X159495125Y-143463937D02*
X159482443Y-143479813D01*
X159215765Y-143786335D02*
X159201795Y-143801091D01*
X158910340Y-144084158D02*
X158895181Y-144097690D01*
X158581004Y-144355305D02*
X158564764Y-144367518D01*
X158230079Y-144597864D02*
X158212872Y-144608671D01*
X157860041Y-144810125D02*
X157841988Y-144819451D01*
X157473499Y-144990591D02*
X157454727Y-144998369D01*
X157073178Y-145137989D02*
X157053820Y-145144165D01*
X156661902Y-145251281D02*
X156642094Y-145255810D01*
X156242571Y-145329666D02*
X156222452Y-145332517D01*
X155818142Y-145372592D02*
X155797855Y-145373746D01*
X155391607Y-145379757D02*
X155371295Y-145379204D01*
X154965976Y-145351110D02*
X154945781Y-145348855D01*
X154544248Y-145286853D02*
X154524314Y-145282911D01*
X154129399Y-145187439D02*
X154109866Y-145181839D01*
X153724354Y-145053569D02*
X153705360Y-145046350D01*
X153331969Y-144886187D02*
X153313647Y-144877400D01*
X152955010Y-144686474D02*
X152937490Y-144676181D01*
X152596137Y-144455838D02*
X152579543Y-144444111D01*
X152257880Y-144195905D02*
X152242328Y-144182827D01*
X151942625Y-143908508D02*
X151928225Y-143894172D01*
X151652594Y-143595675D02*
X151639447Y-143580180D01*
X151389832Y-143259610D02*
X151378032Y-143243067D01*
X151156193Y-142902685D02*
X151145823Y-142885210D01*
X150953325Y-142527415D02*
X150944458Y-142509132D01*
X150782658Y-142136447D02*
X150775355Y-142117485D01*
X150645395Y-141732539D02*
X150639709Y-141713031D01*
X150542504Y-141318539D02*
X150538475Y-141298622D01*
X150474711Y-140897365D02*
X150472368Y-140877181D01*
X150442495Y-140471989D02*
X150441853Y-140451679D01*
X150446081Y-140045410D02*
X150447145Y-140025118D01*
X150485445Y-139620635D02*
X150488209Y-139600504D01*
X150560310Y-139200661D02*
X150564753Y-139180833D01*
X150670147Y-138788449D02*
X150676238Y-138769063D01*
X150814182Y-138386906D02*
X150821878Y-138368100D01*
X150991399Y-137998863D02*
X151000645Y-137980769D01*
X151200549Y-137627058D02*
X151211280Y-137609803D01*
X151440156Y-137274111D02*
X151452297Y-137257817D01*
X151708530Y-136942512D02*
X151721996Y-136927295D01*
X152003780Y-136634599D02*
X152018476Y-136620565D01*
X152323824Y-136352544D02*
X152339645Y-136339792D01*
X152666403Y-136098335D02*
X152683238Y-136086956D01*
X153029104Y-135873766D02*
X153046834Y-135863839D01*
X153409367Y-135680419D02*
X153427867Y-135672015D01*
X153804511Y-135519658D02*
X153823651Y-135512836D01*
X154211750Y-135392618D02*
X154231395Y-135387426D01*
X154628212Y-135300193D02*
X154648224Y-135296667D01*
X155050960Y-135243036D02*
X155071197Y-135241202D01*
X155477013Y-135221549D02*
X155497333Y-135221419D01*
X155903367Y-135235885D02*
X155923625Y-135237460D01*
X156327014Y-135285941D02*
X156347069Y-135289211D01*
X156744968Y-135371366D02*
X156764678Y-135376307D01*
X157154281Y-135491557D02*
X157173507Y-135498134D01*
X157552067Y-135645665D02*
X157570673Y-135653832D01*
X157935520Y-135832605D02*
X157953376Y-135842304D01*
X158301937Y-136051058D02*
X158318916Y-136062221D01*
X158648733Y-136299483D02*
X158664716Y-136312032D01*
X158973464Y-136576129D02*
X158988337Y-136589974D01*
X159273838Y-136879045D02*
X159287497Y-136894089D01*
X159547738Y-137206095D02*
X159560087Y-137222232D01*
X159793233Y-137554972D02*
X159804185Y-137572089D01*
X160008591Y-137923217D02*
X160018068Y-137941191D01*
X160192293Y-138308231D02*
X160200228Y-138326938D01*
X160343045Y-138707301D02*
X160349382Y-138726608D01*
X160459782Y-139117613D02*
X160464478Y-139137383D01*
X160541682Y-139536272D02*
X160544702Y-139556366D01*
X160588168Y-139960326D02*
X160589491Y-139980603D01*
D11*
X142124262Y-69776606D02*
X148245067Y-69771371D01*
D10*
X160589629Y-80581371D02*
X160589588Y-80601690D01*
X160571717Y-81007589D02*
X160569971Y-81027834D01*
X160518108Y-81430802D02*
X160514670Y-81450829D01*
X160429180Y-81848024D02*
X160424074Y-81867692D01*
X160305560Y-82256315D02*
X160298822Y-82275485D01*
X160148120Y-82652794D02*
X160139798Y-82671331D01*
X159957970Y-83034665D02*
X159948122Y-83052439D01*
X159736451Y-83399236D02*
X159725146Y-83416121D01*
X159485125Y-83743937D02*
X159472443Y-83759813D01*
X159205765Y-84066335D02*
X159191795Y-84081091D01*
X158900340Y-84364158D02*
X158885181Y-84377690D01*
X158571004Y-84635305D02*
X158554764Y-84647518D01*
X158220079Y-84877864D02*
X158202872Y-84888671D01*
X157850041Y-85090125D02*
X157831988Y-85099451D01*
X157463499Y-85270591D02*
X157444727Y-85278369D01*
X157063178Y-85417989D02*
X157043820Y-85424165D01*
X156651902Y-85531281D02*
X156632094Y-85535810D01*
X156232571Y-85609666D02*
X156212452Y-85612517D01*
X155808142Y-85652592D02*
X155787855Y-85653746D01*
X155381607Y-85659757D02*
X155361295Y-85659204D01*
X154955976Y-85631110D02*
X154935781Y-85628855D01*
X154534248Y-85566853D02*
X154514314Y-85562911D01*
X154119399Y-85467439D02*
X154099866Y-85461839D01*
X153714354Y-85333569D02*
X153695360Y-85326350D01*
X153321969Y-85166187D02*
X153303647Y-85157400D01*
X152945010Y-84966474D02*
X152927490Y-84956181D01*
X152586137Y-84735838D02*
X152569543Y-84724111D01*
X152247880Y-84475905D02*
X152232328Y-84462827D01*
X151932625Y-84188508D02*
X151918225Y-84174172D01*
X151642594Y-83875675D02*
X151629447Y-83860180D01*
X151379832Y-83539610D02*
X151368032Y-83523067D01*
X151146193Y-83182685D02*
X151135823Y-83165210D01*
X150943325Y-82807415D02*
X150934458Y-82789132D01*
X150772658Y-82416447D02*
X150765355Y-82397485D01*
X150635395Y-82012539D02*
X150629709Y-81993031D01*
X150532504Y-81598539D02*
X150528475Y-81578622D01*
X150464711Y-81177365D02*
X150462368Y-81157181D01*
X150432495Y-80751989D02*
X150431853Y-80731679D01*
X150436081Y-80325410D02*
X150437145Y-80305118D01*
X150475445Y-79900635D02*
X150478209Y-79880504D01*
X150550310Y-79480661D02*
X150554753Y-79460833D01*
X150660147Y-79068449D02*
X150666238Y-79049063D01*
X150804182Y-78666906D02*
X150811878Y-78648100D01*
X150981399Y-78278863D02*
X150990645Y-78260769D01*
X151190549Y-77907058D02*
X151201280Y-77889803D01*
X151430156Y-77554111D02*
X151442297Y-77537817D01*
X151698530Y-77222512D02*
X151711996Y-77207295D01*
X151993780Y-76914599D02*
X152008476Y-76900565D01*
X152313824Y-76632544D02*
X152329645Y-76619792D01*
X152656403Y-76378335D02*
X152673238Y-76366956D01*
X153019104Y-76153766D02*
X153036834Y-76143839D01*
X153399367Y-75960419D02*
X153417867Y-75952015D01*
X153794511Y-75799658D02*
X153813651Y-75792836D01*
X154201750Y-75672618D02*
X154221395Y-75667426D01*
X154618212Y-75580193D02*
X154638224Y-75576667D01*
X155040960Y-75523036D02*
X155061197Y-75521202D01*
X155467013Y-75501549D02*
X155487333Y-75501419D01*
X155893367Y-75515885D02*
X155913625Y-75517460D01*
X156317014Y-75565941D02*
X156337069Y-75569211D01*
X156734968Y-75651366D02*
X156754678Y-75656307D01*
X157144281Y-75771557D02*
X157163507Y-75778134D01*
X157542067Y-75925665D02*
X157560673Y-75933832D01*
X157925520Y-76112605D02*
X157943376Y-76122304D01*
X158291937Y-76331058D02*
X158308916Y-76342221D01*
X158638733Y-76579483D02*
X158654716Y-76592032D01*
X158963464Y-76856129D02*
X158978337Y-76869974D01*
X159263838Y-77159045D02*
X159277497Y-77174089D01*
X159537738Y-77486095D02*
X159550087Y-77502232D01*
X159783233Y-77834972D02*
X159794185Y-77852089D01*
X159998591Y-78203217D02*
X160008068Y-78221191D01*
X160182293Y-78588231D02*
X160190228Y-78606938D01*
X160333045Y-78987301D02*
X160339382Y-79006608D01*
X160449782Y-79397613D02*
X160454478Y-79417383D01*
X160531682Y-79816272D02*
X160534702Y-79836366D01*
X160578168Y-80240326D02*
X160579491Y-80260603D01*
X173249629Y-61671371D02*
X173249588Y-61691690D01*
X173231717Y-62097589D02*
X173229971Y-62117834D01*
X173178108Y-62520802D02*
X173174670Y-62540829D01*
X173089180Y-62938024D02*
X173084074Y-62957692D01*
X172965560Y-63346315D02*
X172958822Y-63365485D01*
X172808120Y-63742794D02*
X172799798Y-63761331D01*
X172617970Y-64124665D02*
X172608122Y-64142439D01*
X172396451Y-64489236D02*
X172385146Y-64506121D01*
X172145125Y-64833937D02*
X172132443Y-64849813D01*
X171865765Y-65156335D02*
X171851795Y-65171091D01*
X171560340Y-65454158D02*
X171545181Y-65467690D01*
X171231004Y-65725305D02*
X171214764Y-65737518D01*
X170880079Y-65967864D02*
X170862872Y-65978671D01*
X170510041Y-66180125D02*
X170491988Y-66189451D01*
X170123499Y-66360591D02*
X170104727Y-66368369D01*
X169723178Y-66507989D02*
X169703820Y-66514165D01*
X169311902Y-66621281D02*
X169292094Y-66625810D01*
X168892571Y-66699666D02*
X168872452Y-66702517D01*
X168468142Y-66742592D02*
X168447855Y-66743746D01*
X168041607Y-66749757D02*
X168021295Y-66749204D01*
X167615976Y-66721110D02*
X167595781Y-66718855D01*
X167194248Y-66656853D02*
X167174314Y-66652911D01*
X166779399Y-66557439D02*
X166759866Y-66551839D01*
X166374354Y-66423569D02*
X166355360Y-66416350D01*
X165981969Y-66256187D02*
X165963647Y-66247400D01*
X165605010Y-66056474D02*
X165587490Y-66046181D01*
X165246137Y-65825838D02*
X165229543Y-65814111D01*
X164907880Y-65565905D02*
X164892328Y-65552827D01*
X164592625Y-65278508D02*
X164578225Y-65264172D01*
X164302594Y-64965675D02*
X164289447Y-64950180D01*
X164039832Y-64629610D02*
X164028032Y-64613067D01*
X163806193Y-64272685D02*
X163795823Y-64255210D01*
X163603325Y-63897415D02*
X163594458Y-63879132D01*
X163432658Y-63506447D02*
X163425355Y-63487485D01*
X163295395Y-63102539D02*
X163289709Y-63083031D01*
X163192504Y-62688539D02*
X163188475Y-62668622D01*
X163124711Y-62267365D02*
X163122368Y-62247181D01*
X163092495Y-61841989D02*
X163091853Y-61821679D01*
X163096081Y-61415410D02*
X163097145Y-61395118D01*
X163135445Y-60990635D02*
X163138209Y-60970504D01*
X163210310Y-60570661D02*
X163214753Y-60550833D01*
X163320147Y-60158449D02*
X163326238Y-60139063D01*
X163464182Y-59756906D02*
X163471878Y-59738100D01*
X163641399Y-59368863D02*
X163650645Y-59350769D01*
X163850549Y-58997058D02*
X163861280Y-58979803D01*
X164090156Y-58644111D02*
X164102297Y-58627817D01*
X164358530Y-58312512D02*
X164371996Y-58297295D01*
X164653780Y-58004599D02*
X164668476Y-57990565D01*
X164973824Y-57722544D02*
X164989645Y-57709792D01*
X165316403Y-57468335D02*
X165333238Y-57456956D01*
X165679104Y-57243766D02*
X165696834Y-57233839D01*
X166059367Y-57050419D02*
X166077867Y-57042015D01*
X166454511Y-56889658D02*
X166473651Y-56882836D01*
X166861750Y-56762618D02*
X166881395Y-56757426D01*
X167278212Y-56670193D02*
X167298224Y-56666667D01*
X167700960Y-56613036D02*
X167721197Y-56611202D01*
X168127013Y-56591549D02*
X168147333Y-56591419D01*
X168553367Y-56605885D02*
X168573625Y-56607460D01*
X168977014Y-56655941D02*
X168997069Y-56659211D01*
X169394968Y-56741366D02*
X169414678Y-56746307D01*
X169804281Y-56861557D02*
X169823507Y-56868134D01*
X170202067Y-57015665D02*
X170220673Y-57023832D01*
X170585520Y-57202605D02*
X170603376Y-57212304D01*
X170951937Y-57421058D02*
X170968916Y-57432221D01*
X171298733Y-57669483D02*
X171314716Y-57682032D01*
X171623464Y-57946129D02*
X171638337Y-57959974D01*
X171923838Y-58249045D02*
X171937497Y-58264089D01*
X172197738Y-58576095D02*
X172210087Y-58592232D01*
X172443233Y-58924972D02*
X172454185Y-58942089D01*
X172658591Y-59293217D02*
X172668068Y-59311191D01*
X172842293Y-59678231D02*
X172850228Y-59696938D01*
X172993045Y-60077301D02*
X172999382Y-60096608D01*
X173109782Y-60487613D02*
X173114478Y-60507383D01*
X173191682Y-60906272D02*
X173194702Y-60926366D01*
X173238168Y-61330326D02*
X173239491Y-61350603D01*
X160659629Y-100911371D02*
X160659588Y-100931690D01*
X160641717Y-101337589D02*
X160639971Y-101357834D01*
X160588108Y-101760802D02*
X160584670Y-101780829D01*
X160499180Y-102178024D02*
X160494074Y-102197692D01*
X160375560Y-102586315D02*
X160368822Y-102605485D01*
X160218120Y-102982794D02*
X160209798Y-103001331D01*
X160027970Y-103364665D02*
X160018122Y-103382439D01*
X159806451Y-103729236D02*
X159795146Y-103746121D01*
X159555125Y-104073937D02*
X159542443Y-104089813D01*
X159275765Y-104396335D02*
X159261795Y-104411091D01*
X158970340Y-104694158D02*
X158955181Y-104707690D01*
X158641004Y-104965305D02*
X158624764Y-104977518D01*
X158290079Y-105207864D02*
X158272872Y-105218671D01*
X157920041Y-105420125D02*
X157901988Y-105429451D01*
X157533499Y-105600591D02*
X157514727Y-105608369D01*
X157133178Y-105747989D02*
X157113820Y-105754165D01*
X156721902Y-105861281D02*
X156702094Y-105865810D01*
X156302571Y-105939666D02*
X156282452Y-105942517D01*
X155878142Y-105982592D02*
X155857855Y-105983746D01*
X155451607Y-105989757D02*
X155431295Y-105989204D01*
X155025976Y-105961110D02*
X155005781Y-105958855D01*
X154604248Y-105896853D02*
X154584314Y-105892911D01*
X154189399Y-105797439D02*
X154169866Y-105791839D01*
X153784354Y-105663569D02*
X153765360Y-105656350D01*
X153391969Y-105496187D02*
X153373647Y-105487400D01*
X153015010Y-105296474D02*
X152997490Y-105286181D01*
X152656137Y-105065838D02*
X152639543Y-105054111D01*
X152317880Y-104805905D02*
X152302328Y-104792827D01*
X152002625Y-104518508D02*
X151988225Y-104504172D01*
X151712594Y-104205675D02*
X151699447Y-104190180D01*
X151449832Y-103869610D02*
X151438032Y-103853067D01*
X151216193Y-103512685D02*
X151205823Y-103495210D01*
X151013325Y-103137415D02*
X151004458Y-103119132D01*
X150842658Y-102746447D02*
X150835355Y-102727485D01*
X150705395Y-102342539D02*
X150699709Y-102323031D01*
X150602504Y-101928539D02*
X150598475Y-101908622D01*
X150534711Y-101507365D02*
X150532368Y-101487181D01*
X150502495Y-101081989D02*
X150501853Y-101061679D01*
X150506081Y-100655410D02*
X150507145Y-100635118D01*
X150545445Y-100230635D02*
X150548209Y-100210504D01*
X150620310Y-99810661D02*
X150624753Y-99790833D01*
X150730147Y-99398449D02*
X150736238Y-99379063D01*
X150874182Y-98996906D02*
X150881878Y-98978100D01*
X151051399Y-98608863D02*
X151060645Y-98590769D01*
X151260549Y-98237058D02*
X151271280Y-98219803D01*
X151500156Y-97884111D02*
X151512297Y-97867817D01*
X151768530Y-97552512D02*
X151781996Y-97537295D01*
X152063780Y-97244599D02*
X152078476Y-97230565D01*
X152383824Y-96962544D02*
X152399645Y-96949792D01*
X152726403Y-96708335D02*
X152743238Y-96696956D01*
X153089104Y-96483766D02*
X153106834Y-96473839D01*
X153469367Y-96290419D02*
X153487867Y-96282015D01*
X153864511Y-96129658D02*
X153883651Y-96122836D01*
X154271750Y-96002618D02*
X154291395Y-95997426D01*
X154688212Y-95910193D02*
X154708224Y-95906667D01*
X155110960Y-95853036D02*
X155131197Y-95851202D01*
X155537013Y-95831549D02*
X155557333Y-95831419D01*
X155963367Y-95845885D02*
X155983625Y-95847460D01*
X156387014Y-95895941D02*
X156407069Y-95899211D01*
X156804968Y-95981366D02*
X156824678Y-95986307D01*
X157214281Y-96101557D02*
X157233507Y-96108134D01*
X157612067Y-96255665D02*
X157630673Y-96263832D01*
X157995520Y-96442605D02*
X158013376Y-96452304D01*
X158361937Y-96661058D02*
X158378916Y-96672221D01*
X158708733Y-96909483D02*
X158724716Y-96922032D01*
X159033464Y-97186129D02*
X159048337Y-97199974D01*
X159333838Y-97489045D02*
X159347497Y-97504089D01*
X159607738Y-97816095D02*
X159620087Y-97832232D01*
X159853233Y-98164972D02*
X159864185Y-98182089D01*
X160068591Y-98533217D02*
X160078068Y-98551191D01*
X160252293Y-98918231D02*
X160260228Y-98936938D01*
X160403045Y-99317301D02*
X160409382Y-99336608D01*
X160519782Y-99727613D02*
X160524478Y-99747383D01*
X160601682Y-100146272D02*
X160604702Y-100166366D01*
X160648168Y-100570326D02*
X160649491Y-100590603D01*
X141699629Y-48161371D02*
X134001238Y-42770900D01*
X141748824Y-112836606D02*
X134050433Y-107446135D01*
X160689629Y-61671371D02*
X160689588Y-61691690D01*
X160671717Y-62097589D02*
X160669971Y-62117834D01*
X160618108Y-62520802D02*
X160614670Y-62540829D01*
X160529180Y-62938024D02*
X160524074Y-62957692D01*
X160405560Y-63346315D02*
X160398822Y-63365485D01*
X160248120Y-63742794D02*
X160239798Y-63761331D01*
X160057970Y-64124665D02*
X160048122Y-64142439D01*
X159836451Y-64489236D02*
X159825146Y-64506121D01*
X159585125Y-64833937D02*
X159572443Y-64849813D01*
X159305765Y-65156335D02*
X159291795Y-65171091D01*
X159000340Y-65454158D02*
X158985181Y-65467690D01*
X158671004Y-65725305D02*
X158654764Y-65737518D01*
X158320079Y-65967864D02*
X158302872Y-65978671D01*
X157950041Y-66180125D02*
X157931988Y-66189451D01*
X157563499Y-66360591D02*
X157544727Y-66368369D01*
X157163178Y-66507989D02*
X157143820Y-66514165D01*
X156751902Y-66621281D02*
X156732094Y-66625810D01*
X156332571Y-66699666D02*
X156312452Y-66702517D01*
X155908142Y-66742592D02*
X155887855Y-66743746D01*
X155481607Y-66749757D02*
X155461295Y-66749204D01*
X155055976Y-66721110D02*
X155035781Y-66718855D01*
X154634248Y-66656853D02*
X154614314Y-66652911D01*
X154219399Y-66557439D02*
X154199866Y-66551839D01*
X153814354Y-66423569D02*
X153795360Y-66416350D01*
X153421969Y-66256187D02*
X153403647Y-66247400D01*
X153045010Y-66056474D02*
X153027490Y-66046181D01*
X152686137Y-65825838D02*
X152669543Y-65814111D01*
X152347880Y-65565905D02*
X152332328Y-65552827D01*
X152032625Y-65278508D02*
X152018225Y-65264172D01*
X151742594Y-64965675D02*
X151729447Y-64950180D01*
X151479832Y-64629610D02*
X151468032Y-64613067D01*
X151246193Y-64272685D02*
X151235823Y-64255210D01*
X151043325Y-63897415D02*
X151034458Y-63879132D01*
X150872658Y-63506447D02*
X150865355Y-63487485D01*
X150735395Y-63102539D02*
X150729709Y-63083031D01*
X150632504Y-62688539D02*
X150628475Y-62668622D01*
X150564711Y-62267365D02*
X150562368Y-62247181D01*
X150532495Y-61841989D02*
X150531853Y-61821679D01*
X150536081Y-61415410D02*
X150537145Y-61395118D01*
X150575445Y-60990635D02*
X150578209Y-60970504D01*
X150650310Y-60570661D02*
X150654753Y-60550833D01*
X150760147Y-60158449D02*
X150766238Y-60139063D01*
X150904182Y-59756906D02*
X150911878Y-59738100D01*
X151081399Y-59368863D02*
X151090645Y-59350769D01*
X151290549Y-58997058D02*
X151301280Y-58979803D01*
X151530156Y-58644111D02*
X151542297Y-58627817D01*
X151798530Y-58312512D02*
X151811996Y-58297295D01*
X152093780Y-58004599D02*
X152108476Y-57990565D01*
X152413824Y-57722544D02*
X152429645Y-57709792D01*
X152756403Y-57468335D02*
X152773238Y-57456956D01*
X153119104Y-57243766D02*
X153136834Y-57233839D01*
X153499367Y-57050419D02*
X153517867Y-57042015D01*
X153894511Y-56889658D02*
X153913651Y-56882836D01*
X154301750Y-56762618D02*
X154321395Y-56757426D01*
X154718212Y-56670193D02*
X154738224Y-56666667D01*
X155140960Y-56613036D02*
X155161197Y-56611202D01*
X155567013Y-56591549D02*
X155587333Y-56591419D01*
X155993367Y-56605885D02*
X156013625Y-56607460D01*
X156417014Y-56655941D02*
X156437069Y-56659211D01*
X156834968Y-56741366D02*
X156854678Y-56746307D01*
X157244281Y-56861557D02*
X157263507Y-56868134D01*
X157642067Y-57015665D02*
X157660673Y-57023832D01*
X158025520Y-57202605D02*
X158043376Y-57212304D01*
X158391937Y-57421058D02*
X158408916Y-57432221D01*
X158738733Y-57669483D02*
X158754716Y-57682032D01*
X159063464Y-57946129D02*
X159078337Y-57959974D01*
X159363838Y-58249045D02*
X159377497Y-58264089D01*
X159637738Y-58576095D02*
X159650087Y-58592232D01*
X159883233Y-58924972D02*
X159894185Y-58942089D01*
X160098591Y-59293217D02*
X160108068Y-59311191D01*
X160282293Y-59678231D02*
X160290228Y-59696938D01*
X160433045Y-60077301D02*
X160439382Y-60096608D01*
X160549782Y-60487613D02*
X160554478Y-60507383D01*
X160631682Y-60906272D02*
X160634702Y-60926366D01*
X160678168Y-61330326D02*
X160679491Y-61350603D01*
X141768824Y-69806606D02*
X134070433Y-64416135D01*
D11*
X148222348Y-38691371D02*
X148222348Y-91351384D01*
X142055067Y-48131371D02*
X148225464Y-48131371D01*
D10*
X141788824Y-134546606D02*
X134090433Y-129156135D01*
X173179629Y-140321371D02*
X173179588Y-140341690D01*
X173161717Y-140747589D02*
X173159971Y-140767834D01*
X173108108Y-141170802D02*
X173104670Y-141190829D01*
X173019180Y-141588024D02*
X173014074Y-141607692D01*
X172895560Y-141996315D02*
X172888822Y-142015485D01*
X172738120Y-142392794D02*
X172729798Y-142411331D01*
X172547970Y-142774665D02*
X172538122Y-142792439D01*
X172326451Y-143139236D02*
X172315146Y-143156121D01*
X172075125Y-143483937D02*
X172062443Y-143499813D01*
X171795765Y-143806335D02*
X171781795Y-143821091D01*
X171490340Y-144104158D02*
X171475181Y-144117690D01*
X171161004Y-144375305D02*
X171144764Y-144387518D01*
X170810079Y-144617864D02*
X170792872Y-144628671D01*
X170440041Y-144830125D02*
X170421988Y-144839451D01*
X170053499Y-145010591D02*
X170034727Y-145018369D01*
X169653178Y-145157989D02*
X169633820Y-145164165D01*
X169241902Y-145271281D02*
X169222094Y-145275810D01*
X168822571Y-145349666D02*
X168802452Y-145352517D01*
X168398142Y-145392592D02*
X168377855Y-145393746D01*
X167971607Y-145399757D02*
X167951295Y-145399204D01*
X167545976Y-145371110D02*
X167525781Y-145368855D01*
X167124248Y-145306853D02*
X167104314Y-145302911D01*
X166709399Y-145207439D02*
X166689866Y-145201839D01*
X166304354Y-145073569D02*
X166285360Y-145066350D01*
X165911969Y-144906187D02*
X165893647Y-144897400D01*
X165535010Y-144706474D02*
X165517490Y-144696181D01*
X165176137Y-144475838D02*
X165159543Y-144464111D01*
X164837880Y-144215905D02*
X164822328Y-144202827D01*
X164522625Y-143928508D02*
X164508225Y-143914172D01*
X164232594Y-143615675D02*
X164219447Y-143600180D01*
X163969832Y-143279610D02*
X163958032Y-143263067D01*
X163736193Y-142922685D02*
X163725823Y-142905210D01*
X163533325Y-142547415D02*
X163524458Y-142529132D01*
X163362658Y-142156447D02*
X163355355Y-142137485D01*
X163225395Y-141752539D02*
X163219709Y-141733031D01*
X163122504Y-141338539D02*
X163118475Y-141318622D01*
X163054711Y-140917365D02*
X163052368Y-140897181D01*
X163022495Y-140491989D02*
X163021853Y-140471679D01*
X163026081Y-140065410D02*
X163027145Y-140045118D01*
X163065445Y-139640635D02*
X163068209Y-139620504D01*
X163140310Y-139220661D02*
X163144753Y-139200833D01*
X163250147Y-138808449D02*
X163256238Y-138789063D01*
X163394182Y-138406906D02*
X163401878Y-138388100D01*
X163571399Y-138018863D02*
X163580645Y-138000769D01*
X163780549Y-137647058D02*
X163791280Y-137629803D01*
X164020156Y-137294111D02*
X164032297Y-137277817D01*
X164288530Y-136962512D02*
X164301996Y-136947295D01*
X164583780Y-136654599D02*
X164598476Y-136640565D01*
X164903824Y-136372544D02*
X164919645Y-136359792D01*
X165246403Y-136118335D02*
X165263238Y-136106956D01*
X165609104Y-135893766D02*
X165626834Y-135883839D01*
X165989367Y-135700419D02*
X166007867Y-135692015D01*
X166384511Y-135539658D02*
X166403651Y-135532836D01*
X166791750Y-135412618D02*
X166811395Y-135407426D01*
X167208212Y-135320193D02*
X167228224Y-135316667D01*
X167630960Y-135263036D02*
X167651197Y-135261202D01*
X168057013Y-135241549D02*
X168077333Y-135241419D01*
X168483367Y-135255885D02*
X168503625Y-135257460D01*
X168907014Y-135305941D02*
X168927069Y-135309211D01*
X169324968Y-135391366D02*
X169344678Y-135396307D01*
X169734281Y-135511557D02*
X169753507Y-135518134D01*
X170132067Y-135665665D02*
X170150673Y-135673832D01*
X170515520Y-135852605D02*
X170533376Y-135862304D01*
X170881937Y-136071058D02*
X170898916Y-136082221D01*
X171228733Y-136319483D02*
X171244716Y-136332032D01*
X171553464Y-136596129D02*
X171568337Y-136609974D01*
X171853838Y-136899045D02*
X171867497Y-136914089D01*
X172127738Y-137226095D02*
X172140087Y-137242232D01*
X172373233Y-137574972D02*
X172384185Y-137592089D01*
X172588591Y-137943217D02*
X172598068Y-137961191D01*
X172772293Y-138328231D02*
X172780228Y-138346938D01*
X172923045Y-138727301D02*
X172929382Y-138746608D01*
X173039782Y-139137613D02*
X173044478Y-139157383D01*
X173121682Y-139556272D02*
X173124702Y-139576366D01*
X173168168Y-139980326D02*
X173169491Y-140000603D01*
D11*
X148255067Y-91351371D02*
X144004190Y-91351371D01*
D10*
X141758824Y-91436606D02*
X134060433Y-86046135D01*
D12*
G36*
X153554862Y-88706371D02*
G01*
X153554862Y-87604347D01*
X153721558Y-87604347D01*
X153721558Y-87758952D01*
X153770532Y-87698442D01*
X153827053Y-87650451D01*
X153902535Y-87610285D01*
X153975410Y-87589420D01*
X154055833Y-87581073D01*
X154069970Y-87580899D01*
X154147681Y-87586825D01*
X154220071Y-87604602D01*
X154251687Y-87616803D01*
X154316392Y-87652246D01*
X154370591Y-87703400D01*
X154375884Y-87710592D01*
X154412840Y-87778300D01*
X154433770Y-87848345D01*
X154441774Y-87925255D01*
X154443938Y-88006064D01*
X154444028Y-88029696D01*
X154444028Y-88706371D01*
X154258648Y-88706371D01*
X154258648Y-88034458D01*
X154255608Y-87956869D01*
X154243259Y-87882777D01*
X154237032Y-87863733D01*
X154196847Y-87801766D01*
X154160096Y-87773241D01*
X154092128Y-87745690D01*
X154030769Y-87739169D01*
X153953223Y-87748130D01*
X153883296Y-87775014D01*
X153826338Y-87815006D01*
X153780936Y-87875750D01*
X153754451Y-87953239D01*
X153743269Y-88028455D01*
X153740242Y-88103335D01*
X153740242Y-88706371D01*
X153554862Y-88706371D01*
G37*
G36*
X155248597Y-87586129D02*
G01*
X155324533Y-87601817D01*
X155394673Y-87627963D01*
X155459017Y-87664568D01*
X155517565Y-87711631D01*
X155535794Y-87729643D01*
X155584476Y-87789278D01*
X155623086Y-87856898D01*
X155651623Y-87932503D01*
X155670089Y-88016094D01*
X155677783Y-88091854D01*
X155679042Y-88139971D01*
X155676814Y-88216337D01*
X155668582Y-88297388D01*
X155654284Y-88369779D01*
X155630516Y-88441907D01*
X155615661Y-88473729D01*
X155575430Y-88537859D01*
X155526042Y-88593410D01*
X155467496Y-88640383D01*
X155431013Y-88662773D01*
X155361239Y-88695182D01*
X155287930Y-88716985D01*
X155211084Y-88728181D01*
X155166865Y-88729818D01*
X155083815Y-88724614D01*
X155006947Y-88709004D01*
X154936261Y-88682986D01*
X154871758Y-88646562D01*
X154813438Y-88599730D01*
X154795371Y-88581807D01*
X154747187Y-88521717D01*
X154708972Y-88452457D01*
X154680727Y-88374027D01*
X154664804Y-88301662D01*
X154655804Y-88222930D01*
X154653588Y-88155359D01*
X154653601Y-88154992D01*
X154844464Y-88154992D01*
X154847684Y-88230667D01*
X154859580Y-88309511D01*
X154883909Y-88387169D01*
X154919687Y-88451546D01*
X154936055Y-88472264D01*
X154991343Y-88523091D01*
X155061610Y-88560057D01*
X155141180Y-88576486D01*
X155166865Y-88577410D01*
X155240876Y-88569035D01*
X155314478Y-88540084D01*
X155378993Y-88490453D01*
X155396575Y-88471531D01*
X155440850Y-88403193D01*
X155468041Y-88327705D01*
X155482442Y-88250270D01*
X155487808Y-88175441D01*
X155488166Y-88148764D01*
X155484920Y-88075468D01*
X155472929Y-87998812D01*
X155448406Y-87922883D01*
X155407022Y-87852352D01*
X155395842Y-87838820D01*
X155340552Y-87787815D01*
X155270757Y-87750721D01*
X155192160Y-87734234D01*
X155166865Y-87733307D01*
X155092322Y-87741595D01*
X155018333Y-87770246D01*
X154953647Y-87819362D01*
X154936055Y-87838087D01*
X154891780Y-87905517D01*
X154864589Y-87979712D01*
X154850189Y-88055639D01*
X154844822Y-88128896D01*
X154844464Y-88154992D01*
X154653601Y-88154992D01*
X154656233Y-88081531D01*
X154666977Y-87996184D01*
X154685986Y-87918549D01*
X154713259Y-87848623D01*
X154756897Y-87774889D01*
X154812435Y-87712258D01*
X154822849Y-87702899D01*
X154887521Y-87655362D01*
X154958119Y-87619501D01*
X155034642Y-87595315D01*
X155117091Y-87582806D01*
X155166865Y-87580899D01*
X155248597Y-87586129D01*
G37*
G36*
X155891900Y-87393321D02*
G01*
X155891900Y-87182295D01*
X156077280Y-87182295D01*
X156077280Y-87393321D01*
X155891900Y-87393321D01*
G37*
G36*
X155891900Y-88706371D02*
G01*
X155891900Y-87604347D01*
X156077280Y-87604347D01*
X156077280Y-88706371D01*
X155891900Y-88706371D01*
G37*
G36*
X156282444Y-88383237D02*
G01*
X156465992Y-88354661D01*
X156485261Y-88428386D01*
X156523577Y-88492325D01*
X156551722Y-88519891D01*
X156618423Y-88557133D01*
X156696416Y-88574658D01*
X156749192Y-88577410D01*
X156822665Y-88572294D01*
X156893831Y-88552648D01*
X156938969Y-88525020D01*
X156985405Y-88467684D01*
X157000884Y-88401189D01*
X156977217Y-88329519D01*
X156945930Y-88301172D01*
X156873496Y-88270876D01*
X156801039Y-88249481D01*
X156756519Y-88237791D01*
X156684400Y-88218909D01*
X156611395Y-88198117D01*
X156535152Y-88173342D01*
X156473686Y-88148398D01*
X156408213Y-88106742D01*
X156356830Y-88048467D01*
X156354251Y-88044350D01*
X156323751Y-87974192D01*
X156313585Y-87897072D01*
X156322994Y-87822218D01*
X156346924Y-87761151D01*
X156389275Y-87700687D01*
X156438149Y-87657470D01*
X156504495Y-87621177D01*
X156556118Y-87603248D01*
X156628520Y-87587207D01*
X156705590Y-87580987D01*
X156716219Y-87580899D01*
X156793707Y-87584477D01*
X156871753Y-87596677D01*
X156942266Y-87617536D01*
X157013042Y-87651596D01*
X157070464Y-87697878D01*
X157086247Y-87716821D01*
X157123427Y-87784891D01*
X157145232Y-87858993D01*
X157149995Y-87884615D01*
X156968644Y-87909162D01*
X156944739Y-87835431D01*
X156897203Y-87779835D01*
X156830855Y-87746439D01*
X156756033Y-87734034D01*
X156729775Y-87733307D01*
X156650528Y-87738329D01*
X156579199Y-87757212D01*
X156547325Y-87775805D01*
X156500413Y-87834653D01*
X156492737Y-87875456D01*
X156515452Y-87940669D01*
X156574837Y-87985389D01*
X156586526Y-87990495D01*
X156657692Y-88012234D01*
X156733723Y-88033557D01*
X156750291Y-88038122D01*
X156830666Y-88060291D01*
X156908570Y-88083395D01*
X156978422Y-88106541D01*
X157024698Y-88124584D01*
X157090450Y-88162864D01*
X157144260Y-88218426D01*
X157147064Y-88222403D01*
X157178883Y-88289352D01*
X157191004Y-88364185D01*
X157191394Y-88381772D01*
X157182445Y-88455864D01*
X157155599Y-88526328D01*
X157137172Y-88557627D01*
X157089979Y-88613972D01*
X157029186Y-88659911D01*
X156981101Y-88684755D01*
X156907876Y-88710411D01*
X156835748Y-88724493D01*
X156758325Y-88729774D01*
X156750291Y-88729818D01*
X156673900Y-88726752D01*
X156593795Y-88715427D01*
X156514140Y-88692266D01*
X156447169Y-88658206D01*
X156425326Y-88642623D01*
X156368847Y-88586705D01*
X156325120Y-88517455D01*
X156296955Y-88444709D01*
X156282444Y-88383237D01*
G37*
G36*
X157934707Y-87586270D02*
G01*
X158008500Y-87602383D01*
X158087431Y-87634758D01*
X158158647Y-87681754D01*
X158213550Y-87733673D01*
X158260863Y-87795330D01*
X158298386Y-87865719D01*
X158326121Y-87944841D01*
X158341756Y-88017446D01*
X158350593Y-88096116D01*
X158352768Y-88163419D01*
X158352036Y-88213977D01*
X157535776Y-88213977D01*
X157544156Y-88287129D01*
X157563264Y-88361072D01*
X157596913Y-88431941D01*
X157637625Y-88483987D01*
X157699499Y-88533253D01*
X157770175Y-88564273D01*
X157849652Y-88577045D01*
X157866603Y-88577410D01*
X157944458Y-88568643D01*
X158017347Y-88539591D01*
X158040626Y-88524287D01*
X158094309Y-88470665D01*
X158135061Y-88402598D01*
X158154932Y-88354661D01*
X158346907Y-88378108D01*
X158323332Y-88447621D01*
X158287331Y-88518307D01*
X158241667Y-88579650D01*
X158186341Y-88631651D01*
X158178745Y-88637494D01*
X158113143Y-88677886D01*
X158039069Y-88706737D01*
X157967304Y-88722515D01*
X157889053Y-88729457D01*
X157865504Y-88729818D01*
X157779006Y-88724601D01*
X157699489Y-88708952D01*
X157626954Y-88682870D01*
X157561399Y-88646355D01*
X157502825Y-88599408D01*
X157484851Y-88581440D01*
X157437041Y-88521462D01*
X157399122Y-88453087D01*
X157371095Y-88376314D01*
X157352960Y-88291142D01*
X157345404Y-88213752D01*
X157344168Y-88164518D01*
X157347638Y-88080882D01*
X157350230Y-88061569D01*
X157546034Y-88061569D01*
X158157130Y-88061569D01*
X158146559Y-87986112D01*
X158123957Y-87909471D01*
X158087154Y-87845414D01*
X158033139Y-87791222D01*
X157963401Y-87751809D01*
X157891888Y-87735059D01*
X157857444Y-87733307D01*
X157781502Y-87742037D01*
X157707140Y-87771805D01*
X157647877Y-87817200D01*
X157642388Y-87822700D01*
X157595669Y-87884438D01*
X157564049Y-87957911D01*
X157548500Y-88034071D01*
X157546034Y-88061569D01*
X157350230Y-88061569D01*
X157358049Y-88003310D01*
X157375402Y-87931803D01*
X157405386Y-87853999D01*
X157445366Y-87784928D01*
X157486317Y-87734040D01*
X157542598Y-87681996D01*
X157604830Y-87640720D01*
X157673012Y-87610211D01*
X157747145Y-87590471D01*
X157827229Y-87581498D01*
X157855246Y-87580899D01*
X157934707Y-87586270D01*
G37*
D11*
G36*
X130170010Y-64542291D02*
G01*
X130170010Y-63571525D01*
X130003252Y-63571525D01*
X130003252Y-63422634D01*
X130170010Y-63422634D01*
X130170010Y-63303522D01*
X130172784Y-63226873D01*
X130185114Y-63150240D01*
X130189738Y-63135648D01*
X130227240Y-63068927D01*
X130285400Y-63016163D01*
X130356127Y-62984612D01*
X130433422Y-62971630D01*
X130477841Y-62970007D01*
X130555932Y-62974179D01*
X130629697Y-62984542D01*
X130653531Y-62988991D01*
X130625242Y-63153143D01*
X130551105Y-63143952D01*
X130514319Y-63142720D01*
X130437143Y-63153226D01*
X130392601Y-63179943D01*
X130362212Y-63251451D01*
X130357240Y-63318783D01*
X130357240Y-63422634D01*
X130573875Y-63422634D01*
X130573875Y-63571525D01*
X130357240Y-63571525D01*
X130357240Y-64542291D01*
X130170010Y-64542291D01*
G37*
G36*
X130715321Y-64542291D02*
G01*
X130715321Y-63422634D01*
X130885056Y-63422634D01*
X130885056Y-63594231D01*
X130924554Y-63527513D01*
X130972967Y-63464584D01*
X131004541Y-63436779D01*
X131073896Y-63405078D01*
X131125886Y-63398812D01*
X131203801Y-63408887D01*
X131276594Y-63436071D01*
X131319444Y-63459857D01*
X131254677Y-63635920D01*
X131185443Y-63605490D01*
X131116209Y-63595347D01*
X131040560Y-63611538D01*
X131005285Y-63632942D01*
X130954918Y-63690812D01*
X130935307Y-63736421D01*
X130916026Y-63814746D01*
X130906170Y-63891233D01*
X130903667Y-63957151D01*
X130903667Y-64542291D01*
X130715321Y-64542291D01*
G37*
G36*
X131964843Y-63404269D02*
G01*
X132039818Y-63420639D01*
X132120011Y-63453532D01*
X132192367Y-63501280D01*
X132248148Y-63554030D01*
X132296218Y-63616673D01*
X132334342Y-63688189D01*
X132362520Y-63768576D01*
X132378405Y-63842344D01*
X132387384Y-63922272D01*
X132389594Y-63990651D01*
X132388850Y-64042019D01*
X131559530Y-64042019D01*
X131568044Y-64116341D01*
X131587458Y-64191467D01*
X131621645Y-64263470D01*
X131663009Y-64316349D01*
X131725873Y-64366403D01*
X131797679Y-64397919D01*
X131878427Y-64410896D01*
X131895650Y-64411267D01*
X131974751Y-64402359D01*
X132048806Y-64372843D01*
X132072457Y-64357294D01*
X132126999Y-64302814D01*
X132168404Y-64233658D01*
X132188592Y-64184953D01*
X132383638Y-64208776D01*
X132359687Y-64279401D01*
X132323110Y-64351218D01*
X132276715Y-64413542D01*
X132220503Y-64466375D01*
X132212787Y-64472312D01*
X132146135Y-64513350D01*
X132070875Y-64542663D01*
X131997962Y-64558693D01*
X131918459Y-64565747D01*
X131894533Y-64566113D01*
X131806652Y-64560813D01*
X131725863Y-64544914D01*
X131652166Y-64518414D01*
X131585562Y-64481315D01*
X131526051Y-64433616D01*
X131507790Y-64415361D01*
X131459215Y-64354424D01*
X131420689Y-64284954D01*
X131392214Y-64206953D01*
X131373789Y-64120419D01*
X131366112Y-64041790D01*
X131364856Y-63991768D01*
X131368382Y-63906794D01*
X131371015Y-63887173D01*
X131569952Y-63887173D01*
X132190825Y-63887173D01*
X132180085Y-63810508D01*
X132157121Y-63732641D01*
X132119730Y-63667559D01*
X132064850Y-63612500D01*
X131993997Y-63572456D01*
X131921339Y-63555438D01*
X131886344Y-63553658D01*
X131809187Y-63562527D01*
X131733635Y-63592772D01*
X131673425Y-63638893D01*
X131667848Y-63644481D01*
X131620382Y-63707207D01*
X131588255Y-63781856D01*
X131572457Y-63859234D01*
X131569952Y-63887173D01*
X131371015Y-63887173D01*
X131378959Y-63827981D01*
X131396589Y-63755330D01*
X131427054Y-63676281D01*
X131467673Y-63606105D01*
X131509279Y-63554402D01*
X131566461Y-63501526D01*
X131629689Y-63459589D01*
X131698962Y-63428593D01*
X131774281Y-63408536D01*
X131855646Y-63399420D01*
X131884111Y-63398812D01*
X131964843Y-63404269D01*
G37*
G36*
X133091768Y-63404923D02*
G01*
X133170528Y-63427501D01*
X133240846Y-63466714D01*
X133302721Y-63522564D01*
X133341748Y-63572642D01*
X133341748Y-63422634D01*
X133511483Y-63422634D01*
X133511483Y-64971095D01*
X133323137Y-64971095D01*
X133323137Y-64422806D01*
X133270374Y-64479384D01*
X133204851Y-64522961D01*
X133199930Y-64525540D01*
X133128959Y-64553276D01*
X133054140Y-64565479D01*
X133032056Y-64566113D01*
X132948057Y-64558525D01*
X132869329Y-64535762D01*
X132795874Y-64497823D01*
X132727692Y-64444709D01*
X132691097Y-64407545D01*
X132642648Y-64343807D01*
X132604223Y-64271798D01*
X132575822Y-64191520D01*
X132559811Y-64118303D01*
X132550762Y-64039343D01*
X132548781Y-63979485D01*
X132742092Y-63979485D01*
X132745259Y-64056649D01*
X132756959Y-64137081D01*
X132780886Y-64216353D01*
X132816073Y-64282133D01*
X132832171Y-64303321D01*
X132885637Y-64355502D01*
X132951606Y-64393452D01*
X133024481Y-64410318D01*
X133047690Y-64411267D01*
X133126601Y-64399127D01*
X133197506Y-64362709D01*
X133255020Y-64308533D01*
X133296944Y-64242294D01*
X133322692Y-64169227D01*
X133336328Y-64094340D01*
X133341664Y-64009228D01*
X133341748Y-63996235D01*
X133338529Y-63916384D01*
X133326636Y-63833081D01*
X133305980Y-63760395D01*
X133271642Y-63690323D01*
X133250181Y-63660487D01*
X133196142Y-63605967D01*
X133130159Y-63566316D01*
X133050356Y-63548143D01*
X133035034Y-63547702D01*
X132955240Y-63560106D01*
X132884242Y-63597316D01*
X132827332Y-63652670D01*
X132786127Y-63720809D01*
X132760822Y-63796999D01*
X132747420Y-63875727D01*
X132742425Y-63952167D01*
X132742092Y-63979485D01*
X132548781Y-63979485D01*
X132548535Y-63972040D01*
X132552164Y-63890081D01*
X132563051Y-63812448D01*
X132581197Y-63739143D01*
X132606602Y-63670165D01*
X132643387Y-63600122D01*
X132688416Y-63540325D01*
X132748118Y-63485901D01*
X132774848Y-63467674D01*
X132846051Y-63431360D01*
X132921470Y-63408496D01*
X133001106Y-63399081D01*
X133017539Y-63398812D01*
X133091768Y-63404923D01*
G37*
D12*
G36*
X166951302Y-49338333D02*
G01*
X167026310Y-49360632D01*
X167094796Y-49397798D01*
X167156761Y-49449830D01*
X167189242Y-49486238D01*
X167189242Y-49354347D01*
X167360334Y-49354347D01*
X167360334Y-50305795D01*
X167359064Y-50382499D01*
X167354187Y-50464862D01*
X167343873Y-50547604D01*
X167325990Y-50624563D01*
X167308310Y-50669961D01*
X167269856Y-50732651D01*
X167219524Y-50786539D01*
X167157314Y-50831626D01*
X167143446Y-50839588D01*
X167075859Y-50869695D01*
X167000041Y-50889948D01*
X166925737Y-50899680D01*
X166865742Y-50901869D01*
X166783744Y-50897662D01*
X166708934Y-50885040D01*
X166632238Y-50860310D01*
X166564930Y-50824589D01*
X166549570Y-50813942D01*
X166491623Y-50757676D01*
X166453382Y-50687383D01*
X166435934Y-50613126D01*
X166433066Y-50550160D01*
X166613317Y-50576904D01*
X166634750Y-50648803D01*
X166676332Y-50698171D01*
X166746276Y-50733233D01*
X166821633Y-50747659D01*
X166864643Y-50749462D01*
X166939483Y-50744417D01*
X167014084Y-50725046D01*
X167063579Y-50697805D01*
X167116182Y-50644680D01*
X167151535Y-50575708D01*
X167158467Y-50553091D01*
X167168024Y-50479420D01*
X167171244Y-50397432D01*
X167171656Y-50314221D01*
X167115727Y-50369609D01*
X167054048Y-50411394D01*
X166976516Y-50442489D01*
X166902515Y-50455121D01*
X166869040Y-50456371D01*
X166787990Y-50450613D01*
X166714102Y-50433341D01*
X166636950Y-50398637D01*
X166569545Y-50348260D01*
X166519528Y-50292606D01*
X166477569Y-50228901D01*
X166444292Y-50160611D01*
X166419695Y-50087736D01*
X166403780Y-50010276D01*
X166396546Y-49928231D01*
X166396063Y-49899863D01*
X166396682Y-49886308D01*
X166586573Y-49886308D01*
X166589574Y-49963781D01*
X166600661Y-50043715D01*
X166623335Y-50121287D01*
X166661599Y-50190984D01*
X166671936Y-50203946D01*
X166729702Y-50256689D01*
X166795841Y-50289898D01*
X166870352Y-50303572D01*
X166886259Y-50303963D01*
X166962129Y-50294267D01*
X167029914Y-50265180D01*
X167089612Y-50216701D01*
X167100582Y-50204678D01*
X167142554Y-50139699D01*
X167168332Y-50066952D01*
X167181983Y-49991729D01*
X167187325Y-49905706D01*
X167187410Y-49892536D01*
X167183132Y-49808524D01*
X167170300Y-49734085D01*
X167145158Y-49660732D01*
X167103517Y-49593154D01*
X167098017Y-49586622D01*
X167038798Y-49532139D01*
X166972423Y-49497836D01*
X166898892Y-49483711D01*
X166883328Y-49483307D01*
X166809583Y-49493217D01*
X166736893Y-49527012D01*
X166678475Y-49578546D01*
X166673035Y-49584790D01*
X166631239Y-49649670D01*
X166605571Y-49720429D01*
X166591977Y-49792450D01*
X166586657Y-49873902D01*
X166586573Y-49886308D01*
X166396682Y-49886308D01*
X166399590Y-49822629D01*
X166410168Y-49748463D01*
X166430499Y-49668694D01*
X166452483Y-49609336D01*
X166488454Y-49539134D01*
X166532481Y-49478553D01*
X166590849Y-49422525D01*
X166616981Y-49403440D01*
X166687950Y-49365186D01*
X166758062Y-49342871D01*
X166834086Y-49332033D01*
X166869772Y-49330899D01*
X166951302Y-49338333D01*
G37*
G36*
X168172404Y-49333537D02*
G01*
X168245548Y-49342653D01*
X168319814Y-49362187D01*
X168325338Y-49364239D01*
X168393048Y-49396386D01*
X168451321Y-49444283D01*
X168453931Y-49447403D01*
X168492623Y-49512331D01*
X168511817Y-49574532D01*
X168519223Y-49652340D01*
X168520940Y-49731131D01*
X168520976Y-49746357D01*
X168520976Y-49995118D01*
X168521262Y-50071736D01*
X168522361Y-50151351D01*
X168524685Y-50227241D01*
X168529952Y-50303906D01*
X168532700Y-50324113D01*
X168552059Y-50395743D01*
X168579961Y-50456371D01*
X168386154Y-50456371D01*
X168360201Y-50383341D01*
X168349151Y-50317885D01*
X168291822Y-50363641D01*
X168229483Y-50404828D01*
X168162563Y-50438399D01*
X168150582Y-50443181D01*
X168077183Y-50465507D01*
X167999869Y-50477528D01*
X167946150Y-50479818D01*
X167871270Y-50475558D01*
X167795438Y-50460256D01*
X167722554Y-50429740D01*
X167668813Y-50390791D01*
X167617808Y-50330320D01*
X167585694Y-50260188D01*
X167572470Y-50180397D01*
X167572093Y-50163279D01*
X167572738Y-50157417D01*
X167769929Y-50157417D01*
X167785749Y-50230471D01*
X167825983Y-50283080D01*
X167890227Y-50319107D01*
X167964268Y-50332488D01*
X167990481Y-50333272D01*
X168067589Y-50326626D01*
X168143448Y-50304426D01*
X168180990Y-50286011D01*
X168241543Y-50241570D01*
X168290389Y-50180862D01*
X168303722Y-50155952D01*
X168325285Y-50083169D01*
X168333030Y-50005700D01*
X168333764Y-49968373D01*
X168333764Y-49899497D01*
X168260727Y-49923733D01*
X168188130Y-49941421D01*
X168114276Y-49955659D01*
X168030781Y-49968740D01*
X167954428Y-49981946D01*
X167881796Y-50001317D01*
X167868848Y-50006475D01*
X167807972Y-50050956D01*
X167795575Y-50067658D01*
X167770831Y-50139192D01*
X167769929Y-50157417D01*
X167572738Y-50157417D01*
X167580143Y-50090169D01*
X167606475Y-50019106D01*
X167608729Y-50014902D01*
X167650952Y-49954268D01*
X167704350Y-49907190D01*
X167771650Y-49869566D01*
X167838073Y-49845641D01*
X167911790Y-49830381D01*
X167989370Y-49819130D01*
X168002937Y-49817431D01*
X168082995Y-49806904D01*
X168165879Y-49793711D01*
X168246737Y-49777430D01*
X168320021Y-49757582D01*
X168333764Y-49752951D01*
X168334497Y-49704591D01*
X168327129Y-49629561D01*
X168297199Y-49562000D01*
X168282107Y-49545955D01*
X168219063Y-49507779D01*
X168144166Y-49488263D01*
X168070714Y-49483307D01*
X167995660Y-49487600D01*
X167923257Y-49504087D01*
X167877640Y-49527271D01*
X167826335Y-49583299D01*
X167793331Y-49655819D01*
X167785317Y-49682609D01*
X167603966Y-49657696D01*
X167624817Y-49585270D01*
X167656055Y-49518011D01*
X167685299Y-49475613D01*
X167739722Y-49424377D01*
X167804663Y-49386527D01*
X167849064Y-49368635D01*
X167926890Y-49347151D01*
X168004627Y-49335358D01*
X168080281Y-49331047D01*
X168097825Y-49330899D01*
X168172404Y-49333537D01*
G37*
G36*
X169207909Y-50286377D02*
G01*
X169234654Y-50456371D01*
X169160465Y-50473956D01*
X169094702Y-50479818D01*
X169020043Y-50474497D01*
X168948739Y-50453339D01*
X168937899Y-50447578D01*
X168881169Y-50398949D01*
X168859497Y-50362215D01*
X168843456Y-50287076D01*
X168838218Y-50208451D01*
X168837148Y-50139832D01*
X168837148Y-49500892D01*
X168700861Y-49500892D01*
X168700861Y-49354347D01*
X168837148Y-49354347D01*
X168837148Y-49088366D01*
X169021430Y-48979190D01*
X169021430Y-49354347D01*
X169207909Y-49354347D01*
X169207909Y-49500892D01*
X169021430Y-49500892D01*
X169021430Y-50154853D01*
X169024788Y-50230899D01*
X169030955Y-50259267D01*
X169062829Y-50296269D01*
X169126576Y-50309825D01*
X169198603Y-50290568D01*
X169207909Y-50286377D01*
G37*
G36*
X169914952Y-49336270D02*
G01*
X169988746Y-49352383D01*
X170067676Y-49384758D01*
X170138892Y-49431754D01*
X170193795Y-49483673D01*
X170241108Y-49545330D01*
X170278632Y-49615719D01*
X170306366Y-49694841D01*
X170322001Y-49767446D01*
X170330838Y-49846116D01*
X170333014Y-49913419D01*
X170332281Y-49963977D01*
X169516021Y-49963977D01*
X169524401Y-50037129D01*
X169543509Y-50111072D01*
X169577158Y-50181941D01*
X169617871Y-50233987D01*
X169679745Y-50283253D01*
X169750420Y-50314273D01*
X169829897Y-50327045D01*
X169846848Y-50327410D01*
X169924703Y-50318643D01*
X169997593Y-50289591D01*
X170020871Y-50274287D01*
X170074554Y-50220665D01*
X170115307Y-50152598D01*
X170135177Y-50104661D01*
X170327152Y-50128108D01*
X170303578Y-50197621D01*
X170267577Y-50268307D01*
X170221913Y-50329650D01*
X170166586Y-50381651D01*
X170158991Y-50387494D01*
X170093389Y-50427886D01*
X170019314Y-50456737D01*
X169947549Y-50472515D01*
X169869298Y-50479457D01*
X169845749Y-50479818D01*
X169759251Y-50474601D01*
X169679735Y-50458952D01*
X169607199Y-50432870D01*
X169541644Y-50396355D01*
X169483070Y-50349408D01*
X169465097Y-50331440D01*
X169417286Y-50271462D01*
X169379368Y-50203087D01*
X169351341Y-50126314D01*
X169333206Y-50041142D01*
X169325649Y-49963752D01*
X169324413Y-49914518D01*
X169327883Y-49830882D01*
X169330475Y-49811569D01*
X169526280Y-49811569D01*
X170137375Y-49811569D01*
X170126804Y-49736112D01*
X170104202Y-49659471D01*
X170067400Y-49595414D01*
X170013384Y-49541222D01*
X169943646Y-49501809D01*
X169872133Y-49485059D01*
X169837689Y-49483307D01*
X169761747Y-49492037D01*
X169687385Y-49521805D01*
X169628123Y-49567200D01*
X169622633Y-49572700D01*
X169575915Y-49634438D01*
X169544294Y-49707911D01*
X169528745Y-49784071D01*
X169526280Y-49811569D01*
X169330475Y-49811569D01*
X169338295Y-49753310D01*
X169355647Y-49681803D01*
X169385631Y-49603999D01*
X169425611Y-49534928D01*
X169466562Y-49484040D01*
X169522843Y-49431996D01*
X169585075Y-49390720D01*
X169653258Y-49360211D01*
X169727391Y-49340471D01*
X169807474Y-49331498D01*
X169835491Y-49330899D01*
X169914952Y-49336270D01*
G37*
G36*
X167005899Y-87573537D02*
G01*
X167079043Y-87582653D01*
X167153309Y-87602187D01*
X167158833Y-87604239D01*
X167226543Y-87636386D01*
X167284817Y-87684283D01*
X167287427Y-87687403D01*
X167326119Y-87752331D01*
X167345313Y-87814532D01*
X167352719Y-87892340D01*
X167354436Y-87971131D01*
X167354472Y-87986357D01*
X167354472Y-88235118D01*
X167354758Y-88311736D01*
X167355857Y-88391351D01*
X167358181Y-88467241D01*
X167363448Y-88543906D01*
X167366195Y-88564113D01*
X167385555Y-88635743D01*
X167413456Y-88696371D01*
X167219650Y-88696371D01*
X167193696Y-88623341D01*
X167182647Y-88557885D01*
X167125318Y-88603641D01*
X167062979Y-88644828D01*
X166996059Y-88678399D01*
X166984077Y-88683181D01*
X166910679Y-88705507D01*
X166833364Y-88717528D01*
X166779646Y-88719818D01*
X166704766Y-88715558D01*
X166628934Y-88700256D01*
X166556049Y-88669740D01*
X166502308Y-88630791D01*
X166451304Y-88570320D01*
X166419190Y-88500188D01*
X166405966Y-88420397D01*
X166405588Y-88403279D01*
X166406233Y-88397417D01*
X166603425Y-88397417D01*
X166619245Y-88470471D01*
X166659479Y-88523080D01*
X166723723Y-88559107D01*
X166797764Y-88572488D01*
X166823976Y-88573272D01*
X166901084Y-88566626D01*
X166976944Y-88544426D01*
X167014486Y-88526011D01*
X167075038Y-88481570D01*
X167123885Y-88420862D01*
X167137218Y-88395952D01*
X167158781Y-88323169D01*
X167166526Y-88245700D01*
X167167260Y-88208373D01*
X167167260Y-88139497D01*
X167094223Y-88163733D01*
X167021625Y-88181421D01*
X166947772Y-88195659D01*
X166864276Y-88208740D01*
X166787924Y-88221946D01*
X166715292Y-88241317D01*
X166702343Y-88246475D01*
X166641467Y-88290956D01*
X166629070Y-88307658D01*
X166604327Y-88379192D01*
X166603425Y-88397417D01*
X166406233Y-88397417D01*
X166413638Y-88330169D01*
X166439971Y-88259106D01*
X166442225Y-88254902D01*
X166484448Y-88194268D01*
X166537846Y-88147190D01*
X166605146Y-88109566D01*
X166671569Y-88085641D01*
X166745285Y-88070381D01*
X166822866Y-88059130D01*
X166836433Y-88057431D01*
X166916490Y-88046904D01*
X166999375Y-88033711D01*
X167080233Y-88017430D01*
X167153517Y-87997582D01*
X167167260Y-87992951D01*
X167167992Y-87944591D01*
X167160625Y-87869561D01*
X167130695Y-87802000D01*
X167115602Y-87785955D01*
X167052559Y-87747779D01*
X166977661Y-87728263D01*
X166904210Y-87723307D01*
X166829155Y-87727600D01*
X166756753Y-87744087D01*
X166711136Y-87767271D01*
X166659831Y-87823299D01*
X166626826Y-87895819D01*
X166618812Y-87922609D01*
X166437462Y-87897696D01*
X166458313Y-87825270D01*
X166489551Y-87758011D01*
X166518795Y-87715613D01*
X166573217Y-87664377D01*
X166638158Y-87626527D01*
X166682560Y-87608635D01*
X166760385Y-87587151D01*
X166838123Y-87575358D01*
X166913777Y-87571047D01*
X166931321Y-87570899D01*
X167005899Y-87573537D01*
G37*
G36*
X167636572Y-88696371D02*
G01*
X167636572Y-87594347D01*
X167802535Y-87594347D01*
X167802535Y-87746754D01*
X167849832Y-87687536D01*
X167908376Y-87638476D01*
X167939189Y-87619260D01*
X168006783Y-87589790D01*
X168080972Y-87573922D01*
X168134095Y-87570899D01*
X168212523Y-87576787D01*
X168286231Y-87596639D01*
X168333397Y-87620725D01*
X168392843Y-87671966D01*
X168434617Y-87738494D01*
X168443306Y-87760310D01*
X168494698Y-87695940D01*
X168551601Y-87644888D01*
X168624956Y-87602160D01*
X168705815Y-87577558D01*
X168781094Y-87570899D01*
X168857893Y-87576578D01*
X168933016Y-87596542D01*
X169002482Y-87635583D01*
X169031687Y-87661758D01*
X169077862Y-87727904D01*
X169104797Y-87803831D01*
X169117111Y-87884363D01*
X169119248Y-87940927D01*
X169119248Y-88696371D01*
X168934601Y-88696371D01*
X168934601Y-88000645D01*
X168932076Y-87925202D01*
X168920856Y-87852342D01*
X168916649Y-87839078D01*
X168875513Y-87778012D01*
X168851070Y-87759577D01*
X168781940Y-87732762D01*
X168740061Y-87729169D01*
X168665353Y-87738347D01*
X168594418Y-87769293D01*
X168548453Y-87806838D01*
X168505067Y-87871023D01*
X168481254Y-87948532D01*
X168472919Y-88023677D01*
X168472249Y-88054867D01*
X168472249Y-88696371D01*
X168286502Y-88696371D01*
X168286502Y-87978663D01*
X168281134Y-87900385D01*
X168260949Y-87826851D01*
X168241073Y-87791817D01*
X168181539Y-87744831D01*
X168105705Y-87729414D01*
X168093062Y-87729169D01*
X168017591Y-87739610D01*
X167947982Y-87770934D01*
X167890737Y-87822042D01*
X167853541Y-87887591D01*
X167851628Y-87892567D01*
X167832414Y-87969190D01*
X167824300Y-88044094D01*
X167821953Y-88123377D01*
X167821953Y-88696371D01*
X167636572Y-88696371D01*
G37*
G36*
X169947319Y-87576637D02*
G01*
X170025902Y-87596473D01*
X170097972Y-87630476D01*
X170118324Y-87643440D01*
X170180262Y-87694573D01*
X170231897Y-87757299D01*
X170269558Y-87823663D01*
X170280257Y-87847871D01*
X170306645Y-87924059D01*
X170324397Y-88004247D01*
X170332926Y-88078882D01*
X170334845Y-88136932D01*
X170331067Y-88219273D01*
X170319733Y-88297400D01*
X170300842Y-88371314D01*
X170274395Y-88441015D01*
X170236251Y-88511896D01*
X170189413Y-88572867D01*
X170133881Y-88623927D01*
X170099273Y-88648010D01*
X170033813Y-88682722D01*
X169958838Y-88707967D01*
X169881500Y-88719187D01*
X169857839Y-88719818D01*
X169780311Y-88712315D01*
X169709936Y-88689805D01*
X169691143Y-88680617D01*
X169627902Y-88639358D01*
X169573222Y-88585411D01*
X169570243Y-88581698D01*
X169570243Y-89118422D01*
X169384863Y-89118422D01*
X169384863Y-88152320D01*
X169552657Y-88152320D01*
X169555658Y-88227977D01*
X169566746Y-88306411D01*
X169589420Y-88383084D01*
X169627683Y-88452810D01*
X169638020Y-88465927D01*
X169695107Y-88519444D01*
X169766002Y-88555419D01*
X169845382Y-88567410D01*
X169919077Y-88557142D01*
X169985832Y-88526337D01*
X170045645Y-88474996D01*
X170056775Y-88462264D01*
X170099456Y-88393990D01*
X170125668Y-88317975D01*
X170139550Y-88239629D01*
X170144723Y-88163684D01*
X170145068Y-88136566D01*
X170142042Y-88061553D01*
X170130859Y-87983414D01*
X170107990Y-87906478D01*
X170069398Y-87835689D01*
X170058973Y-87822225D01*
X170002065Y-87766970D01*
X169931780Y-87729826D01*
X169853442Y-87717445D01*
X169775290Y-87730606D01*
X169709803Y-87765410D01*
X169655391Y-87815333D01*
X169643882Y-87828820D01*
X169603971Y-87890804D01*
X169575464Y-87965382D01*
X169559873Y-88040969D01*
X169553014Y-88126197D01*
X169552657Y-88152320D01*
X169384863Y-88152320D01*
X169384863Y-87594347D01*
X169553756Y-87594347D01*
X169553756Y-87739061D01*
X169600708Y-87682011D01*
X169656457Y-87633463D01*
X169688578Y-87613031D01*
X169760646Y-87584230D01*
X169838366Y-87571928D01*
X169871028Y-87570899D01*
X169947319Y-87576637D01*
G37*
G36*
X154559639Y-107753537D02*
G01*
X154632783Y-107762653D01*
X154707049Y-107782187D01*
X154712573Y-107784239D01*
X154780283Y-107816386D01*
X154838557Y-107864283D01*
X154841167Y-107867403D01*
X154879859Y-107932331D01*
X154899053Y-107994532D01*
X154906459Y-108072340D01*
X154908176Y-108151131D01*
X154908212Y-108166357D01*
X154908212Y-108415118D01*
X154908498Y-108491736D01*
X154909597Y-108571351D01*
X154911921Y-108647241D01*
X154917188Y-108723906D01*
X154919935Y-108744113D01*
X154939295Y-108815743D01*
X154967196Y-108876371D01*
X154773390Y-108876371D01*
X154747436Y-108803341D01*
X154736387Y-108737885D01*
X154679058Y-108783641D01*
X154616719Y-108824828D01*
X154549799Y-108858399D01*
X154537817Y-108863181D01*
X154464419Y-108885507D01*
X154387104Y-108897528D01*
X154333386Y-108899818D01*
X154258506Y-108895558D01*
X154182674Y-108880256D01*
X154109789Y-108849740D01*
X154056048Y-108810791D01*
X154005044Y-108750320D01*
X153972930Y-108680188D01*
X153959706Y-108600397D01*
X153959328Y-108583279D01*
X153959973Y-108577417D01*
X154157165Y-108577417D01*
X154172985Y-108650471D01*
X154213219Y-108703080D01*
X154277463Y-108739107D01*
X154351504Y-108752488D01*
X154377716Y-108753272D01*
X154454824Y-108746626D01*
X154530684Y-108724426D01*
X154568226Y-108706011D01*
X154628778Y-108661570D01*
X154677625Y-108600862D01*
X154690958Y-108575952D01*
X154712521Y-108503169D01*
X154720266Y-108425700D01*
X154721000Y-108388373D01*
X154721000Y-108319497D01*
X154647963Y-108343733D01*
X154575365Y-108361421D01*
X154501512Y-108375659D01*
X154418016Y-108388740D01*
X154341664Y-108401946D01*
X154269032Y-108421317D01*
X154256083Y-108426475D01*
X154195207Y-108470956D01*
X154182810Y-108487658D01*
X154158067Y-108559192D01*
X154157165Y-108577417D01*
X153959973Y-108577417D01*
X153967378Y-108510169D01*
X153993711Y-108439106D01*
X153995965Y-108434902D01*
X154038188Y-108374268D01*
X154091586Y-108327190D01*
X154158886Y-108289566D01*
X154225309Y-108265641D01*
X154299025Y-108250381D01*
X154376606Y-108239130D01*
X154390173Y-108237431D01*
X154470230Y-108226904D01*
X154553115Y-108213711D01*
X154633973Y-108197430D01*
X154707257Y-108177582D01*
X154721000Y-108172951D01*
X154721732Y-108124591D01*
X154714365Y-108049561D01*
X154684435Y-107982000D01*
X154669342Y-107965955D01*
X154606299Y-107927779D01*
X154531401Y-107908263D01*
X154457950Y-107903307D01*
X154382895Y-107907600D01*
X154310493Y-107924087D01*
X154264876Y-107947271D01*
X154213571Y-108003299D01*
X154180566Y-108075819D01*
X154172552Y-108102609D01*
X153991202Y-108077696D01*
X154012053Y-108005270D01*
X154043291Y-107938011D01*
X154072535Y-107895613D01*
X154126957Y-107844377D01*
X154191898Y-107806527D01*
X154236300Y-107788635D01*
X154314125Y-107767151D01*
X154391863Y-107755358D01*
X154467517Y-107751047D01*
X154485061Y-107750899D01*
X154559639Y-107753537D01*
G37*
G36*
X155190312Y-108876371D02*
G01*
X155190312Y-107774347D01*
X155356275Y-107774347D01*
X155356275Y-107926754D01*
X155403572Y-107867536D01*
X155462116Y-107818476D01*
X155492929Y-107799260D01*
X155560523Y-107769790D01*
X155634712Y-107753922D01*
X155687835Y-107750899D01*
X155766263Y-107756787D01*
X155839971Y-107776639D01*
X155887137Y-107800725D01*
X155946583Y-107851966D01*
X155988357Y-107918494D01*
X155997046Y-107940310D01*
X156048438Y-107875940D01*
X156105341Y-107824888D01*
X156178696Y-107782160D01*
X156259555Y-107757558D01*
X156334834Y-107750899D01*
X156411633Y-107756578D01*
X156486756Y-107776542D01*
X156556222Y-107815583D01*
X156585427Y-107841758D01*
X156631602Y-107907904D01*
X156658537Y-107983831D01*
X156670851Y-108064363D01*
X156672988Y-108120927D01*
X156672988Y-108876371D01*
X156488341Y-108876371D01*
X156488341Y-108180645D01*
X156485816Y-108105202D01*
X156474596Y-108032342D01*
X156470389Y-108019078D01*
X156429253Y-107958012D01*
X156404810Y-107939577D01*
X156335680Y-107912762D01*
X156293801Y-107909169D01*
X156219093Y-107918347D01*
X156148158Y-107949293D01*
X156102193Y-107986838D01*
X156058807Y-108051023D01*
X156034994Y-108128532D01*
X156026659Y-108203677D01*
X156025989Y-108234867D01*
X156025989Y-108876371D01*
X155840242Y-108876371D01*
X155840242Y-108158663D01*
X155834874Y-108080385D01*
X155814689Y-108006851D01*
X155794813Y-107971817D01*
X155735279Y-107924831D01*
X155659445Y-107909414D01*
X155646802Y-107909169D01*
X155571331Y-107919610D01*
X155501722Y-107950934D01*
X155444477Y-108002042D01*
X155407281Y-108067591D01*
X155405368Y-108072567D01*
X155386154Y-108149190D01*
X155378040Y-108224094D01*
X155375693Y-108303377D01*
X155375693Y-108876371D01*
X155190312Y-108876371D01*
G37*
G36*
X157501059Y-107756637D02*
G01*
X157579642Y-107776473D01*
X157651712Y-107810476D01*
X157672064Y-107823440D01*
X157734002Y-107874573D01*
X157785637Y-107937299D01*
X157823298Y-108003663D01*
X157833997Y-108027871D01*
X157860385Y-108104059D01*
X157878137Y-108184247D01*
X157886666Y-108258882D01*
X157888585Y-108316932D01*
X157884807Y-108399273D01*
X157873473Y-108477400D01*
X157854582Y-108551314D01*
X157828135Y-108621015D01*
X157789991Y-108691896D01*
X157743153Y-108752867D01*
X157687621Y-108803927D01*
X157653013Y-108828010D01*
X157587553Y-108862722D01*
X157512578Y-108887967D01*
X157435240Y-108899187D01*
X157411579Y-108899818D01*
X157334051Y-108892315D01*
X157263676Y-108869805D01*
X157244883Y-108860617D01*
X157181642Y-108819358D01*
X157126962Y-108765411D01*
X157123983Y-108761698D01*
X157123983Y-109298422D01*
X156938603Y-109298422D01*
X156938603Y-108332320D01*
X157106397Y-108332320D01*
X157109398Y-108407977D01*
X157120486Y-108486411D01*
X157143160Y-108563084D01*
X157181423Y-108632810D01*
X157191760Y-108645927D01*
X157248847Y-108699444D01*
X157319742Y-108735419D01*
X157399122Y-108747410D01*
X157472817Y-108737142D01*
X157539572Y-108706337D01*
X157599385Y-108654996D01*
X157610515Y-108642264D01*
X157653196Y-108573990D01*
X157679408Y-108497975D01*
X157693290Y-108419629D01*
X157698463Y-108343684D01*
X157698808Y-108316566D01*
X157695782Y-108241553D01*
X157684599Y-108163414D01*
X157661730Y-108086478D01*
X157623138Y-108015689D01*
X157612713Y-108002225D01*
X157555805Y-107946970D01*
X157485520Y-107909826D01*
X157407182Y-107897445D01*
X157329030Y-107910606D01*
X157263543Y-107945410D01*
X157209131Y-107995333D01*
X157197622Y-108008820D01*
X157157711Y-108070804D01*
X157129204Y-108145382D01*
X157113613Y-108220969D01*
X157106754Y-108306197D01*
X157106397Y-108332320D01*
X156938603Y-108332320D01*
X156938603Y-107774347D01*
X157107496Y-107774347D01*
X157107496Y-107919061D01*
X157154448Y-107862011D01*
X157210197Y-107813463D01*
X157242318Y-107793031D01*
X157314386Y-107764230D01*
X157392106Y-107751928D01*
X157424768Y-107750899D01*
X157501059Y-107756637D01*
G37*
G36*
X164422825Y-128516371D02*
G01*
X164422825Y-126992295D01*
X164608571Y-126992295D01*
X164608571Y-128516371D01*
X164422825Y-128516371D01*
G37*
G36*
X165419002Y-127396129D02*
G01*
X165494938Y-127411817D01*
X165565078Y-127437963D01*
X165629422Y-127474568D01*
X165687971Y-127521631D01*
X165706199Y-127539643D01*
X165754881Y-127599278D01*
X165793491Y-127666898D01*
X165822028Y-127742503D01*
X165840494Y-127826094D01*
X165848188Y-127901854D01*
X165849447Y-127949971D01*
X165847219Y-128026337D01*
X165838987Y-128107388D01*
X165824689Y-128179779D01*
X165800921Y-128251907D01*
X165786066Y-128283729D01*
X165745835Y-128347859D01*
X165696447Y-128403410D01*
X165637901Y-128450383D01*
X165601418Y-128472773D01*
X165531644Y-128505182D01*
X165458335Y-128526985D01*
X165381489Y-128538181D01*
X165337270Y-128539818D01*
X165254220Y-128534614D01*
X165177352Y-128519004D01*
X165106666Y-128492986D01*
X165042163Y-128456562D01*
X164983843Y-128409730D01*
X164965776Y-128391807D01*
X164917592Y-128331717D01*
X164879377Y-128262457D01*
X164851132Y-128184027D01*
X164835209Y-128111662D01*
X164826209Y-128032930D01*
X164823993Y-127965359D01*
X164824006Y-127964992D01*
X165014869Y-127964992D01*
X165018089Y-128040667D01*
X165029985Y-128119511D01*
X165054314Y-128197169D01*
X165090092Y-128261546D01*
X165106460Y-128282264D01*
X165161748Y-128333091D01*
X165232015Y-128370057D01*
X165311585Y-128386486D01*
X165337270Y-128387410D01*
X165411281Y-128379035D01*
X165484883Y-128350084D01*
X165549398Y-128300453D01*
X165566980Y-128281531D01*
X165611255Y-128213193D01*
X165638446Y-128137705D01*
X165652847Y-128060270D01*
X165658213Y-127985441D01*
X165658571Y-127958764D01*
X165655325Y-127885468D01*
X165643334Y-127808812D01*
X165618811Y-127732883D01*
X165577427Y-127662352D01*
X165566247Y-127648820D01*
X165510957Y-127597815D01*
X165441162Y-127560721D01*
X165362565Y-127544234D01*
X165337270Y-127543307D01*
X165262727Y-127551595D01*
X165188738Y-127580246D01*
X165124052Y-127629362D01*
X165106460Y-127648087D01*
X165062185Y-127715517D01*
X165034994Y-127789712D01*
X165020594Y-127865639D01*
X165015227Y-127938896D01*
X165014869Y-127964992D01*
X164824006Y-127964992D01*
X164826638Y-127891531D01*
X164837382Y-127806184D01*
X164856391Y-127728549D01*
X164883664Y-127658623D01*
X164927302Y-127584889D01*
X164982840Y-127522258D01*
X164993254Y-127512899D01*
X165057926Y-127465362D01*
X165128524Y-127429501D01*
X165205047Y-127405315D01*
X165287496Y-127392806D01*
X165337270Y-127390899D01*
X165419002Y-127396129D01*
G37*
G36*
X166263072Y-128516371D02*
G01*
X165928215Y-127414347D01*
X166119824Y-127414347D01*
X166293847Y-128051821D01*
X166359060Y-128287026D01*
X166376990Y-128215378D01*
X166397534Y-128134247D01*
X166415480Y-128063544D01*
X166589869Y-127414347D01*
X166780379Y-127414347D01*
X166944143Y-128056583D01*
X166998732Y-128264312D01*
X167061746Y-128054385D01*
X167249325Y-127414347D01*
X167429576Y-127414347D01*
X167087392Y-128516371D01*
X166894684Y-128516371D01*
X166720661Y-127859479D01*
X166678163Y-127668604D01*
X166456879Y-128516371D01*
X166263072Y-128516371D01*
G37*
G36*
X168722197Y-127396637D02*
G01*
X168800779Y-127416473D01*
X168872850Y-127450476D01*
X168893201Y-127463440D01*
X168955140Y-127514573D01*
X169006774Y-127577299D01*
X169044435Y-127643663D01*
X169055134Y-127667871D01*
X169081522Y-127744059D01*
X169099274Y-127824247D01*
X169107804Y-127898882D01*
X169109723Y-127956932D01*
X169105945Y-128039273D01*
X169094610Y-128117400D01*
X169075719Y-128191314D01*
X169049273Y-128261015D01*
X169011128Y-128331896D01*
X168964290Y-128392867D01*
X168908758Y-128443927D01*
X168874150Y-128468010D01*
X168808691Y-128502722D01*
X168733715Y-128527967D01*
X168656378Y-128539187D01*
X168632716Y-128539818D01*
X168555189Y-128532315D01*
X168484814Y-128509805D01*
X168466021Y-128500617D01*
X168402780Y-128459358D01*
X168348100Y-128405411D01*
X168345120Y-128401698D01*
X168345120Y-128938422D01*
X168159740Y-128938422D01*
X168159740Y-127972320D01*
X168327535Y-127972320D01*
X168330536Y-128047977D01*
X168341623Y-128126411D01*
X168364298Y-128203084D01*
X168402561Y-128272810D01*
X168412898Y-128285927D01*
X168469985Y-128339444D01*
X168540880Y-128375419D01*
X168620260Y-128387410D01*
X168693955Y-128377142D01*
X168760709Y-128346337D01*
X168820522Y-128294996D01*
X168831652Y-128282264D01*
X168874333Y-128213990D01*
X168900545Y-128137975D01*
X168914428Y-128059629D01*
X168919601Y-127983684D01*
X168919946Y-127956566D01*
X168916919Y-127881553D01*
X168905737Y-127803414D01*
X168882868Y-127726478D01*
X168844276Y-127655689D01*
X168833850Y-127642225D01*
X168776942Y-127586970D01*
X168706657Y-127549826D01*
X168628320Y-127537445D01*
X168550168Y-127550606D01*
X168484680Y-127585410D01*
X168430269Y-127635333D01*
X168418760Y-127648820D01*
X168378849Y-127710804D01*
X168350341Y-127785382D01*
X168334751Y-127860969D01*
X168327891Y-127946197D01*
X168327535Y-127972320D01*
X168159740Y-127972320D01*
X168159740Y-127414347D01*
X168328634Y-127414347D01*
X168328634Y-127559061D01*
X168375586Y-127502011D01*
X168431334Y-127453463D01*
X168463456Y-127433031D01*
X168535524Y-127404230D01*
X168613244Y-127391928D01*
X168645906Y-127390899D01*
X168722197Y-127396637D01*
G37*
G36*
X169865006Y-127393537D02*
G01*
X169938150Y-127402653D01*
X170012416Y-127422187D01*
X170017940Y-127424239D01*
X170085650Y-127456386D01*
X170143924Y-127504283D01*
X170146534Y-127507403D01*
X170185225Y-127572331D01*
X170204419Y-127634532D01*
X170211825Y-127712340D01*
X170213542Y-127791131D01*
X170213578Y-127806357D01*
X170213578Y-128055118D01*
X170213864Y-128131736D01*
X170214964Y-128211351D01*
X170217288Y-128287241D01*
X170222554Y-128363906D01*
X170225302Y-128384113D01*
X170244662Y-128455743D01*
X170272563Y-128516371D01*
X170078756Y-128516371D01*
X170052803Y-128443341D01*
X170041753Y-128377885D01*
X169984425Y-128423641D01*
X169922085Y-128464828D01*
X169855165Y-128498399D01*
X169843184Y-128503181D01*
X169769785Y-128525507D01*
X169692471Y-128537528D01*
X169638753Y-128539818D01*
X169563872Y-128535558D01*
X169488041Y-128520256D01*
X169415156Y-128489740D01*
X169361415Y-128450791D01*
X169310410Y-128390320D01*
X169278296Y-128320188D01*
X169265073Y-128240397D01*
X169264695Y-128223279D01*
X169265340Y-128217417D01*
X169462531Y-128217417D01*
X169478351Y-128290471D01*
X169518585Y-128343080D01*
X169582830Y-128379107D01*
X169656871Y-128392488D01*
X169683083Y-128393272D01*
X169760191Y-128386626D01*
X169836051Y-128364426D01*
X169873592Y-128346011D01*
X169934145Y-128301570D01*
X169982992Y-128240862D01*
X169996324Y-128215952D01*
X170017887Y-128143169D01*
X170025633Y-128065700D01*
X170026366Y-128028373D01*
X170026366Y-127959497D01*
X169953329Y-127983733D01*
X169880732Y-128001421D01*
X169806878Y-128015659D01*
X169723383Y-128028740D01*
X169647030Y-128041946D01*
X169574399Y-128061317D01*
X169561450Y-128066475D01*
X169500574Y-128110956D01*
X169488177Y-128127658D01*
X169463433Y-128199192D01*
X169462531Y-128217417D01*
X169265340Y-128217417D01*
X169272745Y-128150169D01*
X169299077Y-128079106D01*
X169301331Y-128074902D01*
X169343555Y-128014268D01*
X169396952Y-127967190D01*
X169464252Y-127929566D01*
X169530675Y-127905641D01*
X169604392Y-127890381D01*
X169681972Y-127879130D01*
X169695539Y-127877431D01*
X169775597Y-127866904D01*
X169858481Y-127853711D01*
X169939339Y-127837430D01*
X170012623Y-127817582D01*
X170026366Y-127812951D01*
X170027099Y-127764591D01*
X170019731Y-127689561D01*
X169989802Y-127622000D01*
X169974709Y-127605955D01*
X169911665Y-127567779D01*
X169836768Y-127548263D01*
X169763317Y-127543307D01*
X169688262Y-127547600D01*
X169615859Y-127564087D01*
X169570243Y-127587271D01*
X169518937Y-127643299D01*
X169485933Y-127715819D01*
X169477919Y-127742609D01*
X169296568Y-127717696D01*
X169317419Y-127645270D01*
X169348657Y-127578011D01*
X169377901Y-127535613D01*
X169432324Y-127484377D01*
X169497265Y-127446527D01*
X169541666Y-127428635D01*
X169619492Y-127407151D01*
X169697230Y-127395358D01*
X169772883Y-127391047D01*
X169790427Y-127390899D01*
X169865006Y-127393537D01*
G37*
G36*
X170421307Y-128193237D02*
G01*
X170604855Y-128164661D01*
X170624124Y-128238386D01*
X170662440Y-128302325D01*
X170690584Y-128329891D01*
X170757286Y-128367133D01*
X170835279Y-128384658D01*
X170888055Y-128387410D01*
X170961528Y-128382294D01*
X171032694Y-128362648D01*
X171077832Y-128335020D01*
X171124268Y-128277684D01*
X171139747Y-128211189D01*
X171116080Y-128139519D01*
X171084792Y-128111172D01*
X171012359Y-128080876D01*
X170939902Y-128059481D01*
X170895382Y-128047791D01*
X170823263Y-128028909D01*
X170750258Y-128008117D01*
X170674015Y-127983342D01*
X170612549Y-127958398D01*
X170547076Y-127916742D01*
X170495693Y-127858467D01*
X170493114Y-127854350D01*
X170462614Y-127784192D01*
X170452448Y-127707072D01*
X170461857Y-127632218D01*
X170485787Y-127571151D01*
X170528137Y-127510687D01*
X170577012Y-127467470D01*
X170643358Y-127431177D01*
X170694981Y-127413248D01*
X170767383Y-127397207D01*
X170844453Y-127390987D01*
X170855082Y-127390899D01*
X170932570Y-127394477D01*
X171010615Y-127406677D01*
X171081129Y-127427536D01*
X171151905Y-127461596D01*
X171209327Y-127507878D01*
X171225110Y-127526821D01*
X171262290Y-127594891D01*
X171284095Y-127668993D01*
X171288857Y-127694615D01*
X171107507Y-127719162D01*
X171083602Y-127645431D01*
X171036066Y-127589835D01*
X170969718Y-127556439D01*
X170894896Y-127544034D01*
X170868638Y-127543307D01*
X170789391Y-127548329D01*
X170718062Y-127567212D01*
X170686188Y-127585805D01*
X170639276Y-127644653D01*
X170631600Y-127685456D01*
X170654314Y-127750669D01*
X170713700Y-127795389D01*
X170725389Y-127800495D01*
X170796555Y-127822234D01*
X170872586Y-127843557D01*
X170889154Y-127848122D01*
X170969529Y-127870291D01*
X171047433Y-127893395D01*
X171117284Y-127916541D01*
X171163561Y-127934584D01*
X171229313Y-127972864D01*
X171283123Y-128028426D01*
X171285926Y-128032403D01*
X171317745Y-128099352D01*
X171329867Y-128174185D01*
X171330257Y-128191772D01*
X171321308Y-128265864D01*
X171294462Y-128336328D01*
X171276035Y-128367627D01*
X171228842Y-128423972D01*
X171168049Y-128469911D01*
X171119963Y-128494755D01*
X171046739Y-128520411D01*
X170974611Y-128534493D01*
X170897187Y-128539774D01*
X170889154Y-128539818D01*
X170812763Y-128536752D01*
X170732658Y-128525427D01*
X170653002Y-128502266D01*
X170586032Y-128468206D01*
X170564189Y-128452623D01*
X170507710Y-128396705D01*
X170463982Y-128327455D01*
X170435818Y-128254709D01*
X170421307Y-128193237D01*
G37*
G36*
X171470574Y-128193237D02*
G01*
X171654123Y-128164661D01*
X171673391Y-128238386D01*
X171711707Y-128302325D01*
X171739852Y-128329891D01*
X171806553Y-128367133D01*
X171884546Y-128384658D01*
X171937322Y-128387410D01*
X172010795Y-128382294D01*
X172081962Y-128362648D01*
X172127099Y-128335020D01*
X172173535Y-128277684D01*
X172189014Y-128211189D01*
X172165347Y-128139519D01*
X172134060Y-128111172D01*
X172061627Y-128080876D01*
X171989169Y-128059481D01*
X171944649Y-128047791D01*
X171872530Y-128028909D01*
X171799525Y-128008117D01*
X171723282Y-127983342D01*
X171661816Y-127958398D01*
X171596343Y-127916742D01*
X171544960Y-127858467D01*
X171542381Y-127854350D01*
X171511882Y-127784192D01*
X171501715Y-127707072D01*
X171511124Y-127632218D01*
X171535054Y-127571151D01*
X171577405Y-127510687D01*
X171626279Y-127467470D01*
X171692625Y-127431177D01*
X171744248Y-127413248D01*
X171816650Y-127397207D01*
X171893720Y-127390987D01*
X171904349Y-127390899D01*
X171981837Y-127394477D01*
X172059883Y-127406677D01*
X172130396Y-127427536D01*
X172201172Y-127461596D01*
X172258594Y-127507878D01*
X172274377Y-127526821D01*
X172311557Y-127594891D01*
X172333362Y-127668993D01*
X172338125Y-127694615D01*
X172156774Y-127719162D01*
X172132869Y-127645431D01*
X172085333Y-127589835D01*
X172018985Y-127556439D01*
X171944163Y-127544034D01*
X171917905Y-127543307D01*
X171838658Y-127548329D01*
X171767329Y-127567212D01*
X171735455Y-127585805D01*
X171688544Y-127644653D01*
X171680867Y-127685456D01*
X171703582Y-127750669D01*
X171762967Y-127795389D01*
X171774656Y-127800495D01*
X171845822Y-127822234D01*
X171921853Y-127843557D01*
X171938421Y-127848122D01*
X172018796Y-127870291D01*
X172096700Y-127893395D01*
X172166552Y-127916541D01*
X172212828Y-127934584D01*
X172278580Y-127972864D01*
X172332390Y-128028426D01*
X172335194Y-128032403D01*
X172367013Y-128099352D01*
X172379134Y-128174185D01*
X172379524Y-128191772D01*
X172370575Y-128265864D01*
X172343729Y-128336328D01*
X172325302Y-128367627D01*
X172278110Y-128423972D01*
X172217316Y-128469911D01*
X172169231Y-128494755D01*
X172096006Y-128520411D01*
X172023878Y-128534493D01*
X171946455Y-128539774D01*
X171938421Y-128539818D01*
X171862030Y-128536752D01*
X171781925Y-128525427D01*
X171702270Y-128502266D01*
X171635299Y-128468206D01*
X171613456Y-128452623D01*
X171556977Y-128396705D01*
X171513250Y-128327455D01*
X171485085Y-128254709D01*
X171470574Y-128193237D01*
G37*
G36*
X140000686Y-39236371D02*
G01*
X139828861Y-39236371D01*
X139828861Y-39098251D01*
X139778517Y-39161205D01*
X139718846Y-39208697D01*
X139649848Y-39240726D01*
X139571524Y-39257293D01*
X139522580Y-39259818D01*
X139442875Y-39252734D01*
X139367248Y-39231482D01*
X139295699Y-39196062D01*
X139281879Y-39187278D01*
X139224144Y-39141953D01*
X139174177Y-39087587D01*
X139131975Y-39024178D01*
X139111886Y-38985045D01*
X139082842Y-38908843D01*
X139065004Y-38836000D01*
X139054677Y-38758348D01*
X139051802Y-38686458D01*
X139051833Y-38685725D01*
X139242312Y-38685725D01*
X139245429Y-38761498D01*
X139256944Y-38840360D01*
X139280494Y-38917909D01*
X139320236Y-38989113D01*
X139330972Y-39002630D01*
X139389497Y-39057885D01*
X139454248Y-39092676D01*
X139532664Y-39107308D01*
X139540166Y-39107410D01*
X139619459Y-39095592D01*
X139690095Y-39060136D01*
X139746795Y-39007393D01*
X139787882Y-38942610D01*
X139813116Y-38871060D01*
X139826480Y-38797672D01*
X139831709Y-38714222D01*
X139831792Y-38701479D01*
X139828739Y-38620811D01*
X139817462Y-38537411D01*
X139797874Y-38465546D01*
X139765314Y-38397539D01*
X139744963Y-38369186D01*
X139687025Y-38313351D01*
X139621287Y-38278196D01*
X139547749Y-38263721D01*
X139532106Y-38263307D01*
X139458683Y-38273253D01*
X139387091Y-38307170D01*
X139330348Y-38358890D01*
X139325110Y-38365156D01*
X139285085Y-38431543D01*
X139260505Y-38506173D01*
X139247487Y-38583532D01*
X139242635Y-38658799D01*
X139242312Y-38685725D01*
X139051833Y-38685725D01*
X139055214Y-38606109D01*
X139065449Y-38529562D01*
X139082508Y-38456816D01*
X139106391Y-38387871D01*
X139141414Y-38317401D01*
X139185074Y-38256843D01*
X139243714Y-38201180D01*
X139270155Y-38182340D01*
X139340931Y-38144667D01*
X139416787Y-38120946D01*
X139497723Y-38111179D01*
X139514520Y-38110899D01*
X139591324Y-38118095D01*
X139666057Y-38141937D01*
X139690742Y-38154497D01*
X139752842Y-38197443D01*
X139803862Y-38250627D01*
X139816404Y-38267703D01*
X139816404Y-37712295D01*
X140000686Y-37712295D01*
X140000686Y-39236371D01*
G37*
G36*
X140815440Y-38116270D02*
G01*
X140889234Y-38132383D01*
X140968164Y-38164758D01*
X141039380Y-38211754D01*
X141094283Y-38263673D01*
X141141596Y-38325330D01*
X141179119Y-38395719D01*
X141206854Y-38474841D01*
X141222489Y-38547446D01*
X141231326Y-38626116D01*
X141233501Y-38693419D01*
X141232769Y-38743977D01*
X140416509Y-38743977D01*
X140424889Y-38817129D01*
X140443997Y-38891072D01*
X140477646Y-38961941D01*
X140518358Y-39013987D01*
X140580232Y-39063253D01*
X140650908Y-39094273D01*
X140730385Y-39107045D01*
X140747336Y-39107410D01*
X140825191Y-39098643D01*
X140898080Y-39069591D01*
X140921359Y-39054287D01*
X140975042Y-39000665D01*
X141015795Y-38932598D01*
X141035665Y-38884661D01*
X141227640Y-38908108D01*
X141204065Y-38977621D01*
X141168064Y-39048307D01*
X141122400Y-39109650D01*
X141067074Y-39161651D01*
X141059478Y-39167494D01*
X140993876Y-39207886D01*
X140919802Y-39236737D01*
X140848037Y-39252515D01*
X140769786Y-39259457D01*
X140746237Y-39259818D01*
X140659739Y-39254601D01*
X140580222Y-39238952D01*
X140507687Y-39212870D01*
X140442132Y-39176355D01*
X140383558Y-39129408D01*
X140365585Y-39111440D01*
X140317774Y-39051462D01*
X140279855Y-38983087D01*
X140251828Y-38906314D01*
X140233693Y-38821142D01*
X140226137Y-38743752D01*
X140224901Y-38694518D01*
X140228371Y-38610882D01*
X140230963Y-38591569D01*
X140426767Y-38591569D01*
X141037863Y-38591569D01*
X141027292Y-38516112D01*
X141004690Y-38439471D01*
X140967887Y-38375414D01*
X140913872Y-38321222D01*
X140844134Y-38281809D01*
X140772621Y-38265059D01*
X140738177Y-38263307D01*
X140662235Y-38272037D01*
X140587873Y-38301805D01*
X140528611Y-38347200D01*
X140523121Y-38352700D01*
X140476403Y-38414438D01*
X140444782Y-38487911D01*
X140429233Y-38564071D01*
X140426767Y-38591569D01*
X140230963Y-38591569D01*
X140238782Y-38533310D01*
X140256135Y-38461803D01*
X140286119Y-38383999D01*
X140326099Y-38314928D01*
X140367050Y-38264040D01*
X140423331Y-38211996D01*
X140485563Y-38170720D01*
X140553746Y-38140211D01*
X140627878Y-38120471D01*
X140707962Y-38111498D01*
X140735979Y-38110899D01*
X140815440Y-38116270D01*
G37*
G36*
X142168829Y-38837766D02*
G01*
X142351279Y-38861580D01*
X142333683Y-38939451D01*
X142307181Y-39009572D01*
X142265988Y-39080223D01*
X142213162Y-39140754D01*
X142198139Y-39154305D01*
X142133063Y-39200467D01*
X142060935Y-39233440D01*
X141981755Y-39253223D01*
X141906687Y-39259715D01*
X141895522Y-39259818D01*
X141814395Y-39254640D01*
X141739451Y-39239107D01*
X141670689Y-39213218D01*
X141598280Y-39169926D01*
X141542913Y-39121600D01*
X141534287Y-39112539D01*
X141487970Y-39052677D01*
X141451236Y-38983825D01*
X141424085Y-38905983D01*
X141408780Y-38834247D01*
X141400129Y-38756267D01*
X141397999Y-38689389D01*
X141400804Y-38613629D01*
X141410879Y-38532285D01*
X141428281Y-38456528D01*
X141453011Y-38386357D01*
X141456617Y-38377979D01*
X141494607Y-38308063D01*
X141542218Y-38248754D01*
X141599450Y-38200052D01*
X141635403Y-38177578D01*
X141704649Y-38145346D01*
X141777199Y-38123662D01*
X141853052Y-38112527D01*
X141896621Y-38110899D01*
X141971559Y-38115230D01*
X142049560Y-38130783D01*
X142119410Y-38157648D01*
X142188247Y-38201391D01*
X142245669Y-38258292D01*
X142290166Y-38327190D01*
X142318869Y-38398505D01*
X142333693Y-38458213D01*
X142153442Y-38486056D01*
X142130884Y-38416275D01*
X142092168Y-38350662D01*
X142061851Y-38319361D01*
X141994677Y-38279127D01*
X141921086Y-38263800D01*
X141903948Y-38263307D01*
X141829193Y-38271305D01*
X141755920Y-38298955D01*
X141692951Y-38346353D01*
X141676070Y-38364424D01*
X141633743Y-38430604D01*
X141607748Y-38505051D01*
X141593981Y-38582250D01*
X141588851Y-38657379D01*
X141588508Y-38684260D01*
X141591484Y-38763253D01*
X141602476Y-38844634D01*
X141624956Y-38923431D01*
X141662890Y-38993959D01*
X141673139Y-39007026D01*
X141731041Y-39059963D01*
X141798962Y-39093294D01*
X141876900Y-39107018D01*
X141893690Y-39107410D01*
X141970472Y-39098137D01*
X142042141Y-39067160D01*
X142075773Y-39041465D01*
X142123206Y-38981736D01*
X142153470Y-38909424D01*
X142168829Y-38837766D01*
G37*
G36*
X143041349Y-38113537D02*
G01*
X143114493Y-38122653D01*
X143188759Y-38142187D01*
X143194283Y-38144239D01*
X143261993Y-38176386D01*
X143320267Y-38224283D01*
X143322877Y-38227403D01*
X143361568Y-38292331D01*
X143380762Y-38354532D01*
X143388168Y-38432340D01*
X143389886Y-38511131D01*
X143389922Y-38526357D01*
X143389922Y-38775118D01*
X143390208Y-38851736D01*
X143391307Y-38931351D01*
X143393631Y-39007241D01*
X143398898Y-39083906D01*
X143401645Y-39104113D01*
X143421005Y-39175743D01*
X143448906Y-39236371D01*
X143255100Y-39236371D01*
X143229146Y-39163341D01*
X143218097Y-39097885D01*
X143160768Y-39143641D01*
X143098429Y-39184828D01*
X143031509Y-39218399D01*
X143019527Y-39223181D01*
X142946129Y-39245507D01*
X142868814Y-39257528D01*
X142815096Y-39259818D01*
X142740216Y-39255558D01*
X142664384Y-39240256D01*
X142591499Y-39209740D01*
X142537758Y-39170791D01*
X142486754Y-39110320D01*
X142454639Y-39040188D01*
X142441416Y-38960397D01*
X142441038Y-38943279D01*
X142441683Y-38937417D01*
X142638875Y-38937417D01*
X142654695Y-39010471D01*
X142694929Y-39063080D01*
X142759173Y-39099107D01*
X142833214Y-39112488D01*
X142859426Y-39113272D01*
X142936534Y-39106626D01*
X143012394Y-39084426D01*
X143049936Y-39066011D01*
X143110488Y-39021570D01*
X143159335Y-38960862D01*
X143172668Y-38935952D01*
X143194231Y-38863169D01*
X143201976Y-38785700D01*
X143202709Y-38748373D01*
X143202709Y-38679497D01*
X143129673Y-38703733D01*
X143057075Y-38721421D01*
X142983222Y-38735659D01*
X142899726Y-38748740D01*
X142823374Y-38761946D01*
X142750742Y-38781317D01*
X142737793Y-38786475D01*
X142676917Y-38830956D01*
X142664520Y-38847658D01*
X142639776Y-38919192D01*
X142638875Y-38937417D01*
X142441683Y-38937417D01*
X142449088Y-38870169D01*
X142475421Y-38799106D01*
X142477675Y-38794902D01*
X142519898Y-38734268D01*
X142573296Y-38687190D01*
X142640595Y-38649566D01*
X142707019Y-38625641D01*
X142780735Y-38610381D01*
X142858316Y-38599130D01*
X142871883Y-38597431D01*
X142951940Y-38586904D01*
X143034825Y-38573711D01*
X143115683Y-38557430D01*
X143188966Y-38537582D01*
X143202709Y-38532951D01*
X143203442Y-38484591D01*
X143196075Y-38409561D01*
X143166145Y-38342000D01*
X143151052Y-38325955D01*
X143088009Y-38287779D01*
X143013111Y-38268263D01*
X142939660Y-38263307D01*
X142864605Y-38267600D01*
X142792203Y-38284087D01*
X142746586Y-38307271D01*
X142695281Y-38363299D01*
X142662276Y-38435819D01*
X142654262Y-38462609D01*
X142472912Y-38437696D01*
X142493762Y-38365270D01*
X142525001Y-38298011D01*
X142554245Y-38255613D01*
X142608667Y-38204377D01*
X142673608Y-38166527D01*
X142718010Y-38148635D01*
X142795835Y-38127151D01*
X142873573Y-38115358D01*
X142949227Y-38111047D01*
X142966771Y-38110899D01*
X143041349Y-38113537D01*
G37*
G36*
X143663596Y-39659888D02*
G01*
X143643079Y-39489528D01*
X143716274Y-39504067D01*
X143749325Y-39506015D01*
X143822353Y-39495971D01*
X143847877Y-39484765D01*
X143902895Y-39434677D01*
X143909060Y-39425414D01*
X143939170Y-39356349D01*
X143965480Y-39282899D01*
X143981966Y-39236371D01*
X143566876Y-38134347D01*
X143766544Y-38134347D01*
X143994423Y-38772187D01*
X144018634Y-38841385D01*
X144041396Y-38912553D01*
X144062709Y-38985692D01*
X144073924Y-39027177D01*
X144092838Y-38955335D01*
X144113723Y-38884479D01*
X144136578Y-38814608D01*
X144150127Y-38776217D01*
X144383868Y-38134347D01*
X144569248Y-38134347D01*
X144153058Y-39253956D01*
X144125164Y-39327880D01*
X144096805Y-39399097D01*
X144066637Y-39468220D01*
X144049011Y-39503450D01*
X144009856Y-39565738D01*
X143958965Y-39620825D01*
X143935438Y-39638638D01*
X143865462Y-39671062D01*
X143788547Y-39681827D01*
X143783030Y-39681869D01*
X143707461Y-39672403D01*
X143663596Y-39659888D01*
G37*
G36*
X155027280Y-128526371D02*
G01*
X154611090Y-127424347D01*
X154807095Y-127424347D01*
X155041934Y-128085634D01*
X155067394Y-128160178D01*
X155091381Y-128236712D01*
X155111910Y-128308017D01*
X155133274Y-128237624D01*
X155157564Y-128164316D01*
X155180787Y-128098091D01*
X155424052Y-127424347D01*
X155614928Y-127424347D01*
X155200570Y-128526371D01*
X155027280Y-128526371D01*
G37*
G36*
X156486875Y-128127766D02*
G01*
X156669325Y-128151580D01*
X156651728Y-128229451D01*
X156625226Y-128299572D01*
X156584033Y-128370223D01*
X156531208Y-128430754D01*
X156516184Y-128444305D01*
X156451109Y-128490467D01*
X156378981Y-128523440D01*
X156299800Y-128543223D01*
X156224732Y-128549715D01*
X156213567Y-128549818D01*
X156132441Y-128544640D01*
X156057496Y-128529107D01*
X155988734Y-128503218D01*
X155916326Y-128459926D01*
X155860959Y-128411600D01*
X155852332Y-128402539D01*
X155806016Y-128342677D01*
X155769282Y-128273825D01*
X155742131Y-128195983D01*
X155726825Y-128124247D01*
X155718174Y-128046267D01*
X155716045Y-127979389D01*
X155718850Y-127903629D01*
X155728925Y-127822285D01*
X155746327Y-127746528D01*
X155771057Y-127676357D01*
X155774663Y-127667979D01*
X155812653Y-127598063D01*
X155860263Y-127538754D01*
X155917496Y-127490052D01*
X155953449Y-127467578D01*
X156022695Y-127435346D01*
X156095245Y-127413662D01*
X156171098Y-127402527D01*
X156214667Y-127400899D01*
X156289604Y-127405230D01*
X156367606Y-127420783D01*
X156437455Y-127447648D01*
X156506292Y-127491391D01*
X156563715Y-127548292D01*
X156608212Y-127617190D01*
X156636914Y-127688505D01*
X156651739Y-127748213D01*
X156471488Y-127776056D01*
X156448929Y-127706275D01*
X156410213Y-127640662D01*
X156379897Y-127609361D01*
X156312722Y-127569127D01*
X156239132Y-127553800D01*
X156221994Y-127553307D01*
X156147238Y-127561305D01*
X156073965Y-127588955D01*
X156010997Y-127636353D01*
X155994115Y-127654424D01*
X155951788Y-127720604D01*
X155925794Y-127795051D01*
X155912027Y-127872250D01*
X155906896Y-127947379D01*
X155906554Y-127974260D01*
X155909529Y-128053253D01*
X155920521Y-128134634D01*
X155943001Y-128213431D01*
X155980936Y-128283959D01*
X155991184Y-128297026D01*
X156049087Y-128349963D01*
X156117008Y-128383294D01*
X156194946Y-128397018D01*
X156211736Y-128397410D01*
X156288518Y-128388137D01*
X156360186Y-128357160D01*
X156393819Y-128331465D01*
X156441251Y-128271736D01*
X156471516Y-128199424D01*
X156486875Y-128127766D01*
G37*
G36*
X156866429Y-128526371D02*
G01*
X156866429Y-127570892D01*
X156702297Y-127570892D01*
X156702297Y-127424347D01*
X156866429Y-127424347D01*
X156866429Y-127307110D01*
X156869159Y-127231668D01*
X156881295Y-127156243D01*
X156885846Y-127141880D01*
X156922757Y-127076209D01*
X156980001Y-127024277D01*
X157049615Y-126993222D01*
X157125693Y-126980445D01*
X157169412Y-126978848D01*
X157246273Y-126982953D01*
X157318877Y-126993153D01*
X157342336Y-126997532D01*
X157314492Y-127159099D01*
X157241523Y-127150053D01*
X157205315Y-127148841D01*
X157129355Y-127159181D01*
X157085514Y-127185477D01*
X157055604Y-127255859D01*
X157050710Y-127322131D01*
X157050710Y-127424347D01*
X157263934Y-127424347D01*
X157263934Y-127570892D01*
X157050710Y-127570892D01*
X157050710Y-128526371D01*
X156866429Y-128526371D01*
G37*
G36*
X165405048Y-108866371D02*
G01*
X165405048Y-107910892D01*
X165240917Y-107910892D01*
X165240917Y-107764347D01*
X165405048Y-107764347D01*
X165405048Y-107647110D01*
X165407779Y-107571668D01*
X165419914Y-107496243D01*
X165424465Y-107481880D01*
X165461377Y-107416209D01*
X165518621Y-107364277D01*
X165588234Y-107333222D01*
X165664312Y-107320445D01*
X165708031Y-107318848D01*
X165784893Y-107322953D01*
X165857496Y-107333153D01*
X165880955Y-107337532D01*
X165853112Y-107499099D01*
X165780142Y-107490053D01*
X165743935Y-107488841D01*
X165667974Y-107499181D01*
X165624134Y-107525477D01*
X165594224Y-107595859D01*
X165589329Y-107662131D01*
X165589329Y-107764347D01*
X165802553Y-107764347D01*
X165802553Y-107910892D01*
X165589329Y-107910892D01*
X165589329Y-108866371D01*
X165405048Y-108866371D01*
G37*
G36*
X165941772Y-108866371D02*
G01*
X165941772Y-107764347D01*
X166108834Y-107764347D01*
X166108834Y-107933241D01*
X166147710Y-107867574D01*
X166195360Y-107805635D01*
X166226437Y-107778269D01*
X166294700Y-107747067D01*
X166345871Y-107740899D01*
X166422559Y-107750816D01*
X166494206Y-107777572D01*
X166536381Y-107800983D01*
X166472633Y-107974274D01*
X166404490Y-107944323D01*
X166336346Y-107934340D01*
X166261889Y-107950276D01*
X166227169Y-107971343D01*
X166177596Y-108028301D01*
X166158293Y-108073192D01*
X166139316Y-108150283D01*
X166129615Y-108225566D01*
X166127152Y-108290446D01*
X166127152Y-108866371D01*
X165941772Y-108866371D01*
G37*
G36*
X167171616Y-107746270D02*
G01*
X167245410Y-107762383D01*
X167324340Y-107794758D01*
X167395557Y-107841754D01*
X167450460Y-107893673D01*
X167497772Y-107955330D01*
X167535296Y-108025719D01*
X167563031Y-108104841D01*
X167578666Y-108177446D01*
X167587503Y-108256116D01*
X167589678Y-108323419D01*
X167588945Y-108373977D01*
X166772686Y-108373977D01*
X166781066Y-108447129D01*
X166800174Y-108521072D01*
X166833823Y-108591941D01*
X166874535Y-108643987D01*
X166936409Y-108693253D01*
X167007085Y-108724273D01*
X167086561Y-108737045D01*
X167103513Y-108737410D01*
X167181368Y-108728643D01*
X167254257Y-108699591D01*
X167277536Y-108684287D01*
X167331219Y-108630665D01*
X167371971Y-108562598D01*
X167391841Y-108514661D01*
X167583816Y-108538108D01*
X167560242Y-108607621D01*
X167524241Y-108678307D01*
X167478577Y-108739650D01*
X167423250Y-108791651D01*
X167415655Y-108797494D01*
X167350053Y-108837886D01*
X167275979Y-108866737D01*
X167204214Y-108882515D01*
X167125963Y-108889457D01*
X167102414Y-108889818D01*
X167015916Y-108884601D01*
X166936399Y-108868952D01*
X166863863Y-108842870D01*
X166798308Y-108806355D01*
X166739735Y-108759408D01*
X166721761Y-108741440D01*
X166673951Y-108681462D01*
X166636032Y-108613087D01*
X166608005Y-108536314D01*
X166589870Y-108451142D01*
X166582314Y-108373752D01*
X166581077Y-108324518D01*
X166584548Y-108240882D01*
X166587140Y-108221569D01*
X166782944Y-108221569D01*
X167394040Y-108221569D01*
X167383468Y-108146112D01*
X167360866Y-108069471D01*
X167324064Y-108005414D01*
X167270049Y-107951222D01*
X167200311Y-107911809D01*
X167128798Y-107895059D01*
X167094354Y-107893307D01*
X167018412Y-107902037D01*
X166944049Y-107931805D01*
X166884787Y-107977200D01*
X166879298Y-107982700D01*
X166832579Y-108044438D01*
X166800959Y-108117911D01*
X166785409Y-108194071D01*
X166782944Y-108221569D01*
X166587140Y-108221569D01*
X166594959Y-108163310D01*
X166612311Y-108091803D01*
X166642296Y-108013999D01*
X166682275Y-107944928D01*
X166723227Y-107894040D01*
X166779508Y-107841996D01*
X166841740Y-107800720D01*
X166909922Y-107770211D01*
X166984055Y-107750471D01*
X167064139Y-107741498D01*
X167092155Y-107740899D01*
X167171616Y-107746270D01*
G37*
G36*
X168280794Y-107746914D02*
G01*
X168358314Y-107769136D01*
X168427525Y-107807732D01*
X168488425Y-107862702D01*
X168526838Y-107911992D01*
X168526838Y-107764347D01*
X168693900Y-107764347D01*
X168693900Y-109288422D01*
X168508520Y-109288422D01*
X168508520Y-108748768D01*
X168456588Y-108804455D01*
X168392096Y-108847345D01*
X168387253Y-108849884D01*
X168317399Y-108877183D01*
X168243759Y-108889194D01*
X168222023Y-108889818D01*
X168139346Y-108882350D01*
X168061859Y-108859945D01*
X167989560Y-108822604D01*
X167922451Y-108770326D01*
X167886433Y-108733747D01*
X167838747Y-108671012D01*
X167800927Y-108600138D01*
X167772973Y-108521124D01*
X167757215Y-108449060D01*
X167748308Y-108371344D01*
X167746358Y-108312428D01*
X167936625Y-108312428D01*
X167939742Y-108388377D01*
X167951257Y-108467542D01*
X167974808Y-108545566D01*
X168009441Y-108610310D01*
X168025285Y-108631165D01*
X168077910Y-108682524D01*
X168142839Y-108719876D01*
X168214566Y-108736476D01*
X168237410Y-108737410D01*
X168315078Y-108725462D01*
X168384868Y-108689617D01*
X168441475Y-108636294D01*
X168482739Y-108571098D01*
X168508081Y-108499182D01*
X168521503Y-108425474D01*
X168526755Y-108341703D01*
X168526838Y-108328914D01*
X168523669Y-108250320D01*
X168511964Y-108168330D01*
X168491633Y-108096788D01*
X168457836Y-108027820D01*
X168436712Y-107998454D01*
X168383524Y-107944792D01*
X168318581Y-107905766D01*
X168240035Y-107887879D01*
X168224954Y-107887445D01*
X168146416Y-107899653D01*
X168076536Y-107936278D01*
X168020523Y-107990760D01*
X167979967Y-108057826D01*
X167955060Y-108132816D01*
X167941869Y-108210304D01*
X167936953Y-108285540D01*
X167936625Y-108312428D01*
X167746358Y-108312428D01*
X167746116Y-108305100D01*
X167749688Y-108224432D01*
X167760404Y-108148022D01*
X167778264Y-108075871D01*
X167803269Y-108007979D01*
X167839474Y-107939039D01*
X167883794Y-107880184D01*
X167942556Y-107826617D01*
X167968865Y-107808677D01*
X168038947Y-107772935D01*
X168113178Y-107750431D01*
X168191560Y-107741164D01*
X168207735Y-107740899D01*
X168280794Y-107746914D01*
G37*
G36*
X170276227Y-108467766D02*
G01*
X170458677Y-108491580D01*
X170441081Y-108569451D01*
X170414579Y-108639572D01*
X170373385Y-108710223D01*
X170320560Y-108770754D01*
X170305536Y-108784305D01*
X170240461Y-108830467D01*
X170168333Y-108863440D01*
X170089153Y-108883223D01*
X170014084Y-108889715D01*
X170002920Y-108889818D01*
X169921793Y-108884640D01*
X169846848Y-108869107D01*
X169778086Y-108843218D01*
X169705678Y-108799926D01*
X169650311Y-108751600D01*
X169641684Y-108742539D01*
X169595368Y-108682677D01*
X169558634Y-108613825D01*
X169531483Y-108535983D01*
X169516177Y-108464247D01*
X169507526Y-108386267D01*
X169505397Y-108319389D01*
X169508202Y-108243629D01*
X169518277Y-108162285D01*
X169535679Y-108086528D01*
X169560409Y-108016357D01*
X169564015Y-108007979D01*
X169602005Y-107938063D01*
X169649616Y-107878754D01*
X169706848Y-107830052D01*
X169742801Y-107807578D01*
X169812047Y-107775346D01*
X169884597Y-107753662D01*
X169960450Y-107742527D01*
X170004019Y-107740899D01*
X170078957Y-107745230D01*
X170156958Y-107760783D01*
X170226808Y-107787648D01*
X170295645Y-107831391D01*
X170353067Y-107888292D01*
X170397564Y-107957190D01*
X170426266Y-108028505D01*
X170441091Y-108088213D01*
X170260840Y-108116056D01*
X170238281Y-108046275D01*
X170199566Y-107980662D01*
X170169249Y-107949361D01*
X170102074Y-107909127D01*
X170028484Y-107893800D01*
X170011346Y-107893307D01*
X169936590Y-107901305D01*
X169863318Y-107928955D01*
X169800349Y-107976353D01*
X169783467Y-107994424D01*
X169741141Y-108060604D01*
X169715146Y-108135051D01*
X169701379Y-108212250D01*
X169696248Y-108287379D01*
X169695906Y-108314260D01*
X169698882Y-108393253D01*
X169709874Y-108474634D01*
X169732354Y-108553431D01*
X169770288Y-108623959D01*
X169780536Y-108637026D01*
X169838439Y-108689963D01*
X169906360Y-108723294D01*
X169984298Y-108737018D01*
X170001088Y-108737410D01*
X170077870Y-108728137D01*
X170149539Y-108697160D01*
X170183171Y-108671465D01*
X170230604Y-108611736D01*
X170260868Y-108539424D01*
X170276227Y-108467766D01*
G37*
G36*
X170915167Y-108866371D02*
G01*
X170498977Y-107764347D01*
X170694982Y-107764347D01*
X170929821Y-108425634D01*
X170955280Y-108500178D01*
X170979267Y-108576712D01*
X170999797Y-108648017D01*
X171021160Y-108577624D01*
X171045451Y-108504316D01*
X171068673Y-108438091D01*
X171311939Y-107764347D01*
X171502815Y-107764347D01*
X171088457Y-108866371D01*
X170915167Y-108866371D01*
G37*
G36*
X153493679Y-50296377D02*
G01*
X153520424Y-50466371D01*
X153446235Y-50483956D01*
X153380473Y-50489818D01*
X153305813Y-50484497D01*
X153234510Y-50463339D01*
X153223669Y-50457578D01*
X153166940Y-50408949D01*
X153145267Y-50372215D01*
X153129226Y-50297076D01*
X153123988Y-50218451D01*
X153122919Y-50149832D01*
X153122919Y-49510892D01*
X152986631Y-49510892D01*
X152986631Y-49364347D01*
X153122919Y-49364347D01*
X153122919Y-49098366D01*
X153307200Y-48989190D01*
X153307200Y-49364347D01*
X153493679Y-49364347D01*
X153493679Y-49510892D01*
X153307200Y-49510892D01*
X153307200Y-50164853D01*
X153310558Y-50240899D01*
X153316725Y-50269267D01*
X153348599Y-50306269D01*
X153412347Y-50319825D01*
X153484374Y-50300568D01*
X153493679Y-50296377D01*
G37*
G36*
X153669901Y-50466371D02*
G01*
X153669901Y-49364347D01*
X153836963Y-49364347D01*
X153836963Y-49533241D01*
X153875839Y-49467574D01*
X153923489Y-49405635D01*
X153954566Y-49378269D01*
X154022829Y-49347067D01*
X154074000Y-49340899D01*
X154150688Y-49350816D01*
X154222335Y-49377572D01*
X154264510Y-49400983D01*
X154200762Y-49574274D01*
X154132619Y-49544323D01*
X154064475Y-49534340D01*
X153990018Y-49550276D01*
X153955298Y-49571343D01*
X153905725Y-49628301D01*
X153886422Y-49673192D01*
X153867445Y-49750283D01*
X153857744Y-49825566D01*
X153855281Y-49890446D01*
X153855281Y-50466371D01*
X153669901Y-50466371D01*
G37*
G36*
X154372221Y-49153321D02*
G01*
X154372221Y-48942295D01*
X154557601Y-48942295D01*
X154557601Y-49153321D01*
X154372221Y-49153321D01*
G37*
G36*
X154372221Y-50466371D02*
G01*
X154372221Y-49364347D01*
X154557601Y-49364347D01*
X154557601Y-50466371D01*
X154372221Y-50466371D01*
G37*
G36*
X155321301Y-49348333D02*
G01*
X155396309Y-49370632D01*
X155464796Y-49407798D01*
X155526761Y-49459830D01*
X155559241Y-49496238D01*
X155559241Y-49364347D01*
X155730333Y-49364347D01*
X155730333Y-50315795D01*
X155729063Y-50392499D01*
X155724186Y-50474862D01*
X155713873Y-50557604D01*
X155695990Y-50634563D01*
X155678310Y-50679961D01*
X155639856Y-50742651D01*
X155589523Y-50796539D01*
X155527313Y-50841626D01*
X155513446Y-50849588D01*
X155445858Y-50879695D01*
X155370040Y-50899948D01*
X155295737Y-50909680D01*
X155235742Y-50911869D01*
X155153744Y-50907662D01*
X155078933Y-50895040D01*
X155002237Y-50870310D01*
X154934929Y-50834589D01*
X154919569Y-50823942D01*
X154861622Y-50767676D01*
X154823381Y-50697383D01*
X154805933Y-50623126D01*
X154803065Y-50560160D01*
X154983317Y-50586904D01*
X155004749Y-50658803D01*
X155046331Y-50708171D01*
X155116275Y-50743233D01*
X155191632Y-50757659D01*
X155234642Y-50759462D01*
X155309482Y-50754417D01*
X155384083Y-50735046D01*
X155433578Y-50707805D01*
X155486182Y-50654680D01*
X155521534Y-50585708D01*
X155528467Y-50563091D01*
X155538024Y-50489420D01*
X155541244Y-50407432D01*
X155541656Y-50324221D01*
X155485726Y-50379609D01*
X155424047Y-50421394D01*
X155346515Y-50452489D01*
X155272514Y-50465121D01*
X155239039Y-50466371D01*
X155157989Y-50460613D01*
X155084101Y-50443341D01*
X155006949Y-50408637D01*
X154939545Y-50358260D01*
X154889527Y-50302606D01*
X154847569Y-50238901D01*
X154814291Y-50170611D01*
X154789694Y-50097736D01*
X154773779Y-50020276D01*
X154766545Y-49938231D01*
X154766063Y-49909863D01*
X154766682Y-49896308D01*
X154956572Y-49896308D01*
X154959573Y-49973781D01*
X154970660Y-50053715D01*
X154993335Y-50131287D01*
X155031598Y-50200984D01*
X155041935Y-50213946D01*
X155099702Y-50266689D01*
X155165840Y-50299898D01*
X155240351Y-50313572D01*
X155256258Y-50313963D01*
X155332128Y-50304267D01*
X155399913Y-50275180D01*
X155459612Y-50226701D01*
X155470581Y-50214678D01*
X155512554Y-50149699D01*
X155538331Y-50076952D01*
X155551983Y-50001729D01*
X155557325Y-49915706D01*
X155557409Y-49902536D01*
X155553132Y-49818524D01*
X155540299Y-49744085D01*
X155515157Y-49670732D01*
X155473516Y-49603154D01*
X155468016Y-49596622D01*
X155408797Y-49542139D01*
X155342422Y-49507836D01*
X155268892Y-49493711D01*
X155253327Y-49493307D01*
X155179582Y-49503217D01*
X155106892Y-49537012D01*
X155048474Y-49588546D01*
X155043034Y-49594790D01*
X155001238Y-49659670D01*
X154975570Y-49730429D01*
X154961976Y-49802450D01*
X154956656Y-49883902D01*
X154956572Y-49896308D01*
X154766682Y-49896308D01*
X154769589Y-49832629D01*
X154780168Y-49758463D01*
X154800499Y-49678694D01*
X154822483Y-49619336D01*
X154858453Y-49549134D01*
X154902480Y-49488553D01*
X154960848Y-49432525D01*
X154986980Y-49413440D01*
X155057949Y-49375186D01*
X155128061Y-49352871D01*
X155204085Y-49342033D01*
X155239772Y-49340899D01*
X155321301Y-49348333D01*
G37*
G36*
X156489270Y-49348333D02*
G01*
X156564279Y-49370632D01*
X156632765Y-49407798D01*
X156694730Y-49459830D01*
X156727210Y-49496238D01*
X156727210Y-49364347D01*
X156898303Y-49364347D01*
X156898303Y-50315795D01*
X156897032Y-50392499D01*
X156892155Y-50474862D01*
X156881842Y-50557604D01*
X156863959Y-50634563D01*
X156846279Y-50679961D01*
X156807825Y-50742651D01*
X156757493Y-50796539D01*
X156695282Y-50841626D01*
X156681415Y-50849588D01*
X156613827Y-50879695D01*
X156538009Y-50899948D01*
X156463706Y-50909680D01*
X156403711Y-50911869D01*
X156321713Y-50907662D01*
X156246903Y-50895040D01*
X156170207Y-50870310D01*
X156102899Y-50834589D01*
X156087538Y-50823942D01*
X156029591Y-50767676D01*
X155991351Y-50697383D01*
X155973903Y-50623126D01*
X155971035Y-50560160D01*
X156151286Y-50586904D01*
X156172718Y-50658803D01*
X156214301Y-50708171D01*
X156284245Y-50743233D01*
X156359601Y-50757659D01*
X156402612Y-50759462D01*
X156477452Y-50754417D01*
X156552053Y-50735046D01*
X156601548Y-50707805D01*
X156654151Y-50654680D01*
X156689504Y-50585708D01*
X156696436Y-50563091D01*
X156705993Y-50489420D01*
X156709213Y-50407432D01*
X156709625Y-50324221D01*
X156653696Y-50379609D01*
X156592016Y-50421394D01*
X156514485Y-50452489D01*
X156440483Y-50465121D01*
X156407008Y-50466371D01*
X156325959Y-50460613D01*
X156252070Y-50443341D01*
X156174919Y-50408637D01*
X156107514Y-50358260D01*
X156057497Y-50302606D01*
X156015538Y-50238901D01*
X155982260Y-50170611D01*
X155957664Y-50097736D01*
X155941748Y-50020276D01*
X155934514Y-49938231D01*
X155934032Y-49909863D01*
X155934651Y-49896308D01*
X156124541Y-49896308D01*
X156127542Y-49973781D01*
X156138629Y-50053715D01*
X156161304Y-50131287D01*
X156199567Y-50200984D01*
X156209904Y-50213946D01*
X156267671Y-50266689D01*
X156333810Y-50299898D01*
X156408320Y-50313572D01*
X156424227Y-50313963D01*
X156500098Y-50304267D01*
X156567882Y-50275180D01*
X156627581Y-50226701D01*
X156638550Y-50214678D01*
X156680523Y-50149699D01*
X156706300Y-50076952D01*
X156719952Y-50001729D01*
X156725294Y-49915706D01*
X156725379Y-49902536D01*
X156721101Y-49818524D01*
X156708268Y-49744085D01*
X156683127Y-49670732D01*
X156641486Y-49603154D01*
X156635986Y-49596622D01*
X156576766Y-49542139D01*
X156510392Y-49507836D01*
X156436861Y-49493711D01*
X156421296Y-49493307D01*
X156347551Y-49503217D01*
X156274862Y-49537012D01*
X156216444Y-49588546D01*
X156211003Y-49594790D01*
X156169208Y-49659670D01*
X156143539Y-49730429D01*
X156129945Y-49802450D01*
X156124626Y-49883902D01*
X156124541Y-49896308D01*
X155934651Y-49896308D01*
X155937558Y-49832629D01*
X155948137Y-49758463D01*
X155968468Y-49678694D01*
X155990452Y-49619336D01*
X156026423Y-49549134D01*
X156070450Y-49488553D01*
X156128817Y-49432525D01*
X156154950Y-49413440D01*
X156225918Y-49375186D01*
X156296031Y-49352871D01*
X156372055Y-49342033D01*
X156407741Y-49340899D01*
X156489270Y-49348333D01*
G37*
G36*
X157701699Y-49346270D02*
G01*
X157775493Y-49362383D01*
X157854423Y-49394758D01*
X157925640Y-49441754D01*
X157980543Y-49493673D01*
X158027855Y-49555330D01*
X158065379Y-49625719D01*
X158093114Y-49704841D01*
X158108749Y-49777446D01*
X158117586Y-49856116D01*
X158119761Y-49923419D01*
X158119028Y-49973977D01*
X157302769Y-49973977D01*
X157311149Y-50047129D01*
X157330257Y-50121072D01*
X157363906Y-50191941D01*
X157404618Y-50243987D01*
X157466492Y-50293253D01*
X157537167Y-50324273D01*
X157616644Y-50337045D01*
X157633596Y-50337410D01*
X157711451Y-50328643D01*
X157784340Y-50299591D01*
X157807619Y-50284287D01*
X157861302Y-50230665D01*
X157902054Y-50162598D01*
X157921924Y-50114661D01*
X158113899Y-50138108D01*
X158090325Y-50207621D01*
X158054324Y-50278307D01*
X158008660Y-50339650D01*
X157953333Y-50391651D01*
X157945738Y-50397494D01*
X157880136Y-50437886D01*
X157806062Y-50466737D01*
X157734297Y-50482515D01*
X157656046Y-50489457D01*
X157632497Y-50489818D01*
X157545999Y-50484601D01*
X157466482Y-50468952D01*
X157393946Y-50442870D01*
X157328391Y-50406355D01*
X157269817Y-50359408D01*
X157251844Y-50341440D01*
X157204034Y-50281462D01*
X157166115Y-50213087D01*
X157138088Y-50136314D01*
X157119953Y-50051142D01*
X157112397Y-49973752D01*
X157111160Y-49924518D01*
X157114631Y-49840882D01*
X157117223Y-49821569D01*
X157313027Y-49821569D01*
X157924123Y-49821569D01*
X157913551Y-49746112D01*
X157890949Y-49669471D01*
X157854147Y-49605414D01*
X157800132Y-49551222D01*
X157730394Y-49511809D01*
X157658881Y-49495059D01*
X157624437Y-49493307D01*
X157548495Y-49502037D01*
X157474132Y-49531805D01*
X157414870Y-49577200D01*
X157409381Y-49582700D01*
X157362662Y-49644438D01*
X157331042Y-49717911D01*
X157315492Y-49794071D01*
X157313027Y-49821569D01*
X157117223Y-49821569D01*
X157125042Y-49763310D01*
X157142394Y-49691803D01*
X157172379Y-49613999D01*
X157212358Y-49544928D01*
X157253310Y-49494040D01*
X157309591Y-49441996D01*
X157371823Y-49400720D01*
X157440005Y-49370211D01*
X157514138Y-49350471D01*
X157594222Y-49341498D01*
X157622238Y-49340899D01*
X157701699Y-49346270D01*
G37*
G36*
X158338847Y-50466371D02*
G01*
X158338847Y-49364347D01*
X158505909Y-49364347D01*
X158505909Y-49533241D01*
X158544785Y-49467574D01*
X158592436Y-49405635D01*
X158623512Y-49378269D01*
X158691775Y-49347067D01*
X158742947Y-49340899D01*
X158819634Y-49350816D01*
X158891281Y-49377572D01*
X158933456Y-49400983D01*
X158869709Y-49574274D01*
X158801565Y-49544323D01*
X158733421Y-49534340D01*
X158658964Y-49550276D01*
X158624245Y-49571343D01*
X158574671Y-49628301D01*
X158555368Y-49673192D01*
X158536392Y-49750283D01*
X158526691Y-49825566D01*
X158524227Y-49890446D01*
X158524227Y-50466371D01*
X158338847Y-50466371D01*
G37*
D11*
G36*
X130768841Y-129222291D02*
G01*
X130768841Y-128102634D01*
X130938576Y-128102634D01*
X130938576Y-128274231D01*
X130978074Y-128207513D01*
X131026487Y-128144584D01*
X131058061Y-128116779D01*
X131127416Y-128085078D01*
X131179406Y-128078812D01*
X131257321Y-128088887D01*
X131330114Y-128116071D01*
X131372964Y-128139857D01*
X131308197Y-128315920D01*
X131238963Y-128285490D01*
X131169729Y-128275347D01*
X131094080Y-128291538D01*
X131058805Y-128312942D01*
X131008438Y-128370812D01*
X130988827Y-128416421D01*
X130969547Y-128494746D01*
X130959690Y-128571233D01*
X130957187Y-128637151D01*
X130957187Y-129222291D01*
X130768841Y-129222291D01*
G37*
G36*
X132018363Y-128084269D02*
G01*
X132093338Y-128100639D01*
X132173531Y-128133532D01*
X132245887Y-128181280D01*
X132301668Y-128234030D01*
X132349738Y-128296673D01*
X132387862Y-128368189D01*
X132416040Y-128448576D01*
X132431925Y-128522344D01*
X132440904Y-128602272D01*
X132443114Y-128670651D01*
X132442370Y-128722019D01*
X131613050Y-128722019D01*
X131621564Y-128796341D01*
X131640978Y-128871467D01*
X131675165Y-128943470D01*
X131716529Y-128996349D01*
X131779393Y-129046403D01*
X131851199Y-129077919D01*
X131931947Y-129090896D01*
X131949170Y-129091267D01*
X132028271Y-129082359D01*
X132102326Y-129052843D01*
X132125977Y-129037294D01*
X132180519Y-128982814D01*
X132221924Y-128913658D01*
X132242112Y-128864953D01*
X132437158Y-128888776D01*
X132413207Y-128959401D01*
X132376630Y-129031218D01*
X132330235Y-129093542D01*
X132274023Y-129146375D01*
X132266307Y-129152312D01*
X132199655Y-129193350D01*
X132124395Y-129222663D01*
X132051482Y-129238693D01*
X131971979Y-129245747D01*
X131948053Y-129246113D01*
X131860172Y-129240813D01*
X131779383Y-129224914D01*
X131705686Y-129198414D01*
X131639082Y-129161315D01*
X131579571Y-129113616D01*
X131561310Y-129095361D01*
X131512735Y-129034424D01*
X131474210Y-128964954D01*
X131445734Y-128886953D01*
X131427309Y-128800419D01*
X131419632Y-128721790D01*
X131418376Y-128671768D01*
X131421902Y-128586794D01*
X131424535Y-128567173D01*
X131623472Y-128567173D01*
X132244345Y-128567173D01*
X132233605Y-128490508D01*
X132210641Y-128412641D01*
X132173250Y-128347559D01*
X132118370Y-128292500D01*
X132047517Y-128252456D01*
X131974859Y-128235438D01*
X131939864Y-128233658D01*
X131862707Y-128242527D01*
X131787155Y-128272772D01*
X131726945Y-128318893D01*
X131721368Y-128324481D01*
X131673902Y-128387207D01*
X131641775Y-128461856D01*
X131625977Y-128539234D01*
X131623472Y-128567173D01*
X131424535Y-128567173D01*
X131432479Y-128507981D01*
X131450109Y-128435330D01*
X131480574Y-128356281D01*
X131521193Y-128286105D01*
X131562799Y-128234402D01*
X131619981Y-128181526D01*
X131683209Y-128139589D01*
X131752482Y-128108593D01*
X131827801Y-128088536D01*
X131909166Y-128079420D01*
X131937631Y-128078812D01*
X132018363Y-128084269D01*
G37*
G36*
X132592377Y-128893987D02*
G01*
X132778862Y-128864953D01*
X132798439Y-128939858D01*
X132837368Y-129004820D01*
X132865963Y-129032827D01*
X132933732Y-129070665D01*
X133012972Y-129088470D01*
X133066593Y-129091267D01*
X133141242Y-129086069D01*
X133213546Y-129066108D01*
X133259406Y-129038039D01*
X133306586Y-128979785D01*
X133322312Y-128912226D01*
X133298266Y-128839410D01*
X133266478Y-128810608D01*
X133192886Y-128779828D01*
X133119270Y-128758091D01*
X133074037Y-128746213D01*
X133000764Y-128727029D01*
X132926591Y-128705905D01*
X132849128Y-128680734D01*
X132786679Y-128655390D01*
X132720158Y-128613068D01*
X132667953Y-128553860D01*
X132665333Y-128549678D01*
X132634345Y-128478397D01*
X132624016Y-128400043D01*
X132633576Y-128323992D01*
X132657889Y-128261947D01*
X132700917Y-128200516D01*
X132750573Y-128156607D01*
X132817981Y-128119734D01*
X132870430Y-128101518D01*
X132943990Y-128085220D01*
X133022294Y-128078901D01*
X133033092Y-128078812D01*
X133111820Y-128082447D01*
X133191114Y-128094842D01*
X133262756Y-128116035D01*
X133334664Y-128150640D01*
X133393005Y-128197662D01*
X133409041Y-128216908D01*
X133446816Y-128286068D01*
X133468969Y-128361355D01*
X133473808Y-128387387D01*
X133289556Y-128412327D01*
X133265268Y-128337416D01*
X133216972Y-128280931D01*
X133149562Y-128247000D01*
X133073543Y-128234397D01*
X133046865Y-128233658D01*
X132966351Y-128238760D01*
X132893880Y-128257946D01*
X132861496Y-128276836D01*
X132813834Y-128336625D01*
X132806035Y-128378082D01*
X132829113Y-128444338D01*
X132889448Y-128489773D01*
X132901324Y-128494961D01*
X132973629Y-128517048D01*
X133050876Y-128538712D01*
X133067709Y-128543350D01*
X133149371Y-128565874D01*
X133228521Y-128589348D01*
X133299490Y-128612863D01*
X133346507Y-128631195D01*
X133413311Y-128670088D01*
X133467982Y-128726539D01*
X133470830Y-128730580D01*
X133503158Y-128798600D01*
X133515474Y-128874630D01*
X133515870Y-128892498D01*
X133506778Y-128967776D01*
X133479502Y-129039368D01*
X133460780Y-129071167D01*
X133412833Y-129128414D01*
X133351067Y-129175088D01*
X133302212Y-129200329D01*
X133227815Y-129226396D01*
X133154533Y-129240703D01*
X133075872Y-129246068D01*
X133067709Y-129246113D01*
X132990096Y-129242998D01*
X132908710Y-129231492D01*
X132827780Y-129207961D01*
X132759738Y-129173355D01*
X132737545Y-129157523D01*
X132680162Y-129100710D01*
X132635735Y-129030353D01*
X132607120Y-128956443D01*
X132592377Y-128893987D01*
G37*
D12*
G36*
X164016893Y-148326371D02*
G01*
X164016893Y-146802295D01*
X164202273Y-146802295D01*
X164202273Y-147350010D01*
X164262275Y-147291909D01*
X164328798Y-147248079D01*
X164401842Y-147218519D01*
X164481408Y-147203229D01*
X164529803Y-147200899D01*
X164609659Y-147206614D01*
X164681983Y-147223757D01*
X164741195Y-147249260D01*
X164805659Y-147294361D01*
X164853194Y-147351677D01*
X164869423Y-147382250D01*
X164893087Y-147456765D01*
X164904465Y-147535311D01*
X164908105Y-147608916D01*
X164908257Y-147628813D01*
X164908257Y-148326371D01*
X164722511Y-148326371D01*
X164722511Y-147627347D01*
X164716607Y-147547127D01*
X164696477Y-147476157D01*
X164662060Y-147423283D01*
X164599880Y-147379455D01*
X164524937Y-147360734D01*
X164491701Y-147359169D01*
X164416595Y-147368668D01*
X164345835Y-147397165D01*
X164336729Y-147402400D01*
X164277819Y-147449428D01*
X164235035Y-147514675D01*
X164233048Y-147519270D01*
X164212011Y-147594433D01*
X164203746Y-147668544D01*
X164202273Y-147722602D01*
X164202273Y-148326371D01*
X164016893Y-148326371D01*
G37*
G36*
X165185961Y-147013321D02*
G01*
X165185961Y-146802295D01*
X165371342Y-146802295D01*
X165371342Y-147013321D01*
X165185961Y-147013321D01*
G37*
G36*
X165185961Y-148326371D02*
G01*
X165185961Y-147224347D01*
X165371342Y-147224347D01*
X165371342Y-148326371D01*
X165185961Y-148326371D01*
G37*
G36*
X166135042Y-147208333D02*
G01*
X166210050Y-147230632D01*
X166278536Y-147267798D01*
X166340501Y-147319830D01*
X166372982Y-147356238D01*
X166372982Y-147224347D01*
X166544074Y-147224347D01*
X166544074Y-148175795D01*
X166542804Y-148252499D01*
X166537926Y-148334862D01*
X166527613Y-148417604D01*
X166509730Y-148494563D01*
X166492050Y-148539961D01*
X166453596Y-148602651D01*
X166403264Y-148656539D01*
X166341053Y-148701626D01*
X166327186Y-148709588D01*
X166259598Y-148739695D01*
X166183780Y-148759948D01*
X166109477Y-148769680D01*
X166049482Y-148771869D01*
X165967484Y-148767662D01*
X165892674Y-148755040D01*
X165815978Y-148730310D01*
X165748670Y-148694589D01*
X165733310Y-148683942D01*
X165675362Y-148627676D01*
X165637122Y-148557383D01*
X165619674Y-148483126D01*
X165616806Y-148420160D01*
X165797057Y-148446904D01*
X165818489Y-148518803D01*
X165860072Y-148568171D01*
X165930016Y-148603233D01*
X166005372Y-148617659D01*
X166048383Y-148619462D01*
X166123223Y-148614417D01*
X166197824Y-148595046D01*
X166247319Y-148567805D01*
X166299922Y-148514680D01*
X166335275Y-148445708D01*
X166342207Y-148423091D01*
X166351764Y-148349420D01*
X166354984Y-148267432D01*
X166355396Y-148184221D01*
X166299467Y-148239609D01*
X166237787Y-148281394D01*
X166160256Y-148312489D01*
X166086254Y-148325121D01*
X166052779Y-148326371D01*
X165971730Y-148320613D01*
X165897841Y-148303341D01*
X165820690Y-148268637D01*
X165753285Y-148218260D01*
X165703268Y-148162606D01*
X165661309Y-148098901D01*
X165628031Y-148030611D01*
X165603435Y-147957736D01*
X165587519Y-147880276D01*
X165580285Y-147798231D01*
X165579803Y-147769863D01*
X165580422Y-147756308D01*
X165770312Y-147756308D01*
X165773313Y-147833781D01*
X165784401Y-147913715D01*
X165807075Y-147991287D01*
X165845338Y-148060984D01*
X165855675Y-148073946D01*
X165913442Y-148126689D01*
X165979581Y-148159898D01*
X166054092Y-148173572D01*
X166069998Y-148173963D01*
X166145869Y-148164267D01*
X166213653Y-148135180D01*
X166273352Y-148086701D01*
X166284321Y-148074678D01*
X166326294Y-148009699D01*
X166352071Y-147936952D01*
X166365723Y-147861729D01*
X166371065Y-147775706D01*
X166371150Y-147762536D01*
X166366872Y-147678524D01*
X166354039Y-147604085D01*
X166328898Y-147530732D01*
X166287257Y-147463154D01*
X166281757Y-147456622D01*
X166222537Y-147402139D01*
X166156163Y-147367836D01*
X166082632Y-147353711D01*
X166067067Y-147353307D01*
X165993322Y-147363217D01*
X165920633Y-147397012D01*
X165862215Y-147448546D01*
X165856774Y-147454790D01*
X165814979Y-147519670D01*
X165789310Y-147590429D01*
X165775716Y-147662450D01*
X165770397Y-147743902D01*
X165770312Y-147756308D01*
X165580422Y-147756308D01*
X165583329Y-147692629D01*
X165593908Y-147618463D01*
X165614239Y-147538694D01*
X165636223Y-147479336D01*
X165672194Y-147409134D01*
X165716221Y-147348553D01*
X165774588Y-147292525D01*
X165800721Y-147273440D01*
X165871689Y-147235186D01*
X165941802Y-147212871D01*
X166017826Y-147202033D01*
X166053512Y-147200899D01*
X166135042Y-147208333D01*
G37*
G36*
X166818847Y-148326371D02*
G01*
X166818847Y-146802295D01*
X167004227Y-146802295D01*
X167004227Y-147350010D01*
X167064229Y-147291909D01*
X167130752Y-147248079D01*
X167203796Y-147218519D01*
X167283362Y-147203229D01*
X167331757Y-147200899D01*
X167411613Y-147206614D01*
X167483937Y-147223757D01*
X167543149Y-147249260D01*
X167607613Y-147294361D01*
X167655148Y-147351677D01*
X167671377Y-147382250D01*
X167695041Y-147456765D01*
X167706419Y-147535311D01*
X167710059Y-147608916D01*
X167710211Y-147628813D01*
X167710211Y-148326371D01*
X167524464Y-148326371D01*
X167524464Y-147627347D01*
X167518561Y-147547127D01*
X167498431Y-147476157D01*
X167464014Y-147423283D01*
X167401834Y-147379455D01*
X167326891Y-147360734D01*
X167293655Y-147359169D01*
X167218548Y-147368668D01*
X167147789Y-147397165D01*
X167138683Y-147402400D01*
X167079773Y-147449428D01*
X167036989Y-147514675D01*
X167035002Y-147519270D01*
X167013964Y-147594433D01*
X167005700Y-147668544D01*
X167004227Y-147722602D01*
X167004227Y-148326371D01*
X166818847Y-148326371D01*
G37*
G36*
X169132525Y-147206637D02*
G01*
X169211107Y-147226473D01*
X169283178Y-147260476D01*
X169303529Y-147273440D01*
X169365468Y-147324573D01*
X169417102Y-147387299D01*
X169454763Y-147453663D01*
X169465462Y-147477871D01*
X169491850Y-147554059D01*
X169509602Y-147634247D01*
X169518132Y-147708882D01*
X169520051Y-147766932D01*
X169516273Y-147849273D01*
X169504938Y-147927400D01*
X169486047Y-148001314D01*
X169459601Y-148071015D01*
X169421456Y-148141896D01*
X169374618Y-148202867D01*
X169319086Y-148253927D01*
X169284478Y-148278010D01*
X169219019Y-148312722D01*
X169144043Y-148337967D01*
X169066706Y-148349187D01*
X169043044Y-148349818D01*
X168965517Y-148342315D01*
X168895142Y-148319805D01*
X168876349Y-148310617D01*
X168813108Y-148269358D01*
X168758428Y-148215411D01*
X168755448Y-148211698D01*
X168755448Y-148748422D01*
X168570068Y-148748422D01*
X168570068Y-147782320D01*
X168737863Y-147782320D01*
X168740864Y-147857977D01*
X168751951Y-147936411D01*
X168774626Y-148013084D01*
X168812889Y-148082810D01*
X168823226Y-148095927D01*
X168880313Y-148149444D01*
X168951208Y-148185419D01*
X169030588Y-148197410D01*
X169104283Y-148187142D01*
X169171037Y-148156337D01*
X169230850Y-148104996D01*
X169241980Y-148092264D01*
X169284661Y-148023990D01*
X169310873Y-147947975D01*
X169324756Y-147869629D01*
X169329929Y-147793684D01*
X169330274Y-147766566D01*
X169327247Y-147691553D01*
X169316065Y-147613414D01*
X169293196Y-147536478D01*
X169254604Y-147465689D01*
X169244178Y-147452225D01*
X169187270Y-147396970D01*
X169116985Y-147359826D01*
X169038648Y-147347445D01*
X168960496Y-147360606D01*
X168895008Y-147395410D01*
X168840597Y-147445333D01*
X168829088Y-147458820D01*
X168789177Y-147520804D01*
X168760669Y-147595382D01*
X168745079Y-147670969D01*
X168738219Y-147756197D01*
X168737863Y-147782320D01*
X168570068Y-147782320D01*
X168570068Y-147224347D01*
X168738962Y-147224347D01*
X168738962Y-147369061D01*
X168785914Y-147312011D01*
X168841662Y-147263463D01*
X168873784Y-147243031D01*
X168945852Y-147214230D01*
X169023572Y-147201928D01*
X169056233Y-147200899D01*
X169132525Y-147206637D01*
G37*
G36*
X170275334Y-147203537D02*
G01*
X170348478Y-147212653D01*
X170422744Y-147232187D01*
X170428268Y-147234239D01*
X170495978Y-147266386D01*
X170554252Y-147314283D01*
X170556862Y-147317403D01*
X170595553Y-147382331D01*
X170614747Y-147444532D01*
X170622153Y-147522340D01*
X170623870Y-147601131D01*
X170623906Y-147616357D01*
X170623906Y-147865118D01*
X170624192Y-147941736D01*
X170625291Y-148021351D01*
X170627616Y-148097241D01*
X170632882Y-148173906D01*
X170635630Y-148194113D01*
X170654990Y-148265743D01*
X170682891Y-148326371D01*
X170489084Y-148326371D01*
X170463131Y-148253341D01*
X170452081Y-148187885D01*
X170394752Y-148233641D01*
X170332413Y-148274828D01*
X170265493Y-148308399D01*
X170253512Y-148313181D01*
X170180113Y-148335507D01*
X170102799Y-148347528D01*
X170049081Y-148349818D01*
X169974200Y-148345558D01*
X169898369Y-148330256D01*
X169825484Y-148299740D01*
X169771743Y-148260791D01*
X169720738Y-148200320D01*
X169688624Y-148130188D01*
X169675401Y-148050397D01*
X169675023Y-148033279D01*
X169675668Y-148027417D01*
X169872859Y-148027417D01*
X169888679Y-148100471D01*
X169928913Y-148153080D01*
X169993157Y-148189107D01*
X170067198Y-148202488D01*
X170093411Y-148203272D01*
X170170519Y-148196626D01*
X170246379Y-148174426D01*
X170283920Y-148156011D01*
X170344473Y-148111570D01*
X170393320Y-148050862D01*
X170406652Y-148025952D01*
X170428215Y-147953169D01*
X170435961Y-147875700D01*
X170436694Y-147838373D01*
X170436694Y-147769497D01*
X170363657Y-147793733D01*
X170291060Y-147811421D01*
X170217206Y-147825659D01*
X170133711Y-147838740D01*
X170057358Y-147851946D01*
X169984726Y-147871317D01*
X169971778Y-147876475D01*
X169910902Y-147920956D01*
X169898505Y-147937658D01*
X169873761Y-148009192D01*
X169872859Y-148027417D01*
X169675668Y-148027417D01*
X169683073Y-147960169D01*
X169709405Y-147889106D01*
X169711659Y-147884902D01*
X169753883Y-147824268D01*
X169807280Y-147777190D01*
X169874580Y-147739566D01*
X169941003Y-147715641D01*
X170014720Y-147700381D01*
X170092300Y-147689130D01*
X170105867Y-147687431D01*
X170185925Y-147676904D01*
X170268809Y-147663711D01*
X170349667Y-147647430D01*
X170422951Y-147627582D01*
X170436694Y-147622951D01*
X170437427Y-147574591D01*
X170430059Y-147499561D01*
X170400130Y-147432000D01*
X170385037Y-147415955D01*
X170321993Y-147377779D01*
X170247096Y-147358263D01*
X170173644Y-147353307D01*
X170098590Y-147357600D01*
X170026187Y-147374087D01*
X169980571Y-147397271D01*
X169929265Y-147453299D01*
X169896261Y-147525819D01*
X169888247Y-147552609D01*
X169706896Y-147527696D01*
X169727747Y-147455270D01*
X169758985Y-147388011D01*
X169788229Y-147345613D01*
X169842652Y-147294377D01*
X169907593Y-147256527D01*
X169951994Y-147238635D01*
X170029820Y-147217151D01*
X170107558Y-147205358D01*
X170183211Y-147201047D01*
X170200755Y-147200899D01*
X170275334Y-147203537D01*
G37*
G36*
X170831635Y-148003237D02*
G01*
X171015183Y-147974661D01*
X171034452Y-148048386D01*
X171072768Y-148112325D01*
X171100912Y-148139891D01*
X171167614Y-148177133D01*
X171245607Y-148194658D01*
X171298383Y-148197410D01*
X171371856Y-148192294D01*
X171443022Y-148172648D01*
X171488159Y-148145020D01*
X171534596Y-148087684D01*
X171550075Y-148021189D01*
X171526408Y-147949519D01*
X171495120Y-147921172D01*
X171422687Y-147890876D01*
X171350230Y-147869481D01*
X171305710Y-147857791D01*
X171233591Y-147838909D01*
X171160586Y-147818117D01*
X171084343Y-147793342D01*
X171022877Y-147768398D01*
X170957404Y-147726742D01*
X170906021Y-147668467D01*
X170903442Y-147664350D01*
X170872942Y-147594192D01*
X170862776Y-147517072D01*
X170872185Y-147442218D01*
X170896115Y-147381151D01*
X170938465Y-147320687D01*
X170987340Y-147277470D01*
X171053686Y-147241177D01*
X171105309Y-147223248D01*
X171177710Y-147207207D01*
X171254781Y-147200987D01*
X171265410Y-147200899D01*
X171342897Y-147204477D01*
X171420943Y-147216677D01*
X171491457Y-147237536D01*
X171562233Y-147271596D01*
X171619655Y-147317878D01*
X171635438Y-147336821D01*
X171672618Y-147404891D01*
X171694423Y-147478993D01*
X171699185Y-147504615D01*
X171517835Y-147529162D01*
X171493930Y-147455431D01*
X171446394Y-147399835D01*
X171380046Y-147366439D01*
X171305224Y-147354034D01*
X171278965Y-147353307D01*
X171199719Y-147358329D01*
X171128390Y-147377212D01*
X171096516Y-147395805D01*
X171049604Y-147454653D01*
X171041928Y-147495456D01*
X171064642Y-147560669D01*
X171124028Y-147605389D01*
X171135717Y-147610495D01*
X171206883Y-147632234D01*
X171282914Y-147653557D01*
X171299482Y-147658122D01*
X171379857Y-147680291D01*
X171457761Y-147703395D01*
X171527612Y-147726541D01*
X171573889Y-147744584D01*
X171639641Y-147782864D01*
X171693451Y-147838426D01*
X171696254Y-147842403D01*
X171728073Y-147909352D01*
X171740195Y-147984185D01*
X171740584Y-148001772D01*
X171731636Y-148075864D01*
X171704790Y-148146328D01*
X171686363Y-148177627D01*
X171639170Y-148233972D01*
X171578377Y-148279911D01*
X171530291Y-148304755D01*
X171457066Y-148330411D01*
X171384939Y-148344493D01*
X171307515Y-148349774D01*
X171299482Y-148349818D01*
X171223091Y-148346752D01*
X171142986Y-148335427D01*
X171063330Y-148312266D01*
X170996360Y-148278206D01*
X170974517Y-148262623D01*
X170918038Y-148206705D01*
X170874310Y-148137455D01*
X170846146Y-148064709D01*
X170831635Y-148003237D01*
G37*
G36*
X171880902Y-148003237D02*
G01*
X172064450Y-147974661D01*
X172083719Y-148048386D01*
X172122035Y-148112325D01*
X172150180Y-148139891D01*
X172216881Y-148177133D01*
X172294874Y-148194658D01*
X172347650Y-148197410D01*
X172421123Y-148192294D01*
X172492290Y-148172648D01*
X172537427Y-148145020D01*
X172583863Y-148087684D01*
X172599342Y-148021189D01*
X172575675Y-147949519D01*
X172544388Y-147921172D01*
X172471955Y-147890876D01*
X172399497Y-147869481D01*
X172354977Y-147857791D01*
X172282858Y-147838909D01*
X172209853Y-147818117D01*
X172133610Y-147793342D01*
X172072144Y-147768398D01*
X172006671Y-147726742D01*
X171955288Y-147668467D01*
X171952709Y-147664350D01*
X171922210Y-147594192D01*
X171912043Y-147517072D01*
X171921452Y-147442218D01*
X171945382Y-147381151D01*
X171987733Y-147320687D01*
X172036607Y-147277470D01*
X172102953Y-147241177D01*
X172154576Y-147223248D01*
X172226978Y-147207207D01*
X172304048Y-147200987D01*
X172314677Y-147200899D01*
X172392165Y-147204477D01*
X172470211Y-147216677D01*
X172540724Y-147237536D01*
X172611500Y-147271596D01*
X172668922Y-147317878D01*
X172684705Y-147336821D01*
X172721885Y-147404891D01*
X172743690Y-147478993D01*
X172748453Y-147504615D01*
X172567102Y-147529162D01*
X172543197Y-147455431D01*
X172495661Y-147399835D01*
X172429313Y-147366439D01*
X172354491Y-147354034D01*
X172328233Y-147353307D01*
X172248986Y-147358329D01*
X172177657Y-147377212D01*
X172145783Y-147395805D01*
X172098872Y-147454653D01*
X172091195Y-147495456D01*
X172113910Y-147560669D01*
X172173295Y-147605389D01*
X172184984Y-147610495D01*
X172256150Y-147632234D01*
X172332181Y-147653557D01*
X172348749Y-147658122D01*
X172429124Y-147680291D01*
X172507028Y-147703395D01*
X172576880Y-147726541D01*
X172623156Y-147744584D01*
X172688908Y-147782864D01*
X172742718Y-147838426D01*
X172745522Y-147842403D01*
X172777341Y-147909352D01*
X172789462Y-147984185D01*
X172789852Y-148001772D01*
X172780903Y-148075864D01*
X172754057Y-148146328D01*
X172735630Y-148177627D01*
X172688438Y-148233972D01*
X172627644Y-148279911D01*
X172579559Y-148304755D01*
X172506334Y-148330411D01*
X172434206Y-148344493D01*
X172356783Y-148349774D01*
X172348749Y-148349818D01*
X172272358Y-148346752D01*
X172192253Y-148335427D01*
X172112598Y-148312266D01*
X172045627Y-148278206D01*
X172023784Y-148262623D01*
X171967305Y-148206705D01*
X171923578Y-148137455D01*
X171895413Y-148064709D01*
X171880902Y-148003237D01*
G37*
G36*
X151403937Y-147358178D02*
G01*
X151458491Y-147300791D01*
X151519252Y-147257499D01*
X151596291Y-147225282D01*
X151670350Y-147212194D01*
X151703989Y-147210899D01*
X151778058Y-147216670D01*
X151854927Y-147235944D01*
X151894865Y-147251932D01*
X151962832Y-147290476D01*
X152020278Y-147340024D01*
X152043243Y-147366604D01*
X152086400Y-147431813D01*
X152118832Y-147501021D01*
X152134468Y-147545390D01*
X152153240Y-147618906D01*
X152164220Y-147695886D01*
X152167440Y-147768872D01*
X152164041Y-147854013D01*
X152153845Y-147932892D01*
X152136850Y-148005510D01*
X152107484Y-148084387D01*
X152068329Y-148154248D01*
X152028222Y-148205578D01*
X151974182Y-148257996D01*
X151906154Y-148305442D01*
X151832761Y-148338128D01*
X151754004Y-148356052D01*
X151694464Y-148359818D01*
X151613813Y-148352087D01*
X151541122Y-148328893D01*
X151476390Y-148290237D01*
X151419616Y-148236118D01*
X151390748Y-148198251D01*
X151390748Y-148336371D01*
X151218557Y-148336371D01*
X151218557Y-147776932D01*
X151388550Y-147776932D01*
X151391109Y-147858387D01*
X151400303Y-147938598D01*
X151418638Y-148012413D01*
X151442039Y-148063429D01*
X151489689Y-148126421D01*
X151552547Y-148175774D01*
X151625200Y-148202348D01*
X151679077Y-148207410D01*
X151751877Y-148197035D01*
X151818238Y-148165908D01*
X151878158Y-148114030D01*
X151889370Y-148101165D01*
X151932228Y-148033142D01*
X151958549Y-147958810D01*
X151972489Y-147883063D01*
X151977943Y-147797324D01*
X151978030Y-147784260D01*
X151975042Y-147707319D01*
X151964002Y-147627615D01*
X151941425Y-147549791D01*
X151903326Y-147479154D01*
X151893033Y-147465889D01*
X151836440Y-147411793D01*
X151766171Y-147375429D01*
X151687503Y-147363307D01*
X151614703Y-147373683D01*
X151548342Y-147404809D01*
X151488421Y-147456687D01*
X151477210Y-147469553D01*
X151434352Y-147536822D01*
X151408031Y-147609219D01*
X151394091Y-147682296D01*
X151388636Y-147764454D01*
X151388550Y-147776932D01*
X151218557Y-147776932D01*
X151218557Y-146812295D01*
X151403937Y-146812295D01*
X151403937Y-147358178D01*
G37*
G36*
X152924922Y-147213537D02*
G01*
X152998066Y-147222653D01*
X153072332Y-147242187D01*
X153077856Y-147244239D01*
X153145566Y-147276386D01*
X153203839Y-147324283D01*
X153206449Y-147327403D01*
X153245141Y-147392331D01*
X153264335Y-147454532D01*
X153271741Y-147532340D01*
X153273458Y-147611131D01*
X153273494Y-147626357D01*
X153273494Y-147875118D01*
X153273780Y-147951736D01*
X153274879Y-148031351D01*
X153277203Y-148107241D01*
X153282470Y-148183906D01*
X153285218Y-148204113D01*
X153304577Y-148275743D01*
X153332479Y-148336371D01*
X153138672Y-148336371D01*
X153112719Y-148263341D01*
X153101669Y-148197885D01*
X153044340Y-148243641D01*
X152982001Y-148284828D01*
X152915081Y-148318399D01*
X152903100Y-148323181D01*
X152829701Y-148345507D01*
X152752387Y-148357528D01*
X152698668Y-148359818D01*
X152623788Y-148355558D01*
X152547956Y-148340256D01*
X152475072Y-148309740D01*
X152421331Y-148270791D01*
X152370326Y-148210320D01*
X152338212Y-148140188D01*
X152324988Y-148060397D01*
X152324611Y-148043279D01*
X152325256Y-148037417D01*
X152522447Y-148037417D01*
X152538267Y-148110471D01*
X152578501Y-148163080D01*
X152642745Y-148199107D01*
X152716786Y-148212488D01*
X152742999Y-148213272D01*
X152820107Y-148206626D01*
X152895966Y-148184426D01*
X152933508Y-148166011D01*
X152994061Y-148121570D01*
X153042907Y-148060862D01*
X153056240Y-148035952D01*
X153077803Y-147963169D01*
X153085548Y-147885700D01*
X153086282Y-147848373D01*
X153086282Y-147779497D01*
X153013245Y-147803733D01*
X152940648Y-147821421D01*
X152866794Y-147835659D01*
X152783299Y-147848740D01*
X152706946Y-147861946D01*
X152634314Y-147881317D01*
X152621366Y-147886475D01*
X152560490Y-147930956D01*
X152548093Y-147947658D01*
X152523349Y-148019192D01*
X152522447Y-148037417D01*
X152325256Y-148037417D01*
X152332661Y-147970169D01*
X152358993Y-147899106D01*
X152361247Y-147894902D01*
X152403470Y-147834268D01*
X152456868Y-147787190D01*
X152524168Y-147749566D01*
X152590591Y-147725641D01*
X152664308Y-147710381D01*
X152741888Y-147699130D01*
X152755455Y-147697431D01*
X152835513Y-147686904D01*
X152918397Y-147673711D01*
X152999255Y-147657430D01*
X153072539Y-147637582D01*
X153086282Y-147632951D01*
X153087015Y-147584591D01*
X153079647Y-147509561D01*
X153049717Y-147442000D01*
X153034625Y-147425955D01*
X152971581Y-147387779D01*
X152896684Y-147368263D01*
X152823232Y-147363307D01*
X152748178Y-147367600D01*
X152675775Y-147384087D01*
X152630158Y-147407271D01*
X152578853Y-147463299D01*
X152545849Y-147535819D01*
X152537835Y-147562609D01*
X152356484Y-147537696D01*
X152377335Y-147465270D01*
X152408573Y-147398011D01*
X152437817Y-147355613D01*
X152492240Y-147304377D01*
X152557181Y-147266527D01*
X152601582Y-147248635D01*
X152679408Y-147227151D01*
X152757145Y-147215358D01*
X152832799Y-147211047D01*
X152850343Y-147210899D01*
X152924922Y-147213537D01*
G37*
G36*
X153555595Y-148336371D02*
G01*
X153555595Y-147234347D01*
X153722290Y-147234347D01*
X153722290Y-147388952D01*
X153771264Y-147328442D01*
X153827786Y-147280451D01*
X153903267Y-147240285D01*
X153976142Y-147219420D01*
X154056565Y-147211073D01*
X154070703Y-147210899D01*
X154148413Y-147216825D01*
X154220803Y-147234602D01*
X154252419Y-147246803D01*
X154317124Y-147282246D01*
X154371323Y-147333400D01*
X154376617Y-147340592D01*
X154413572Y-147408300D01*
X154434502Y-147478345D01*
X154442507Y-147555255D01*
X154444670Y-147636064D01*
X154444761Y-147659696D01*
X154444761Y-148336371D01*
X154259380Y-148336371D01*
X154259380Y-147664458D01*
X154256341Y-147586869D01*
X154243992Y-147512777D01*
X154237765Y-147493733D01*
X154197579Y-147431766D01*
X154160828Y-147403241D01*
X154092861Y-147375690D01*
X154031502Y-147369169D01*
X153953956Y-147378130D01*
X153884029Y-147405014D01*
X153827070Y-147445006D01*
X153781668Y-147505750D01*
X153755184Y-147583239D01*
X153744002Y-147658455D01*
X153740975Y-147733335D01*
X153740975Y-148336371D01*
X153555595Y-148336371D01*
G37*
G36*
X155605403Y-148336371D02*
G01*
X155433578Y-148336371D01*
X155433578Y-148198251D01*
X155383233Y-148261205D01*
X155323563Y-148308697D01*
X155254565Y-148340726D01*
X155176241Y-148357293D01*
X155127297Y-148359818D01*
X155047592Y-148352734D01*
X154971965Y-148331482D01*
X154900416Y-148296062D01*
X154886596Y-148287278D01*
X154828861Y-148241953D01*
X154778893Y-148187587D01*
X154736692Y-148124178D01*
X154716603Y-148085045D01*
X154687559Y-148008843D01*
X154669721Y-147936000D01*
X154659394Y-147858348D01*
X154656519Y-147786458D01*
X154656550Y-147785725D01*
X154847029Y-147785725D01*
X154850146Y-147861498D01*
X154861661Y-147940360D01*
X154885211Y-148017909D01*
X154924953Y-148089113D01*
X154935689Y-148102630D01*
X154994214Y-148157885D01*
X155058965Y-148192676D01*
X155137380Y-148207308D01*
X155144883Y-148207410D01*
X155224176Y-148195592D01*
X155294812Y-148160136D01*
X155351512Y-148107393D01*
X155392599Y-148042610D01*
X155417833Y-147971060D01*
X155431196Y-147897672D01*
X155436426Y-147814222D01*
X155436509Y-147801479D01*
X155433456Y-147720811D01*
X155422179Y-147637411D01*
X155402591Y-147565546D01*
X155370031Y-147497539D01*
X155349680Y-147469186D01*
X155291742Y-147413351D01*
X155226004Y-147378196D01*
X155152466Y-147363721D01*
X155136823Y-147363307D01*
X155063400Y-147373253D01*
X154991808Y-147407170D01*
X154935064Y-147458890D01*
X154929827Y-147465156D01*
X154889802Y-147531543D01*
X154865222Y-147606173D01*
X154852203Y-147683532D01*
X154847352Y-147758799D01*
X154847029Y-147785725D01*
X154656550Y-147785725D01*
X154659931Y-147706109D01*
X154670166Y-147629562D01*
X154687225Y-147556816D01*
X154711107Y-147487871D01*
X154746131Y-147417401D01*
X154789791Y-147356843D01*
X154848431Y-147301180D01*
X154874872Y-147282340D01*
X154945648Y-147244667D01*
X155021504Y-147220946D01*
X155102440Y-147211179D01*
X155119237Y-147210899D01*
X155196041Y-147218095D01*
X155270774Y-147241937D01*
X155295458Y-147254497D01*
X155357559Y-147297443D01*
X155408579Y-147350627D01*
X155421121Y-147367703D01*
X155421121Y-146812295D01*
X155605403Y-146812295D01*
X155605403Y-148336371D01*
G37*
G36*
X157037242Y-147216637D02*
G01*
X157115824Y-147236473D01*
X157187895Y-147270476D01*
X157208246Y-147283440D01*
X157270185Y-147334573D01*
X157321819Y-147397299D01*
X157359480Y-147463663D01*
X157370179Y-147487871D01*
X157396567Y-147564059D01*
X157414319Y-147644247D01*
X157422848Y-147718882D01*
X157424768Y-147776932D01*
X157420989Y-147859273D01*
X157409655Y-147937400D01*
X157390764Y-148011314D01*
X157364317Y-148081015D01*
X157326173Y-148151896D01*
X157279335Y-148212867D01*
X157223803Y-148263927D01*
X157189195Y-148288010D01*
X157123736Y-148322722D01*
X157048760Y-148347967D01*
X156971423Y-148359187D01*
X156947761Y-148359818D01*
X156870234Y-148352315D01*
X156799859Y-148329805D01*
X156781066Y-148320617D01*
X156717825Y-148279358D01*
X156663145Y-148225411D01*
X156660165Y-148221698D01*
X156660165Y-148758422D01*
X156474785Y-148758422D01*
X156474785Y-147792320D01*
X156642580Y-147792320D01*
X156645581Y-147867977D01*
X156656668Y-147946411D01*
X156679343Y-148023084D01*
X156717606Y-148092810D01*
X156727943Y-148105927D01*
X156785030Y-148159444D01*
X156855925Y-148195419D01*
X156935305Y-148207410D01*
X157009000Y-148197142D01*
X157075754Y-148166337D01*
X157135567Y-148114996D01*
X157146697Y-148102264D01*
X157189378Y-148033990D01*
X157215590Y-147957975D01*
X157229473Y-147879629D01*
X157234646Y-147803684D01*
X157234991Y-147776566D01*
X157231964Y-147701553D01*
X157220782Y-147623414D01*
X157197913Y-147546478D01*
X157159321Y-147475689D01*
X157148895Y-147462225D01*
X157091987Y-147406970D01*
X157021702Y-147369826D01*
X156943365Y-147357445D01*
X156865213Y-147370606D01*
X156799725Y-147405410D01*
X156745314Y-147455333D01*
X156733805Y-147468820D01*
X156693894Y-147530804D01*
X156665386Y-147605382D01*
X156649796Y-147680969D01*
X156642936Y-147766197D01*
X156642580Y-147792320D01*
X156474785Y-147792320D01*
X156474785Y-147234347D01*
X156643679Y-147234347D01*
X156643679Y-147379061D01*
X156690631Y-147322011D01*
X156746379Y-147273463D01*
X156778501Y-147253031D01*
X156850569Y-147224230D01*
X156928289Y-147211928D01*
X156960950Y-147210899D01*
X157037242Y-147216637D01*
G37*
G36*
X158180051Y-147213537D02*
G01*
X158253195Y-147222653D01*
X158327461Y-147242187D01*
X158332985Y-147244239D01*
X158400695Y-147276386D01*
X158458968Y-147324283D01*
X158461578Y-147327403D01*
X158500270Y-147392331D01*
X158519464Y-147454532D01*
X158526870Y-147532340D01*
X158528587Y-147611131D01*
X158528623Y-147626357D01*
X158528623Y-147875118D01*
X158528909Y-147951736D01*
X158530008Y-148031351D01*
X158532333Y-148107241D01*
X158537599Y-148183906D01*
X158540347Y-148204113D01*
X158559706Y-148275743D01*
X158587608Y-148336371D01*
X158393801Y-148336371D01*
X158367848Y-148263341D01*
X158356798Y-148197885D01*
X158299469Y-148243641D01*
X158237130Y-148284828D01*
X158170210Y-148318399D01*
X158158229Y-148323181D01*
X158084830Y-148345507D01*
X158007516Y-148357528D01*
X157953798Y-148359818D01*
X157878917Y-148355558D01*
X157803086Y-148340256D01*
X157730201Y-148309740D01*
X157676460Y-148270791D01*
X157625455Y-148210320D01*
X157593341Y-148140188D01*
X157580117Y-148060397D01*
X157579740Y-148043279D01*
X157580385Y-148037417D01*
X157777576Y-148037417D01*
X157793396Y-148110471D01*
X157833630Y-148163080D01*
X157897874Y-148199107D01*
X157971915Y-148212488D01*
X157998128Y-148213272D01*
X158075236Y-148206626D01*
X158151095Y-148184426D01*
X158188637Y-148166011D01*
X158249190Y-148121570D01*
X158298037Y-148060862D01*
X158311369Y-148035952D01*
X158332932Y-147963169D01*
X158340678Y-147885700D01*
X158341411Y-147848373D01*
X158341411Y-147779497D01*
X158268374Y-147803733D01*
X158195777Y-147821421D01*
X158121923Y-147835659D01*
X158038428Y-147848740D01*
X157962075Y-147861946D01*
X157889443Y-147881317D01*
X157876495Y-147886475D01*
X157815619Y-147930956D01*
X157803222Y-147947658D01*
X157778478Y-148019192D01*
X157777576Y-148037417D01*
X157580385Y-148037417D01*
X157587790Y-147970169D01*
X157614122Y-147899106D01*
X157616376Y-147894902D01*
X157658600Y-147834268D01*
X157711997Y-147787190D01*
X157779297Y-147749566D01*
X157845720Y-147725641D01*
X157919437Y-147710381D01*
X157997017Y-147699130D01*
X158010584Y-147697431D01*
X158090642Y-147686904D01*
X158173526Y-147673711D01*
X158254384Y-147657430D01*
X158327668Y-147637582D01*
X158341411Y-147632951D01*
X158342144Y-147584591D01*
X158334776Y-147509561D01*
X158304846Y-147442000D01*
X158289754Y-147425955D01*
X158226710Y-147387779D01*
X158151813Y-147368263D01*
X158078361Y-147363307D01*
X158003307Y-147367600D01*
X157930904Y-147384087D01*
X157885287Y-147407271D01*
X157833982Y-147463299D01*
X157800978Y-147535819D01*
X157792964Y-147562609D01*
X157611613Y-147537696D01*
X157632464Y-147465270D01*
X157663702Y-147398011D01*
X157692946Y-147355613D01*
X157747369Y-147304377D01*
X157812310Y-147266527D01*
X157856711Y-147248635D01*
X157934537Y-147227151D01*
X158012275Y-147215358D01*
X158087928Y-147211047D01*
X158105472Y-147210899D01*
X158180051Y-147213537D01*
G37*
G36*
X158736352Y-148013237D02*
G01*
X158919900Y-147984661D01*
X158939169Y-148058386D01*
X158977484Y-148122325D01*
X159005629Y-148149891D01*
X159072331Y-148187133D01*
X159150324Y-148204658D01*
X159203100Y-148207410D01*
X159276573Y-148202294D01*
X159347739Y-148182648D01*
X159392876Y-148155020D01*
X159439313Y-148097684D01*
X159454792Y-148031189D01*
X159431125Y-147959519D01*
X159399837Y-147931172D01*
X159327404Y-147900876D01*
X159254947Y-147879481D01*
X159210427Y-147867791D01*
X159138308Y-147848909D01*
X159065303Y-147828117D01*
X158989060Y-147803342D01*
X158927594Y-147778398D01*
X158862121Y-147736742D01*
X158810738Y-147678467D01*
X158808159Y-147674350D01*
X158777659Y-147604192D01*
X158767493Y-147527072D01*
X158776902Y-147452218D01*
X158800832Y-147391151D01*
X158843182Y-147330687D01*
X158892056Y-147287470D01*
X158958403Y-147251177D01*
X159010026Y-147233248D01*
X159082427Y-147217207D01*
X159159498Y-147210987D01*
X159170127Y-147210899D01*
X159247614Y-147214477D01*
X159325660Y-147226677D01*
X159396174Y-147247536D01*
X159466950Y-147281596D01*
X159524372Y-147327878D01*
X159540155Y-147346821D01*
X159577335Y-147414891D01*
X159599140Y-147488993D01*
X159603902Y-147514615D01*
X159422552Y-147539162D01*
X159398647Y-147465431D01*
X159351111Y-147409835D01*
X159284763Y-147376439D01*
X159209940Y-147364034D01*
X159183682Y-147363307D01*
X159104436Y-147368329D01*
X159033107Y-147387212D01*
X159001233Y-147405805D01*
X158954321Y-147464653D01*
X158946645Y-147505456D01*
X158969359Y-147570669D01*
X159028745Y-147615389D01*
X159040434Y-147620495D01*
X159111600Y-147642234D01*
X159187631Y-147663557D01*
X159204199Y-147668122D01*
X159284574Y-147690291D01*
X159362478Y-147713395D01*
X159432329Y-147736541D01*
X159478606Y-147754584D01*
X159544358Y-147792864D01*
X159598168Y-147848426D01*
X159600971Y-147852403D01*
X159632790Y-147919352D01*
X159644912Y-147994185D01*
X159645301Y-148011772D01*
X159636353Y-148085864D01*
X159609506Y-148156328D01*
X159591080Y-148187627D01*
X159543887Y-148243972D01*
X159483094Y-148289911D01*
X159435008Y-148314755D01*
X159361783Y-148340411D01*
X159289655Y-148354493D01*
X159212232Y-148359774D01*
X159204199Y-148359818D01*
X159127808Y-148356752D01*
X159047703Y-148345427D01*
X158968047Y-148322266D01*
X158901077Y-148288206D01*
X158879234Y-148272623D01*
X158822755Y-148216705D01*
X158779027Y-148147455D01*
X158750863Y-148074709D01*
X158736352Y-148013237D01*
G37*
G36*
X159785619Y-148013237D02*
G01*
X159969167Y-147984661D01*
X159988436Y-148058386D01*
X160026752Y-148122325D01*
X160054897Y-148149891D01*
X160121598Y-148187133D01*
X160199591Y-148204658D01*
X160252367Y-148207410D01*
X160325840Y-148202294D01*
X160397006Y-148182648D01*
X160442144Y-148155020D01*
X160488580Y-148097684D01*
X160504059Y-148031189D01*
X160480392Y-147959519D01*
X160449105Y-147931172D01*
X160376671Y-147900876D01*
X160304214Y-147879481D01*
X160259694Y-147867791D01*
X160187575Y-147848909D01*
X160114570Y-147828117D01*
X160038327Y-147803342D01*
X159976861Y-147778398D01*
X159911388Y-147736742D01*
X159860005Y-147678467D01*
X159857426Y-147674350D01*
X159826927Y-147604192D01*
X159816760Y-147527072D01*
X159826169Y-147452218D01*
X159850099Y-147391151D01*
X159892450Y-147330687D01*
X159941324Y-147287470D01*
X160007670Y-147251177D01*
X160059293Y-147233248D01*
X160131695Y-147217207D01*
X160208765Y-147210987D01*
X160219394Y-147210899D01*
X160296882Y-147214477D01*
X160374928Y-147226677D01*
X160445441Y-147247536D01*
X160516217Y-147281596D01*
X160573639Y-147327878D01*
X160589422Y-147346821D01*
X160626602Y-147414891D01*
X160648407Y-147488993D01*
X160653170Y-147514615D01*
X160471819Y-147539162D01*
X160447914Y-147465431D01*
X160400378Y-147409835D01*
X160334030Y-147376439D01*
X160259208Y-147364034D01*
X160232950Y-147363307D01*
X160153703Y-147368329D01*
X160082374Y-147387212D01*
X160050500Y-147405805D01*
X160003589Y-147464653D01*
X159995912Y-147505456D01*
X160018627Y-147570669D01*
X160078012Y-147615389D01*
X160089701Y-147620495D01*
X160160867Y-147642234D01*
X160236898Y-147663557D01*
X160253466Y-147668122D01*
X160333841Y-147690291D01*
X160411745Y-147713395D01*
X160481597Y-147736541D01*
X160527873Y-147754584D01*
X160593625Y-147792864D01*
X160647435Y-147848426D01*
X160650239Y-147852403D01*
X160682058Y-147919352D01*
X160694179Y-147994185D01*
X160694569Y-148011772D01*
X160685620Y-148085864D01*
X160658774Y-148156328D01*
X160640347Y-148187627D01*
X160593154Y-148243972D01*
X160532361Y-148289911D01*
X160484276Y-148314755D01*
X160411051Y-148340411D01*
X160338923Y-148354493D01*
X160261500Y-148359774D01*
X160253466Y-148359818D01*
X160177075Y-148356752D01*
X160096970Y-148345427D01*
X160017315Y-148322266D01*
X159950344Y-148288206D01*
X159928501Y-148272623D01*
X159872022Y-148216705D01*
X159828295Y-148147455D01*
X159800130Y-148074709D01*
X159785619Y-148013237D01*
G37*
D11*
G36*
X130186114Y-107612291D02*
G01*
X130186114Y-106641525D01*
X130019356Y-106641525D01*
X130019356Y-106492634D01*
X130186114Y-106492634D01*
X130186114Y-106373522D01*
X130188888Y-106296873D01*
X130201218Y-106220240D01*
X130205842Y-106205648D01*
X130243344Y-106138927D01*
X130301504Y-106086163D01*
X130372231Y-106054612D01*
X130449526Y-106041630D01*
X130493945Y-106040007D01*
X130572036Y-106044179D01*
X130645801Y-106054542D01*
X130669635Y-106058991D01*
X130641346Y-106223143D01*
X130567209Y-106213952D01*
X130530423Y-106212720D01*
X130453247Y-106223226D01*
X130408705Y-106249943D01*
X130378316Y-106321451D01*
X130373344Y-106388783D01*
X130373344Y-106492634D01*
X130589979Y-106492634D01*
X130589979Y-106641525D01*
X130373344Y-106641525D01*
X130373344Y-107612291D01*
X130186114Y-107612291D01*
G37*
G36*
X130731425Y-107612291D02*
G01*
X130731425Y-106492634D01*
X130901160Y-106492634D01*
X130901160Y-106664231D01*
X130940658Y-106597513D01*
X130989071Y-106534584D01*
X131020645Y-106506779D01*
X131090000Y-106475078D01*
X131141990Y-106468812D01*
X131219905Y-106478887D01*
X131292698Y-106506071D01*
X131335548Y-106529857D01*
X131270781Y-106705920D01*
X131201547Y-106675490D01*
X131132313Y-106665347D01*
X131056664Y-106681538D01*
X131021389Y-106702942D01*
X130971022Y-106760812D01*
X130951411Y-106806421D01*
X130932130Y-106884746D01*
X130922274Y-106961233D01*
X130919771Y-107027151D01*
X130919771Y-107612291D01*
X130731425Y-107612291D01*
G37*
G36*
X131980947Y-106474269D02*
G01*
X132055922Y-106490639D01*
X132136115Y-106523532D01*
X132208471Y-106571280D01*
X132264252Y-106624030D01*
X132312322Y-106686673D01*
X132350446Y-106758189D01*
X132378624Y-106838576D01*
X132394509Y-106912344D01*
X132403488Y-106992272D01*
X132405698Y-107060651D01*
X132404954Y-107112019D01*
X131575634Y-107112019D01*
X131584148Y-107186341D01*
X131603562Y-107261467D01*
X131637749Y-107333470D01*
X131679113Y-107386349D01*
X131741977Y-107436403D01*
X131813783Y-107467919D01*
X131894531Y-107480896D01*
X131911754Y-107481267D01*
X131990855Y-107472359D01*
X132064910Y-107442843D01*
X132088561Y-107427294D01*
X132143103Y-107372814D01*
X132184508Y-107303658D01*
X132204696Y-107254953D01*
X132399742Y-107278776D01*
X132375791Y-107349401D01*
X132339214Y-107421218D01*
X132292819Y-107483542D01*
X132236607Y-107536375D01*
X132228891Y-107542312D01*
X132162239Y-107583350D01*
X132086979Y-107612663D01*
X132014066Y-107628693D01*
X131934563Y-107635747D01*
X131910637Y-107636113D01*
X131822756Y-107630813D01*
X131741967Y-107614914D01*
X131668270Y-107588414D01*
X131601666Y-107551315D01*
X131542155Y-107503616D01*
X131523894Y-107485361D01*
X131475319Y-107424424D01*
X131436793Y-107354954D01*
X131408318Y-107276953D01*
X131389893Y-107190419D01*
X131382216Y-107111790D01*
X131380960Y-107061768D01*
X131384486Y-106976794D01*
X131387119Y-106957173D01*
X131586056Y-106957173D01*
X132206929Y-106957173D01*
X132196189Y-106880508D01*
X132173225Y-106802641D01*
X132135834Y-106737559D01*
X132080954Y-106682500D01*
X132010101Y-106642456D01*
X131937443Y-106625438D01*
X131902448Y-106623658D01*
X131825291Y-106632527D01*
X131749739Y-106662772D01*
X131689529Y-106708893D01*
X131683952Y-106714481D01*
X131636486Y-106777207D01*
X131604359Y-106851856D01*
X131588561Y-106929234D01*
X131586056Y-106957173D01*
X131387119Y-106957173D01*
X131395063Y-106897981D01*
X131412693Y-106825330D01*
X131443158Y-106746281D01*
X131483777Y-106676105D01*
X131525383Y-106624402D01*
X131582565Y-106571526D01*
X131645793Y-106529589D01*
X131715066Y-106498593D01*
X131790385Y-106478536D01*
X131871750Y-106469420D01*
X131900215Y-106468812D01*
X131980947Y-106474269D01*
G37*
G36*
X133107872Y-106474923D02*
G01*
X133186632Y-106497501D01*
X133256950Y-106536714D01*
X133318825Y-106592564D01*
X133357852Y-106642642D01*
X133357852Y-106492634D01*
X133527587Y-106492634D01*
X133527587Y-108041095D01*
X133339241Y-108041095D01*
X133339241Y-107492806D01*
X133286478Y-107549384D01*
X133220955Y-107592961D01*
X133216034Y-107595540D01*
X133145063Y-107623276D01*
X133070244Y-107635479D01*
X133048160Y-107636113D01*
X132964161Y-107628525D01*
X132885433Y-107605762D01*
X132811978Y-107567823D01*
X132743796Y-107514709D01*
X132707201Y-107477545D01*
X132658752Y-107413807D01*
X132620327Y-107341798D01*
X132591926Y-107261520D01*
X132575915Y-107188303D01*
X132566866Y-107109343D01*
X132564885Y-107049485D01*
X132758196Y-107049485D01*
X132761363Y-107126649D01*
X132773063Y-107207081D01*
X132796990Y-107286353D01*
X132832177Y-107352133D01*
X132848275Y-107373321D01*
X132901741Y-107425502D01*
X132967710Y-107463452D01*
X133040585Y-107480318D01*
X133063794Y-107481267D01*
X133142705Y-107469127D01*
X133213610Y-107432709D01*
X133271124Y-107378533D01*
X133313048Y-107312294D01*
X133338796Y-107239227D01*
X133352432Y-107164340D01*
X133357768Y-107079228D01*
X133357852Y-107066235D01*
X133354633Y-106986384D01*
X133342740Y-106903081D01*
X133322084Y-106830395D01*
X133287746Y-106760323D01*
X133266285Y-106730487D01*
X133212246Y-106675967D01*
X133146263Y-106636316D01*
X133066460Y-106618143D01*
X133051138Y-106617702D01*
X132971344Y-106630106D01*
X132900346Y-106667316D01*
X132843436Y-106722670D01*
X132802231Y-106790809D01*
X132776926Y-106866999D01*
X132763524Y-106945727D01*
X132758529Y-107022167D01*
X132758196Y-107049485D01*
X132564885Y-107049485D01*
X132564639Y-107042040D01*
X132568268Y-106960081D01*
X132579155Y-106882448D01*
X132597301Y-106809143D01*
X132622706Y-106740165D01*
X132659491Y-106670122D01*
X132704520Y-106610325D01*
X132764222Y-106555901D01*
X132790952Y-106537674D01*
X132862155Y-106501360D01*
X132937574Y-106478496D01*
X133017210Y-106469081D01*
X133033643Y-106468812D01*
X133107872Y-106474923D01*
G37*
D12*
G36*
X165714218Y-68516270D02*
G01*
X165788012Y-68532383D01*
X165866942Y-68564758D01*
X165938159Y-68611754D01*
X165993062Y-68663673D01*
X166040374Y-68725330D01*
X166077898Y-68795719D01*
X166105633Y-68874841D01*
X166121268Y-68947446D01*
X166130105Y-69026116D01*
X166132280Y-69093419D01*
X166131547Y-69143977D01*
X165315288Y-69143977D01*
X165323668Y-69217129D01*
X165342776Y-69291072D01*
X165376425Y-69361941D01*
X165417137Y-69413987D01*
X165479011Y-69463253D01*
X165549687Y-69494273D01*
X165629163Y-69507045D01*
X165646115Y-69507410D01*
X165723970Y-69498643D01*
X165796859Y-69469591D01*
X165820138Y-69454287D01*
X165873821Y-69400665D01*
X165914573Y-69332598D01*
X165934443Y-69284661D01*
X166126418Y-69308108D01*
X166102844Y-69377621D01*
X166066843Y-69448307D01*
X166021179Y-69509650D01*
X165965852Y-69561651D01*
X165958257Y-69567494D01*
X165892655Y-69607886D01*
X165818581Y-69636737D01*
X165746816Y-69652515D01*
X165668565Y-69659457D01*
X165645016Y-69659818D01*
X165558518Y-69654601D01*
X165479001Y-69638952D01*
X165406465Y-69612870D01*
X165340910Y-69576355D01*
X165282337Y-69529408D01*
X165264363Y-69511440D01*
X165216553Y-69451462D01*
X165178634Y-69383087D01*
X165150607Y-69306314D01*
X165132472Y-69221142D01*
X165124916Y-69143752D01*
X165123679Y-69094518D01*
X165127150Y-69010882D01*
X165129742Y-68991569D01*
X165325546Y-68991569D01*
X165936642Y-68991569D01*
X165926070Y-68916112D01*
X165903469Y-68839471D01*
X165866666Y-68775414D01*
X165812651Y-68721222D01*
X165742913Y-68681809D01*
X165671400Y-68665059D01*
X165636956Y-68663307D01*
X165561014Y-68672037D01*
X165486652Y-68701805D01*
X165427389Y-68747200D01*
X165421900Y-68752700D01*
X165375181Y-68814438D01*
X165343561Y-68887911D01*
X165328012Y-68964071D01*
X165325546Y-68991569D01*
X165129742Y-68991569D01*
X165137561Y-68933310D01*
X165154913Y-68861803D01*
X165184898Y-68783999D01*
X165224877Y-68714928D01*
X165265829Y-68664040D01*
X165322110Y-68611996D01*
X165384342Y-68570720D01*
X165452524Y-68540211D01*
X165526657Y-68520471D01*
X165606741Y-68511498D01*
X165634758Y-68510899D01*
X165714218Y-68516270D01*
G37*
G36*
X166353564Y-69636371D02*
G01*
X166353564Y-68534347D01*
X166520260Y-68534347D01*
X166520260Y-68688952D01*
X166569234Y-68628442D01*
X166625756Y-68580451D01*
X166701237Y-68540285D01*
X166774112Y-68519420D01*
X166854535Y-68511073D01*
X166868672Y-68510899D01*
X166946383Y-68516825D01*
X167018773Y-68534602D01*
X167050389Y-68546803D01*
X167115094Y-68582246D01*
X167169293Y-68633400D01*
X167174587Y-68640592D01*
X167211542Y-68708300D01*
X167232472Y-68778345D01*
X167240476Y-68855255D01*
X167242640Y-68936064D01*
X167242730Y-68959696D01*
X167242730Y-69636371D01*
X167057350Y-69636371D01*
X167057350Y-68964458D01*
X167054310Y-68886869D01*
X167041962Y-68812777D01*
X167035734Y-68793733D01*
X166995549Y-68731766D01*
X166958798Y-68703241D01*
X166890830Y-68675690D01*
X166829471Y-68669169D01*
X166751925Y-68678130D01*
X166681998Y-68705014D01*
X166625040Y-68745006D01*
X166579638Y-68805750D01*
X166553154Y-68883239D01*
X166541971Y-68958455D01*
X166538945Y-69033335D01*
X166538945Y-69636371D01*
X166353564Y-69636371D01*
G37*
G36*
X167825249Y-69636371D02*
G01*
X167409060Y-68534347D01*
X167605065Y-68534347D01*
X167839904Y-69195634D01*
X167865363Y-69270178D01*
X167889350Y-69346712D01*
X167909880Y-69418017D01*
X167931243Y-69347624D01*
X167955533Y-69274316D01*
X167978756Y-69208091D01*
X168222022Y-68534347D01*
X168412898Y-68534347D01*
X167998540Y-69636371D01*
X167825249Y-69636371D01*
G37*
G36*
X169457769Y-69636371D02*
G01*
X169041579Y-68534347D01*
X169237584Y-68534347D01*
X169472423Y-69195634D01*
X169497882Y-69270178D01*
X169521870Y-69346712D01*
X169542399Y-69418017D01*
X169563762Y-69347624D01*
X169588053Y-69274316D01*
X169611275Y-69208091D01*
X169854541Y-68534347D01*
X170045417Y-68534347D01*
X169631059Y-69636371D01*
X169457769Y-69636371D01*
G37*
G36*
X170917364Y-69237766D02*
G01*
X171099813Y-69261580D01*
X171082217Y-69339451D01*
X171055715Y-69409572D01*
X171014522Y-69480223D01*
X170961697Y-69540754D01*
X170946673Y-69554305D01*
X170881598Y-69600467D01*
X170809470Y-69633440D01*
X170730289Y-69653223D01*
X170655221Y-69659715D01*
X170644056Y-69659818D01*
X170562929Y-69654640D01*
X170487985Y-69639107D01*
X170419223Y-69613218D01*
X170346815Y-69569926D01*
X170291448Y-69521600D01*
X170282821Y-69512539D01*
X170236505Y-69452677D01*
X170199771Y-69383825D01*
X170172620Y-69305983D01*
X170157314Y-69234247D01*
X170148663Y-69156267D01*
X170146534Y-69089389D01*
X170149338Y-69013629D01*
X170159414Y-68932285D01*
X170176816Y-68856528D01*
X170201545Y-68786357D01*
X170205152Y-68777979D01*
X170243141Y-68708063D01*
X170290752Y-68648754D01*
X170347984Y-68600052D01*
X170383938Y-68577578D01*
X170453184Y-68545346D01*
X170525733Y-68523662D01*
X170601587Y-68512527D01*
X170645155Y-68510899D01*
X170720093Y-68515230D01*
X170798094Y-68530783D01*
X170867944Y-68557648D01*
X170936781Y-68601391D01*
X170994203Y-68658292D01*
X171038701Y-68727190D01*
X171067403Y-68798505D01*
X171082228Y-68858213D01*
X170901977Y-68886056D01*
X170879418Y-68816275D01*
X170840702Y-68750662D01*
X170810386Y-68719361D01*
X170743211Y-68679127D01*
X170669620Y-68663800D01*
X170652483Y-68663307D01*
X170577727Y-68671305D01*
X170504454Y-68698955D01*
X170441485Y-68746353D01*
X170424604Y-68764424D01*
X170382277Y-68830604D01*
X170356282Y-68905051D01*
X170342516Y-68982250D01*
X170337385Y-69057379D01*
X170337043Y-69084260D01*
X170340018Y-69163253D01*
X170351010Y-69244634D01*
X170373490Y-69323431D01*
X170411425Y-69393959D01*
X170421673Y-69407026D01*
X170479576Y-69459963D01*
X170547496Y-69493294D01*
X170625435Y-69507018D01*
X170642224Y-69507410D01*
X170719006Y-69498137D01*
X170790675Y-69467160D01*
X170824307Y-69441465D01*
X170871740Y-69381736D01*
X170902005Y-69309424D01*
X170917364Y-69237766D01*
G37*
G36*
X171296917Y-69636371D02*
G01*
X171296917Y-68680892D01*
X171132786Y-68680892D01*
X171132786Y-68534347D01*
X171296917Y-68534347D01*
X171296917Y-68417110D01*
X171299648Y-68341668D01*
X171311784Y-68266243D01*
X171316335Y-68251880D01*
X171353246Y-68186209D01*
X171410490Y-68134277D01*
X171480104Y-68103222D01*
X171556182Y-68090445D01*
X171599901Y-68088848D01*
X171676762Y-68092953D01*
X171749366Y-68103153D01*
X171772825Y-68107532D01*
X171744981Y-68269099D01*
X171672011Y-68260053D01*
X171635804Y-68258841D01*
X171559843Y-68269181D01*
X171516003Y-68295477D01*
X171486093Y-68365859D01*
X171481199Y-68432131D01*
X171481199Y-68534347D01*
X171694423Y-68534347D01*
X171694423Y-68680892D01*
X171481199Y-68680892D01*
X171481199Y-69636371D01*
X171296917Y-69636371D01*
G37*
D11*
X142561475Y-29886054D02*
X142702989Y-29933226D01*
X142702989Y-29933226D02*
X142750160Y-29980397D01*
X142750160Y-29980397D02*
X142797332Y-30074740D01*
X142797332Y-30074740D02*
X142797332Y-30216254D01*
X142797332Y-30216254D02*
X142750160Y-30310597D01*
X142750160Y-30310597D02*
X142702989Y-30357769D01*
X142702989Y-30357769D02*
X142608646Y-30404940D01*
X142608646Y-30404940D02*
X142231275Y-30404940D01*
X142231275Y-30404940D02*
X142231275Y-29414340D01*
X142231275Y-29414340D02*
X142561475Y-29414340D01*
X142561475Y-29414340D02*
X142655818Y-29461511D01*
X142655818Y-29461511D02*
X142702989Y-29508683D01*
X142702989Y-29508683D02*
X142750160Y-29603026D01*
X142750160Y-29603026D02*
X142750160Y-29697369D01*
X142750160Y-29697369D02*
X142702989Y-29791711D01*
X142702989Y-29791711D02*
X142655818Y-29838883D01*
X142655818Y-29838883D02*
X142561475Y-29886054D01*
X142561475Y-29886054D02*
X142231275Y-29886054D01*
X143221875Y-30404940D02*
X143221875Y-29414340D01*
X143221875Y-29414340D02*
X143552075Y-30121911D01*
X143552075Y-30121911D02*
X143882275Y-29414340D01*
X143882275Y-29414340D02*
X143882275Y-30404940D01*
X144920046Y-30310597D02*
X144872874Y-30357769D01*
X144872874Y-30357769D02*
X144731360Y-30404940D01*
X144731360Y-30404940D02*
X144637017Y-30404940D01*
X144637017Y-30404940D02*
X144495503Y-30357769D01*
X144495503Y-30357769D02*
X144401160Y-30263426D01*
X144401160Y-30263426D02*
X144353989Y-30169083D01*
X144353989Y-30169083D02*
X144306817Y-29980397D01*
X144306817Y-29980397D02*
X144306817Y-29838883D01*
X144306817Y-29838883D02*
X144353989Y-29650197D01*
X144353989Y-29650197D02*
X144401160Y-29555854D01*
X144401160Y-29555854D02*
X144495503Y-29461511D01*
X144495503Y-29461511D02*
X144637017Y-29414340D01*
X144637017Y-29414340D02*
X144731360Y-29414340D01*
X144731360Y-29414340D02*
X144872874Y-29461511D01*
X144872874Y-29461511D02*
X144920046Y-29508683D01*
X145863474Y-30404940D02*
X145297417Y-30404940D01*
X145580446Y-30404940D02*
X145580446Y-29414340D01*
X145580446Y-29414340D02*
X145486103Y-29555854D01*
X145486103Y-29555854D02*
X145391760Y-29650197D01*
X145391760Y-29650197D02*
X145297417Y-29697369D01*
X146476703Y-29414340D02*
X146571046Y-29414340D01*
X146571046Y-29414340D02*
X146665389Y-29461511D01*
X146665389Y-29461511D02*
X146712561Y-29508683D01*
X146712561Y-29508683D02*
X146759732Y-29603026D01*
X146759732Y-29603026D02*
X146806903Y-29791711D01*
X146806903Y-29791711D02*
X146806903Y-30027569D01*
X146806903Y-30027569D02*
X146759732Y-30216254D01*
X146759732Y-30216254D02*
X146712561Y-30310597D01*
X146712561Y-30310597D02*
X146665389Y-30357769D01*
X146665389Y-30357769D02*
X146571046Y-30404940D01*
X146571046Y-30404940D02*
X146476703Y-30404940D01*
X146476703Y-30404940D02*
X146382361Y-30357769D01*
X146382361Y-30357769D02*
X146335189Y-30310597D01*
X146335189Y-30310597D02*
X146288018Y-30216254D01*
X146288018Y-30216254D02*
X146240846Y-30027569D01*
X146240846Y-30027569D02*
X146240846Y-29791711D01*
X146240846Y-29791711D02*
X146288018Y-29603026D01*
X146288018Y-29603026D02*
X146335189Y-29508683D01*
X146335189Y-29508683D02*
X146382361Y-29461511D01*
X146382361Y-29461511D02*
X146476703Y-29414340D01*
X147420132Y-29414340D02*
X147514475Y-29414340D01*
X147514475Y-29414340D02*
X147608818Y-29461511D01*
X147608818Y-29461511D02*
X147655990Y-29508683D01*
X147655990Y-29508683D02*
X147703161Y-29603026D01*
X147703161Y-29603026D02*
X147750332Y-29791711D01*
X147750332Y-29791711D02*
X147750332Y-30027569D01*
X147750332Y-30027569D02*
X147703161Y-30216254D01*
X147703161Y-30216254D02*
X147655990Y-30310597D01*
X147655990Y-30310597D02*
X147608818Y-30357769D01*
X147608818Y-30357769D02*
X147514475Y-30404940D01*
X147514475Y-30404940D02*
X147420132Y-30404940D01*
X147420132Y-30404940D02*
X147325790Y-30357769D01*
X147325790Y-30357769D02*
X147278618Y-30310597D01*
X147278618Y-30310597D02*
X147231447Y-30216254D01*
X147231447Y-30216254D02*
X147184275Y-30027569D01*
X147184275Y-30027569D02*
X147184275Y-29791711D01*
X147184275Y-29791711D02*
X147231447Y-29603026D01*
X147231447Y-29603026D02*
X147278618Y-29508683D01*
X147278618Y-29508683D02*
X147325790Y-29461511D01*
X147325790Y-29461511D02*
X147420132Y-29414340D01*
X148929619Y-30404940D02*
X148929619Y-29414340D01*
X148929619Y-29414340D02*
X149165476Y-29414340D01*
X149165476Y-29414340D02*
X149306990Y-29461511D01*
X149306990Y-29461511D02*
X149401333Y-29555854D01*
X149401333Y-29555854D02*
X149448504Y-29650197D01*
X149448504Y-29650197D02*
X149495676Y-29838883D01*
X149495676Y-29838883D02*
X149495676Y-29980397D01*
X149495676Y-29980397D02*
X149448504Y-30169083D01*
X149448504Y-30169083D02*
X149401333Y-30263426D01*
X149401333Y-30263426D02*
X149306990Y-30357769D01*
X149306990Y-30357769D02*
X149165476Y-30404940D01*
X149165476Y-30404940D02*
X148929619Y-30404940D01*
X150297590Y-30357769D02*
X150203247Y-30404940D01*
X150203247Y-30404940D02*
X150014562Y-30404940D01*
X150014562Y-30404940D02*
X149920219Y-30357769D01*
X149920219Y-30357769D02*
X149873047Y-30263426D01*
X149873047Y-30263426D02*
X149873047Y-29886054D01*
X149873047Y-29886054D02*
X149920219Y-29791711D01*
X149920219Y-29791711D02*
X150014562Y-29744540D01*
X150014562Y-29744540D02*
X150203247Y-29744540D01*
X150203247Y-29744540D02*
X150297590Y-29791711D01*
X150297590Y-29791711D02*
X150344762Y-29886054D01*
X150344762Y-29886054D02*
X150344762Y-29980397D01*
X150344762Y-29980397D02*
X149873047Y-30074740D01*
X150910819Y-30404940D02*
X150816476Y-30357769D01*
X150816476Y-30357769D02*
X150769305Y-30263426D01*
X150769305Y-30263426D02*
X150769305Y-29414340D01*
X151712734Y-29744540D02*
X151712734Y-30404940D01*
X151288191Y-29744540D02*
X151288191Y-30263426D01*
X151288191Y-30263426D02*
X151335362Y-30357769D01*
X151335362Y-30357769D02*
X151429705Y-30404940D01*
X151429705Y-30404940D02*
X151571219Y-30404940D01*
X151571219Y-30404940D02*
X151665562Y-30357769D01*
X151665562Y-30357769D02*
X151712734Y-30310597D01*
X152090105Y-30404940D02*
X152608991Y-29744540D01*
X152090105Y-29744540D02*
X152608991Y-30404940D01*
X153363733Y-30357769D02*
X153269390Y-30404940D01*
X153269390Y-30404940D02*
X153080705Y-30404940D01*
X153080705Y-30404940D02*
X152986362Y-30357769D01*
X152986362Y-30357769D02*
X152939190Y-30263426D01*
X152939190Y-30263426D02*
X152939190Y-29886054D01*
X152939190Y-29886054D02*
X152986362Y-29791711D01*
X152986362Y-29791711D02*
X153080705Y-29744540D01*
X153080705Y-29744540D02*
X153269390Y-29744540D01*
X153269390Y-29744540D02*
X153363733Y-29791711D01*
X153363733Y-29791711D02*
X153410905Y-29886054D01*
X153410905Y-29886054D02*
X153410905Y-29980397D01*
X153410905Y-29980397D02*
X152939190Y-30074740D01*
X154590191Y-30404940D02*
X154590191Y-29414340D01*
X154590191Y-29414340D02*
X154826048Y-29414340D01*
X154826048Y-29414340D02*
X154967562Y-29461511D01*
X154967562Y-29461511D02*
X155061905Y-29555854D01*
X155061905Y-29555854D02*
X155109076Y-29650197D01*
X155109076Y-29650197D02*
X155156248Y-29838883D01*
X155156248Y-29838883D02*
X155156248Y-29980397D01*
X155156248Y-29980397D02*
X155109076Y-30169083D01*
X155109076Y-30169083D02*
X155061905Y-30263426D01*
X155061905Y-30263426D02*
X154967562Y-30357769D01*
X154967562Y-30357769D02*
X154826048Y-30404940D01*
X154826048Y-30404940D02*
X154590191Y-30404940D01*
X155533619Y-30121911D02*
X156005334Y-30121911D01*
X155439276Y-30404940D02*
X155769476Y-29414340D01*
X155769476Y-29414340D02*
X156099676Y-30404940D01*
X156429877Y-30404940D02*
X156429877Y-29414340D01*
X156429877Y-29414340D02*
X156995934Y-30404940D01*
X156995934Y-30404940D02*
X156995934Y-29414340D01*
G36*
X129337023Y-86142291D02*
G01*
X129162449Y-86142291D01*
X129162449Y-86001961D01*
X129111299Y-86065923D01*
X129050673Y-86114174D01*
X128980572Y-86146716D01*
X128900995Y-86163548D01*
X128851268Y-86166113D01*
X128770287Y-86158916D01*
X128693450Y-86137324D01*
X128620756Y-86101337D01*
X128606715Y-86092412D01*
X128548057Y-86046362D01*
X128497289Y-85991126D01*
X128454413Y-85926703D01*
X128434002Y-85886943D01*
X128404493Y-85809523D01*
X128386370Y-85735514D01*
X128375878Y-85656619D01*
X128372957Y-85583579D01*
X128372989Y-85582835D01*
X128566515Y-85582835D01*
X128569681Y-85659820D01*
X128581381Y-85739944D01*
X128605308Y-85818734D01*
X128645685Y-85891077D01*
X128656593Y-85904810D01*
X128716055Y-85960950D01*
X128781842Y-85996296D01*
X128861512Y-86011163D01*
X128869134Y-86011267D01*
X128949697Y-85999259D01*
X129021462Y-85963237D01*
X129079070Y-85909649D01*
X129120815Y-85843830D01*
X129146452Y-85771135D01*
X129160029Y-85696573D01*
X129165342Y-85611787D01*
X129165426Y-85598840D01*
X129162325Y-85516882D01*
X129150867Y-85432147D01*
X129130966Y-85359133D01*
X129097885Y-85290038D01*
X129077209Y-85261231D01*
X129018343Y-85204503D01*
X128951553Y-85168785D01*
X128876839Y-85154078D01*
X128860945Y-85153658D01*
X128786348Y-85163763D01*
X128713610Y-85198223D01*
X128655959Y-85250770D01*
X128650638Y-85257137D01*
X128609973Y-85324586D01*
X128584999Y-85400409D01*
X128571772Y-85479007D01*
X128566843Y-85555478D01*
X128566515Y-85582835D01*
X128372989Y-85582835D01*
X128376423Y-85501945D01*
X128386822Y-85424173D01*
X128404154Y-85350263D01*
X128428419Y-85280215D01*
X128464003Y-85208618D01*
X128508362Y-85147090D01*
X128567940Y-85090537D01*
X128594804Y-85071396D01*
X128666712Y-85033119D01*
X128743781Y-85009019D01*
X128826013Y-84999095D01*
X128843079Y-84998812D01*
X128921111Y-85006122D01*
X128997040Y-85030346D01*
X129022119Y-85043107D01*
X129085213Y-85086740D01*
X129137050Y-85140775D01*
X129149793Y-85158125D01*
X129149793Y-84593830D01*
X129337023Y-84593830D01*
X129337023Y-86142291D01*
G37*
G36*
X130164813Y-85004269D02*
G01*
X130239787Y-85020639D01*
X130319980Y-85053532D01*
X130392336Y-85101280D01*
X130448118Y-85154030D01*
X130496187Y-85216673D01*
X130534311Y-85288189D01*
X130562490Y-85368576D01*
X130578375Y-85442344D01*
X130587353Y-85522272D01*
X130589563Y-85590651D01*
X130588819Y-85642019D01*
X129759499Y-85642019D01*
X129768013Y-85716341D01*
X129787427Y-85791467D01*
X129821614Y-85863470D01*
X129862978Y-85916349D01*
X129925842Y-85966403D01*
X129997648Y-85997919D01*
X130078397Y-86010896D01*
X130095619Y-86011267D01*
X130174720Y-86002359D01*
X130248776Y-85972843D01*
X130272427Y-85957294D01*
X130326969Y-85902814D01*
X130368373Y-85833658D01*
X130388561Y-85784953D01*
X130583608Y-85808776D01*
X130559656Y-85879401D01*
X130523079Y-85951218D01*
X130476685Y-86013542D01*
X130420473Y-86066375D01*
X130412756Y-86072312D01*
X130346104Y-86113350D01*
X130270845Y-86142663D01*
X130197932Y-86158693D01*
X130118428Y-86165747D01*
X130094503Y-86166113D01*
X130006621Y-86160813D01*
X129925832Y-86144914D01*
X129852136Y-86118414D01*
X129785532Y-86081315D01*
X129726021Y-86033616D01*
X129707760Y-86015361D01*
X129659184Y-85954424D01*
X129620659Y-85884954D01*
X129592184Y-85806953D01*
X129573758Y-85720419D01*
X129566081Y-85641790D01*
X129564825Y-85591768D01*
X129568351Y-85506794D01*
X129570984Y-85487173D01*
X129769922Y-85487173D01*
X130390795Y-85487173D01*
X130380054Y-85410508D01*
X130357091Y-85332641D01*
X130319700Y-85267559D01*
X130264820Y-85212500D01*
X130193966Y-85172456D01*
X130121309Y-85155438D01*
X130086314Y-85153658D01*
X130009157Y-85162527D01*
X129933605Y-85192772D01*
X129873394Y-85238893D01*
X129867817Y-85244481D01*
X129820351Y-85307207D01*
X129788225Y-85381856D01*
X129772426Y-85459234D01*
X129769922Y-85487173D01*
X129570984Y-85487173D01*
X129578929Y-85427981D01*
X129596559Y-85355330D01*
X129627023Y-85276281D01*
X129667642Y-85206105D01*
X129709249Y-85154402D01*
X129766431Y-85101526D01*
X129829658Y-85059589D01*
X129898931Y-85028593D01*
X129974250Y-85008536D01*
X130055615Y-84999420D01*
X130084080Y-84998812D01*
X130164813Y-85004269D01*
G37*
G36*
X131385844Y-85004642D02*
G01*
X131465684Y-85024794D01*
X131538908Y-85059342D01*
X131559585Y-85072513D01*
X131622514Y-85124464D01*
X131674975Y-85188194D01*
X131713238Y-85255620D01*
X131724109Y-85280215D01*
X131750919Y-85357622D01*
X131768955Y-85439093D01*
X131777620Y-85514922D01*
X131779570Y-85573901D01*
X131775732Y-85657559D01*
X131764216Y-85736936D01*
X131745023Y-85812033D01*
X131718153Y-85882849D01*
X131679399Y-85954865D01*
X131631811Y-86016811D01*
X131575390Y-86068688D01*
X131540229Y-86093157D01*
X131473722Y-86128424D01*
X131397547Y-86154072D01*
X131318972Y-86165472D01*
X131294932Y-86166113D01*
X131216164Y-86158490D01*
X131144663Y-86135620D01*
X131125569Y-86126285D01*
X131061316Y-86084366D01*
X131005762Y-86029555D01*
X131002734Y-86025784D01*
X131002734Y-86571095D01*
X130814388Y-86571095D01*
X130814388Y-85589535D01*
X130984868Y-85589535D01*
X130987917Y-85666402D01*
X130999181Y-85746091D01*
X131022219Y-85823991D01*
X131061094Y-85894833D01*
X131071596Y-85908160D01*
X131129597Y-85962533D01*
X131201626Y-85999083D01*
X131282276Y-86011267D01*
X131357150Y-86000834D01*
X131424973Y-85969537D01*
X131485743Y-85917374D01*
X131497051Y-85904438D01*
X131540415Y-85835072D01*
X131567046Y-85757841D01*
X131581151Y-85678241D01*
X131586407Y-85601081D01*
X131586757Y-85573529D01*
X131583682Y-85497316D01*
X131572321Y-85417927D01*
X131549086Y-85339759D01*
X131509876Y-85267838D01*
X131499284Y-85254159D01*
X131441465Y-85198020D01*
X131370056Y-85160282D01*
X131290465Y-85147702D01*
X131211063Y-85161073D01*
X131144527Y-85196435D01*
X131089245Y-85247157D01*
X131077552Y-85260859D01*
X131037002Y-85323835D01*
X131008039Y-85399606D01*
X130992199Y-85476402D01*
X130985230Y-85562995D01*
X130984868Y-85589535D01*
X130814388Y-85589535D01*
X130814388Y-85022634D01*
X130985984Y-85022634D01*
X130985984Y-85169664D01*
X131033687Y-85111701D01*
X131090328Y-85062376D01*
X131122963Y-85041618D01*
X131196184Y-85012356D01*
X131275148Y-84999857D01*
X131308332Y-84998812D01*
X131385844Y-85004642D01*
G37*
G36*
X132412355Y-85969578D02*
G01*
X132439527Y-86142291D01*
X132364151Y-86160157D01*
X132297337Y-86166113D01*
X132221483Y-86160707D01*
X132149038Y-86139211D01*
X132138024Y-86133357D01*
X132080387Y-86083950D01*
X132058368Y-86046628D01*
X132042070Y-85970288D01*
X132036748Y-85890404D01*
X132035662Y-85820687D01*
X132035662Y-85171525D01*
X131897194Y-85171525D01*
X131897194Y-85022634D01*
X132035662Y-85022634D01*
X132035662Y-84752398D01*
X132222892Y-84641475D01*
X132222892Y-85022634D01*
X132412355Y-85022634D01*
X132412355Y-85171525D01*
X132222892Y-85171525D01*
X132222892Y-85835948D01*
X132226303Y-85913212D01*
X132232569Y-85942033D01*
X132264953Y-85979628D01*
X132329720Y-85993400D01*
X132402900Y-85973835D01*
X132412355Y-85969578D01*
G37*
G36*
X132593629Y-86142291D02*
G01*
X132593629Y-84593830D01*
X132781975Y-84593830D01*
X132781975Y-85150308D01*
X132842937Y-85091278D01*
X132910524Y-85046746D01*
X132984737Y-85016713D01*
X133065577Y-85001179D01*
X133114745Y-84998812D01*
X133195879Y-85004618D01*
X133269360Y-85022035D01*
X133329520Y-85047946D01*
X133395016Y-85093769D01*
X133443310Y-85152002D01*
X133459799Y-85183064D01*
X133483842Y-85258771D01*
X133495402Y-85338574D01*
X133499101Y-85413357D01*
X133499255Y-85433572D01*
X133499255Y-86142291D01*
X133310536Y-86142291D01*
X133310536Y-85432083D01*
X133304538Y-85350579D01*
X133284086Y-85278473D01*
X133249119Y-85224753D01*
X133185944Y-85180224D01*
X133109801Y-85161204D01*
X133076034Y-85159614D01*
X132999726Y-85169265D01*
X132927834Y-85198218D01*
X132918582Y-85203536D01*
X132858730Y-85251317D01*
X132815261Y-85317608D01*
X132813242Y-85322276D01*
X132791868Y-85398642D01*
X132783471Y-85473939D01*
X132781975Y-85528862D01*
X132781975Y-86142291D01*
X132593629Y-86142291D01*
G37*
D12*
G36*
X152975600Y-68526270D02*
G01*
X153049394Y-68542383D01*
X153128324Y-68574758D01*
X153199541Y-68621754D01*
X153254444Y-68673673D01*
X153301756Y-68735330D01*
X153339280Y-68805719D01*
X153367015Y-68884841D01*
X153382650Y-68957446D01*
X153391487Y-69036116D01*
X153393662Y-69103419D01*
X153392929Y-69153977D01*
X152576670Y-69153977D01*
X152585050Y-69227129D01*
X152604158Y-69301072D01*
X152637807Y-69371941D01*
X152678519Y-69423987D01*
X152740393Y-69473253D01*
X152811069Y-69504273D01*
X152890545Y-69517045D01*
X152907497Y-69517410D01*
X152985352Y-69508643D01*
X153058241Y-69479591D01*
X153081520Y-69464287D01*
X153135203Y-69410665D01*
X153175955Y-69342598D01*
X153195825Y-69294661D01*
X153387800Y-69318108D01*
X153364226Y-69387621D01*
X153328225Y-69458307D01*
X153282561Y-69519650D01*
X153227234Y-69571651D01*
X153219639Y-69577494D01*
X153154037Y-69617886D01*
X153079963Y-69646737D01*
X153008198Y-69662515D01*
X152929947Y-69669457D01*
X152906398Y-69669818D01*
X152819900Y-69664601D01*
X152740383Y-69648952D01*
X152667847Y-69622870D01*
X152602292Y-69586355D01*
X152543719Y-69539408D01*
X152525745Y-69521440D01*
X152477935Y-69461462D01*
X152440016Y-69393087D01*
X152411989Y-69316314D01*
X152393854Y-69231142D01*
X152386298Y-69153752D01*
X152385061Y-69104518D01*
X152388532Y-69020882D01*
X152391124Y-69001569D01*
X152586928Y-69001569D01*
X153198024Y-69001569D01*
X153187452Y-68926112D01*
X153164851Y-68849471D01*
X153128048Y-68785414D01*
X153074033Y-68731222D01*
X153004295Y-68691809D01*
X152932782Y-68675059D01*
X152898338Y-68673307D01*
X152822396Y-68682037D01*
X152748034Y-68711805D01*
X152688771Y-68757200D01*
X152683282Y-68762700D01*
X152636563Y-68824438D01*
X152604943Y-68897911D01*
X152589394Y-68974071D01*
X152586928Y-69001569D01*
X152391124Y-69001569D01*
X152398943Y-68943310D01*
X152416295Y-68871803D01*
X152446280Y-68793999D01*
X152486259Y-68724928D01*
X152527211Y-68674040D01*
X152583492Y-68621996D01*
X152645724Y-68580720D01*
X152713906Y-68550211D01*
X152788039Y-68530471D01*
X152868123Y-68521498D01*
X152896140Y-68520899D01*
X152975600Y-68526270D01*
G37*
G36*
X153614946Y-69646371D02*
G01*
X153614946Y-68544347D01*
X153781642Y-68544347D01*
X153781642Y-68698952D01*
X153830616Y-68638442D01*
X153887138Y-68590451D01*
X153962619Y-68550285D01*
X154035494Y-68529420D01*
X154115917Y-68521073D01*
X154130054Y-68520899D01*
X154207765Y-68526825D01*
X154280155Y-68544602D01*
X154311771Y-68556803D01*
X154376476Y-68592246D01*
X154430675Y-68643400D01*
X154435969Y-68650592D01*
X154472924Y-68718300D01*
X154493854Y-68788345D01*
X154501858Y-68865255D01*
X154504022Y-68946064D01*
X154504112Y-68969696D01*
X154504112Y-69646371D01*
X154318732Y-69646371D01*
X154318732Y-68974458D01*
X154315692Y-68896869D01*
X154303344Y-68822777D01*
X154297116Y-68803733D01*
X154256931Y-68741766D01*
X154220180Y-68713241D01*
X154152212Y-68685690D01*
X154090853Y-68679169D01*
X154013307Y-68688130D01*
X153943380Y-68715014D01*
X153886422Y-68755006D01*
X153841020Y-68815750D01*
X153814536Y-68893239D01*
X153803353Y-68968455D01*
X153800327Y-69043335D01*
X153800327Y-69646371D01*
X153614946Y-69646371D01*
G37*
G36*
X155086631Y-69646371D02*
G01*
X154670442Y-68544347D01*
X154866447Y-68544347D01*
X155101286Y-69205634D01*
X155126745Y-69280178D01*
X155150732Y-69356712D01*
X155171262Y-69428017D01*
X155192625Y-69357624D01*
X155216915Y-69284316D01*
X155240138Y-69218091D01*
X155483404Y-68544347D01*
X155674280Y-68544347D01*
X155259922Y-69646371D01*
X155086631Y-69646371D01*
G37*
G36*
X156719151Y-69646371D02*
G01*
X156302961Y-68544347D01*
X156498966Y-68544347D01*
X156733805Y-69205634D01*
X156759264Y-69280178D01*
X156783252Y-69356712D01*
X156803781Y-69428017D01*
X156825144Y-69357624D01*
X156849435Y-69284316D01*
X156872657Y-69218091D01*
X157115923Y-68544347D01*
X157306799Y-68544347D01*
X156892441Y-69646371D01*
X156719151Y-69646371D01*
G37*
G36*
X158178746Y-69247766D02*
G01*
X158361195Y-69271580D01*
X158343599Y-69349451D01*
X158317097Y-69419572D01*
X158275904Y-69490223D01*
X158223079Y-69550754D01*
X158208055Y-69564305D01*
X158142980Y-69610467D01*
X158070852Y-69643440D01*
X157991671Y-69663223D01*
X157916603Y-69669715D01*
X157905438Y-69669818D01*
X157824311Y-69664640D01*
X157749367Y-69649107D01*
X157680605Y-69623218D01*
X157608197Y-69579926D01*
X157552830Y-69531600D01*
X157544203Y-69522539D01*
X157497887Y-69462677D01*
X157461153Y-69393825D01*
X157434002Y-69315983D01*
X157418696Y-69244247D01*
X157410045Y-69166267D01*
X157407916Y-69099389D01*
X157410720Y-69023629D01*
X157420796Y-68942285D01*
X157438198Y-68866528D01*
X157462927Y-68796357D01*
X157466534Y-68787979D01*
X157504523Y-68718063D01*
X157552134Y-68658754D01*
X157609366Y-68610052D01*
X157645320Y-68587578D01*
X157714566Y-68555346D01*
X157787115Y-68533662D01*
X157862969Y-68522527D01*
X157906537Y-68520899D01*
X157981475Y-68525230D01*
X158059476Y-68540783D01*
X158129326Y-68567648D01*
X158198163Y-68611391D01*
X158255585Y-68668292D01*
X158300083Y-68737190D01*
X158328785Y-68808505D01*
X158343610Y-68868213D01*
X158163359Y-68896056D01*
X158140800Y-68826275D01*
X158102084Y-68760662D01*
X158071768Y-68729361D01*
X158004593Y-68689127D01*
X157931002Y-68673800D01*
X157913865Y-68673307D01*
X157839109Y-68681305D01*
X157765836Y-68708955D01*
X157702867Y-68756353D01*
X157685986Y-68774424D01*
X157643659Y-68840604D01*
X157617664Y-68915051D01*
X157603898Y-68992250D01*
X157598767Y-69067379D01*
X157598425Y-69094260D01*
X157601400Y-69173253D01*
X157612392Y-69254634D01*
X157634872Y-69333431D01*
X157672807Y-69403959D01*
X157683055Y-69417026D01*
X157740958Y-69469963D01*
X157808878Y-69503294D01*
X157886817Y-69517018D01*
X157903606Y-69517410D01*
X157980388Y-69508137D01*
X158052057Y-69477160D01*
X158085689Y-69451465D01*
X158133122Y-69391736D01*
X158163387Y-69319424D01*
X158178746Y-69247766D01*
G37*
G36*
X159051266Y-68523537D02*
G01*
X159124410Y-68532653D01*
X159198676Y-68552187D01*
X159204200Y-68554239D01*
X159271910Y-68586386D01*
X159330183Y-68634283D01*
X159332793Y-68637403D01*
X159371485Y-68702331D01*
X159390679Y-68764532D01*
X159398085Y-68842340D01*
X159399802Y-68921131D01*
X159399838Y-68936357D01*
X159399838Y-69185118D01*
X159400124Y-69261736D01*
X159401223Y-69341351D01*
X159403547Y-69417241D01*
X159408814Y-69493906D01*
X159411562Y-69514113D01*
X159430921Y-69585743D01*
X159458823Y-69646371D01*
X159265016Y-69646371D01*
X159239063Y-69573341D01*
X159228013Y-69507885D01*
X159170684Y-69553641D01*
X159108345Y-69594828D01*
X159041425Y-69628399D01*
X159029444Y-69633181D01*
X158956045Y-69655507D01*
X158878731Y-69667528D01*
X158825013Y-69669818D01*
X158750132Y-69665558D01*
X158674300Y-69650256D01*
X158601416Y-69619740D01*
X158547675Y-69580791D01*
X158496670Y-69520320D01*
X158464556Y-69450188D01*
X158451332Y-69370397D01*
X158450955Y-69353279D01*
X158451600Y-69347417D01*
X158648791Y-69347417D01*
X158664611Y-69420471D01*
X158704845Y-69473080D01*
X158769089Y-69509107D01*
X158843130Y-69522488D01*
X158869343Y-69523272D01*
X158946451Y-69516626D01*
X159022310Y-69494426D01*
X159059852Y-69476011D01*
X159120405Y-69431570D01*
X159169251Y-69370862D01*
X159182584Y-69345952D01*
X159204147Y-69273169D01*
X159211892Y-69195700D01*
X159212626Y-69158373D01*
X159212626Y-69089497D01*
X159139589Y-69113733D01*
X159066992Y-69131421D01*
X158993138Y-69145659D01*
X158909643Y-69158740D01*
X158833290Y-69171946D01*
X158760658Y-69191317D01*
X158747710Y-69196475D01*
X158686834Y-69240956D01*
X158674437Y-69257658D01*
X158649693Y-69329192D01*
X158648791Y-69347417D01*
X158451600Y-69347417D01*
X158459005Y-69280169D01*
X158485337Y-69209106D01*
X158487591Y-69204902D01*
X158529815Y-69144268D01*
X158583212Y-69097190D01*
X158650512Y-69059566D01*
X158716935Y-69035641D01*
X158790652Y-69020381D01*
X158868232Y-69009130D01*
X158881799Y-69007431D01*
X158961857Y-68996904D01*
X159044741Y-68983711D01*
X159125599Y-68967430D01*
X159198883Y-68947582D01*
X159212626Y-68942951D01*
X159213359Y-68894591D01*
X159205991Y-68819561D01*
X159176061Y-68752000D01*
X159160969Y-68735955D01*
X159097925Y-68697779D01*
X159023028Y-68678263D01*
X158949576Y-68673307D01*
X158874522Y-68677600D01*
X158802119Y-68694087D01*
X158756502Y-68717271D01*
X158705197Y-68773299D01*
X158672193Y-68845819D01*
X158664179Y-68872609D01*
X158482828Y-68847696D01*
X158503679Y-68775270D01*
X158534917Y-68708011D01*
X158564161Y-68665613D01*
X158618584Y-68614377D01*
X158683525Y-68576527D01*
X158727926Y-68558635D01*
X158805752Y-68537151D01*
X158883489Y-68525358D01*
X158959143Y-68521047D01*
X158976687Y-68520899D01*
X159051266Y-68523537D01*
G37*
D11*
G36*
X130097392Y-41781491D02*
G01*
X130171706Y-41790753D01*
X130247160Y-41810601D01*
X130252772Y-41812684D01*
X130321566Y-41845346D01*
X130380772Y-41894010D01*
X130383424Y-41897180D01*
X130422734Y-41963147D01*
X130442235Y-42026342D01*
X130449760Y-42105395D01*
X130451505Y-42185447D01*
X130451541Y-42200916D01*
X130451541Y-42453658D01*
X130451832Y-42531502D01*
X130452949Y-42612391D01*
X130455310Y-42689495D01*
X130460661Y-42767386D01*
X130463452Y-42787917D01*
X130483122Y-42860693D01*
X130511470Y-42922291D01*
X130314562Y-42922291D01*
X130288193Y-42848092D01*
X130276967Y-42781589D01*
X130218721Y-42828077D01*
X130155384Y-42869924D01*
X130087393Y-42904031D01*
X130075221Y-42908890D01*
X130000647Y-42931573D01*
X129922096Y-42943787D01*
X129867518Y-42946113D01*
X129791440Y-42941785D01*
X129714395Y-42926238D01*
X129640344Y-42895234D01*
X129585743Y-42855662D01*
X129533922Y-42794223D01*
X129501294Y-42722969D01*
X129487859Y-42641901D01*
X129487476Y-42624510D01*
X129488132Y-42618554D01*
X129688478Y-42618554D01*
X129704551Y-42692776D01*
X129745428Y-42746228D01*
X129810700Y-42782830D01*
X129885926Y-42796426D01*
X129912558Y-42797223D01*
X129990900Y-42790470D01*
X130067973Y-42767915D01*
X130106115Y-42749205D01*
X130167637Y-42704053D01*
X130217265Y-42642374D01*
X130230811Y-42617065D01*
X130252719Y-42543118D01*
X130260588Y-42464410D01*
X130261334Y-42426485D01*
X130261334Y-42356507D01*
X130187128Y-42381130D01*
X130113369Y-42399102D01*
X130038334Y-42413568D01*
X129953503Y-42426858D01*
X129875928Y-42440275D01*
X129802135Y-42459957D01*
X129788979Y-42465197D01*
X129727129Y-42510389D01*
X129714533Y-42527359D01*
X129689394Y-42600037D01*
X129688478Y-42618554D01*
X129488132Y-42618554D01*
X129495654Y-42550230D01*
X129522408Y-42478030D01*
X129524698Y-42473758D01*
X129567597Y-42412155D01*
X129621849Y-42364324D01*
X129690226Y-42326097D01*
X129757712Y-42301790D01*
X129832608Y-42286285D01*
X129911429Y-42274854D01*
X129925213Y-42273128D01*
X130006552Y-42262432D01*
X130090763Y-42249028D01*
X130172914Y-42232487D01*
X130247371Y-42212322D01*
X130261334Y-42207616D01*
X130262078Y-42158483D01*
X130254593Y-42082252D01*
X130224184Y-42013610D01*
X130208850Y-41997309D01*
X130144798Y-41958522D01*
X130068702Y-41938693D01*
X129994075Y-41933658D01*
X129917820Y-41938020D01*
X129844259Y-41954770D01*
X129797912Y-41978325D01*
X129745786Y-42035250D01*
X129712254Y-42108930D01*
X129704111Y-42136149D01*
X129519859Y-42110838D01*
X129541043Y-42037253D01*
X129572781Y-41968917D01*
X129602493Y-41925841D01*
X129657787Y-41873785D01*
X129723767Y-41835329D01*
X129768878Y-41817151D01*
X129847949Y-41795323D01*
X129926931Y-41783342D01*
X130003795Y-41778962D01*
X130021620Y-41778812D01*
X130097392Y-41781491D01*
G37*
G36*
X130738155Y-42922291D02*
G01*
X130738155Y-41802634D01*
X130906774Y-41802634D01*
X130906774Y-41957480D01*
X130954828Y-41897315D01*
X131014308Y-41847470D01*
X131045614Y-41827946D01*
X131114290Y-41798005D01*
X131189665Y-41781883D01*
X131243638Y-41778812D01*
X131323321Y-41784794D01*
X131398208Y-41804964D01*
X131446129Y-41829435D01*
X131506526Y-41881495D01*
X131548968Y-41949088D01*
X131557797Y-41971253D01*
X131610011Y-41905853D01*
X131667825Y-41853984D01*
X131742354Y-41810572D01*
X131824506Y-41785577D01*
X131900990Y-41778812D01*
X131979017Y-41784581D01*
X132055342Y-41804865D01*
X132125920Y-41844530D01*
X132155592Y-41871124D01*
X132202506Y-41938328D01*
X132229872Y-42015471D01*
X132242382Y-42097291D01*
X132244554Y-42154760D01*
X132244554Y-42922291D01*
X132056952Y-42922291D01*
X132056952Y-42215433D01*
X132054387Y-42138784D01*
X132042988Y-42064757D01*
X132038713Y-42051281D01*
X131996919Y-41989238D01*
X131972085Y-41970508D01*
X131901849Y-41943264D01*
X131859300Y-41939614D01*
X131783396Y-41948938D01*
X131711327Y-41980380D01*
X131664626Y-42018526D01*
X131620546Y-42083737D01*
X131596352Y-42162487D01*
X131587883Y-42238834D01*
X131587203Y-42270523D01*
X131587203Y-42922291D01*
X131398484Y-42922291D01*
X131398484Y-42193100D01*
X131393030Y-42113569D01*
X131372522Y-42038858D01*
X131352328Y-42003264D01*
X131291842Y-41955526D01*
X131214794Y-41939862D01*
X131201949Y-41939614D01*
X131125270Y-41950222D01*
X131054547Y-41982047D01*
X130996387Y-42033973D01*
X130958596Y-42100570D01*
X130956652Y-42105626D01*
X130937131Y-42183475D01*
X130928887Y-42259578D01*
X130926502Y-42340129D01*
X130926502Y-42922291D01*
X130738155Y-42922291D01*
G37*
G36*
X133085874Y-41784642D02*
G01*
X133165714Y-41804794D01*
X133238938Y-41839342D01*
X133259615Y-41852513D01*
X133322544Y-41904464D01*
X133375005Y-41968194D01*
X133413269Y-42035620D01*
X133424139Y-42060215D01*
X133450949Y-42137622D01*
X133468985Y-42219093D01*
X133477651Y-42294922D01*
X133479600Y-42353901D01*
X133475762Y-42437559D01*
X133464246Y-42516936D01*
X133445053Y-42592033D01*
X133418183Y-42662849D01*
X133379429Y-42734865D01*
X133331841Y-42796811D01*
X133275421Y-42848688D01*
X133240259Y-42873157D01*
X133173752Y-42908424D01*
X133097577Y-42934072D01*
X133019002Y-42945472D01*
X132994962Y-42946113D01*
X132916194Y-42938490D01*
X132844693Y-42915620D01*
X132825599Y-42906285D01*
X132761347Y-42864366D01*
X132705792Y-42809555D01*
X132702765Y-42805784D01*
X132702765Y-43351095D01*
X132514418Y-43351095D01*
X132514418Y-42369535D01*
X132684898Y-42369535D01*
X132687947Y-42446402D01*
X132699211Y-42526091D01*
X132722249Y-42603991D01*
X132761124Y-42674833D01*
X132771626Y-42688160D01*
X132829627Y-42742533D01*
X132901656Y-42779083D01*
X132982306Y-42791267D01*
X133057181Y-42780834D01*
X133125003Y-42749537D01*
X133185773Y-42697374D01*
X133197081Y-42684438D01*
X133240445Y-42615072D01*
X133267076Y-42537841D01*
X133281181Y-42458241D01*
X133286437Y-42381081D01*
X133286787Y-42353529D01*
X133283712Y-42277316D01*
X133272351Y-42197927D01*
X133249116Y-42119759D01*
X133209907Y-42047838D01*
X133199314Y-42034159D01*
X133141496Y-41978020D01*
X133070086Y-41940282D01*
X132990495Y-41927702D01*
X132911093Y-41941073D01*
X132844557Y-41976435D01*
X132789275Y-42027157D01*
X132777582Y-42040859D01*
X132737033Y-42103835D01*
X132708069Y-42179606D01*
X132692229Y-42256402D01*
X132685260Y-42342995D01*
X132684898Y-42369535D01*
X132514418Y-42369535D01*
X132514418Y-41802634D01*
X132686014Y-41802634D01*
X132686014Y-41949664D01*
X132733717Y-41891701D01*
X132790358Y-41842376D01*
X132822994Y-41821618D01*
X132896215Y-41792356D01*
X132975178Y-41779857D01*
X133008362Y-41778812D01*
X133085874Y-41784642D01*
G37*
D13*
X130195000Y-58865000D02*
G75*
G02*
X127195000Y-58865000I-1500000J0D01*
G01*
X127195000Y-58865000D02*
G75*
G02*
X130195000Y-58865000I1500000J0D01*
G01*
X130207000Y-80474000D02*
G75*
G02*
X127207000Y-80474000I-1500000J0D01*
G01*
X127207000Y-80474000D02*
G75*
G02*
X130207000Y-80474000I1500000J0D01*
G01*
X145467000Y-134455000D02*
G75*
G02*
X138067000Y-134455000I-3700000J0D01*
G01*
X138067000Y-134455000D02*
G75*
G02*
X145467000Y-134455000I3700000J0D01*
G01*
X145467000Y-112842000D02*
G75*
G02*
X138067000Y-112842000I-3700000J0D01*
G01*
X138067000Y-112842000D02*
G75*
G02*
X145467000Y-112842000I3700000J0D01*
G01*
X145467000Y-91354000D02*
G75*
G02*
X138067000Y-91354000I-3700000J0D01*
G01*
X138067000Y-91354000D02*
G75*
G02*
X145467000Y-91354000I3700000J0D01*
G01*
X145467000Y-69752000D02*
G75*
G02*
X138067000Y-69752000I-3700000J0D01*
G01*
X138067000Y-69752000D02*
G75*
G02*
X145467000Y-69752000I3700000J0D01*
G01*
X145467000Y-48090000D02*
G75*
G02*
X138067000Y-48090000I-3700000J0D01*
G01*
X138067000Y-48090000D02*
G75*
G02*
X145467000Y-48090000I3700000J0D01*
G01*
X171137000Y-140237000D02*
G75*
G02*
X165037000Y-140237000I-3050000J0D01*
G01*
X165037000Y-140237000D02*
G75*
G02*
X171137000Y-140237000I3050000J0D01*
G01*
X171201000Y-120448000D02*
G75*
G02*
X165101000Y-120448000I-3050000J0D01*
G01*
X165101000Y-120448000D02*
G75*
G02*
X171201000Y-120448000I3050000J0D01*
G01*
X171201000Y-100852000D02*
G75*
G02*
X165101000Y-100852000I-3050000J0D01*
G01*
X165101000Y-100852000D02*
G75*
G02*
X171201000Y-100852000I3050000J0D01*
G01*
X171131000Y-80529000D02*
G75*
G02*
X165031000Y-80529000I-3050000J0D01*
G01*
X165031000Y-80529000D02*
G75*
G02*
X171131000Y-80529000I3050000J0D01*
G01*
X171220000Y-61605000D02*
G75*
G02*
X165120000Y-61605000I-3050000J0D01*
G01*
X165120000Y-61605000D02*
G75*
G02*
X171220000Y-61605000I3050000J0D01*
G01*
X171316000Y-42345000D02*
G75*
G02*
X165216000Y-42345000I-3050000J0D01*
G01*
X165216000Y-42345000D02*
G75*
G02*
X171316000Y-42345000I3050000J0D01*
G01*
X158559000Y-140223000D02*
G75*
G02*
X152459000Y-140223000I-3050000J0D01*
G01*
X152459000Y-140223000D02*
G75*
G02*
X158559000Y-140223000I3050000J0D01*
G01*
X158623000Y-120434000D02*
G75*
G02*
X152523000Y-120434000I-3050000J0D01*
G01*
X152523000Y-120434000D02*
G75*
G02*
X158623000Y-120434000I3050000J0D01*
G01*
X158623000Y-100838000D02*
G75*
G02*
X152523000Y-100838000I-3050000J0D01*
G01*
X152523000Y-100838000D02*
G75*
G02*
X158623000Y-100838000I3050000J0D01*
G01*
X158553000Y-80515000D02*
G75*
G02*
X152453000Y-80515000I-3050000J0D01*
G01*
X152453000Y-80515000D02*
G75*
G02*
X158553000Y-80515000I3050000J0D01*
G01*
X158642000Y-61591000D02*
G75*
G02*
X152542000Y-61591000I-3050000J0D01*
G01*
X152542000Y-61591000D02*
G75*
G02*
X158642000Y-61591000I3050000J0D01*
G01*
X158738000Y-42331000D02*
G75*
G02*
X152638000Y-42331000I-3050000J0D01*
G01*
X152638000Y-42331000D02*
G75*
G02*
X158738000Y-42331000I3050000J0D01*
G01*
X128700000Y-152408000D02*
G75*
G02*
X130300000Y-150808000I1600000J0D01*
G01*
X130300000Y-150808000D02*
X133500000Y-150808000D01*
X133500000Y-150808000D02*
G75*
G02*
X135100000Y-152408000I0J-1600000D01*
G01*
X135100000Y-152408000D02*
G75*
G02*
X133500000Y-154008000I-1600000J0D01*
G01*
X133500000Y-154008000D02*
X130300000Y-154008000D01*
X130300000Y-154008000D02*
G75*
G02*
X128700000Y-152408000I0J1600000D01*
G01*
X164259000Y-152400000D02*
G75*
G02*
X165859000Y-150800000I1600000J0D01*
G01*
X165859000Y-150800000D02*
X169059000Y-150800000D01*
X169059000Y-150800000D02*
G75*
G02*
X170659000Y-152400000I0J-1600000D01*
G01*
X170659000Y-152400000D02*
G75*
G02*
X169059000Y-154000000I-1600000J0D01*
G01*
X169059000Y-154000000D02*
X165859000Y-154000000D01*
X165859000Y-154000000D02*
G75*
G02*
X164259000Y-152400000I0J1600000D01*
G01*
X164261000Y-30003000D02*
G75*
G02*
X165861000Y-28403000I1600000J0D01*
G01*
X165861000Y-28403000D02*
X169061000Y-28403000D01*
X169061000Y-28403000D02*
G75*
G02*
X170661000Y-30003000I0J-1600000D01*
G01*
X170661000Y-30003000D02*
G75*
G02*
X169061000Y-31603000I-1600000J0D01*
G01*
X169061000Y-31603000D02*
X165861000Y-31603000D01*
X165861000Y-31603000D02*
G75*
G02*
X164261000Y-30003000I0J1600000D01*
G01*
X128700000Y-30001000D02*
G75*
G02*
X130300000Y-28401000I1600000J0D01*
G01*
X130300000Y-28401000D02*
X133500000Y-28401000D01*
X133500000Y-28401000D02*
G75*
G02*
X135100000Y-30001000I0J-1600000D01*
G01*
X135100000Y-30001000D02*
G75*
G02*
X133500000Y-31601000I-1600000J0D01*
G01*
X133500000Y-31601000D02*
X130300000Y-31601000D01*
X130300000Y-31601000D02*
G75*
G02*
X128700000Y-30001000I0J1600000D01*
G01*
X124450000Y-27000000D02*
X174910000Y-27000000D01*
X124450000Y-155400000D02*
X124450000Y-27000000D01*
X174910000Y-155400000D02*
X124450000Y-155400000D01*
X174910000Y-27000000D02*
X174910000Y-155400000D01*
M02*
